<?xml version="1.0" standalone="no"?><!DOCTYPE svg PUBLIC "-//W3C//DTD SVG 1.1//EN" "http://www.w3.org/Graphics/SVG/1.1/DTD/svg11.dtd" ><svg xmlns="http://www.w3.org/2000/svg"><metadata></metadata><defs><font id="Google:Roboto:2014" horiz-adv-x="2377"><font-face font-family="Roboto" font-weight="400" font-stretch="normal" units-per-em="2048" panose-1="0 0 0 0 0 0 0 0 0 0" ascent="1900" descent="-500" x-height="0" bbox="-1395 -555 2352 2163" underline-thickness="100" underline-position="-150" unicode-range="U+0000-fffd" /><missing-glyph horiz-adv-x="507"  /><glyph glyph-name=".null" unicode="" d="" /><glyph glyph-name="nonmarkingreturn" unicode="" d="" /><glyph glyph-name="space" unicode=" " d="" /><glyph glyph-name="quotedbl" unicode="&quot;" d="M277 1400 L247 1042 L136 1042 L137 1390 L137 1536 L277 1536 L277 1400 ZM547 1400 L517 1042 L406 1042 L407 1398 L407 1536 L547 1536 L547 1400 Z" /><glyph glyph-name="numbersign" unicode="#" d="M716 410 L452 410 L372 0 L229 0 L309 410 L70 410 L70 547 L335 547 L404 901 L146 901 L146 1040 L431 1040 L513 1456 L656 1456 L574 1040 L838 1040 L920 1456 L1064 1456 L982 1040 L1186 1040 L1186 901 L955 901 L886 547 L1111 547 L1111 410 L860 410 L780 0 L636 0 L716 410 ZM478 547 L742 547 L811 901 L547 901 L478 547 Z" /><glyph glyph-name="dollar" unicode="$" d="M856 375 Q856 420 841 458 Q826 496 792.5 529 Q759 562 705.5 590 Q652 618 574 644 Q479 673 403.5 711.5 Q328 750 275 802 Q222 854 194 922 Q166 990 166 1079 Q166 1162 191 1230.5 Q216 1299 262.5 1349.5 Q309 1400 375 1431.5 Q441 1463 524 1473 L524 1692 L673 1692 L673 1472 Q841 1449 934.5 1331 Q1028 1213 1028 1008 L844 1008 Q844 1075 828 1131 Q812 1187 780.5 1228 Q749 1269 702.5 1292 Q656 1315 596 1315 Q533 1315 487 1298 Q441 1281 411 1250.5 Q381 1220 366 1177 Q351 1134 351 1082 Q351 1034 365 995.5 Q379 957 412 925 Q445 893 500 864.5 Q555 836 638 809 Q734 778 809 739.5 Q884 701 935.5 650 Q987 599 1014 532 Q1041 465 1041 377 Q1041 290 1014 221 Q987 152 936.5 102 Q886 52 814.5 22 Q743 -8 655 -17 L655 -208 L507 -208 L507 -17 Q430 -10 358.5 18 Q287 46 231.5 99 Q176 152 143 233.5 Q110 315 110 429 L295 429 Q295 344 320 288 Q345 232 385.5 199 Q426 166 475.5 153 Q525 140 575 140 Q642 140 694 156.5 Q746 173 782 203.5 Q818 234 837 277.5 Q856 321 856 375 Z" /><glyph glyph-name="percent" unicode="%" d="M105 1176 Q105 1238 125.5 1292.5 Q146 1347 184.5 1388 Q223 1429 278.5 1453 Q334 1477 403 1477 Q473 1477 528.5 1453 Q584 1429 622 1388 Q660 1347 680.5 1292.5 Q701 1238 701 1176 L701 1099 Q701 1038 681 983.5 Q661 929 622.5 888.5 Q584 848 529 824 Q474 800 405 800 Q335 800 279.5 824 Q224 848 185 888.5 Q146 929 125.5 983.5 Q105 1038 105 1099 L105 1176 ZM243 1099 Q243 1064 253 1032 Q263 1000 283 975 Q303 950 333.5 935 Q364 920 405 920 Q445 920 475 935 Q505 950 524.5 974.5 Q544 999 553.5 1031.5 Q563 1064 563 1099 L563 1176 Q563 1211 553 1243.5 Q543 1276 523.5 1301 Q504 1326 473.5 1341 Q443 1356 403 1356 Q362 1356 332 1341 Q302 1326 282.5 1301 Q263 1276 253 1243.5 Q243 1211 243 1176 L243 1099 ZM814 357 Q814 418 834.5 473 Q855 528 893.5 568.5 Q932 609 987.5 633 Q1043 657 1112 657 Q1182 657 1237.5 633 Q1293 609 1331.5 568.5 Q1370 528 1390.5 473 Q1411 418 1411 357 L1411 279 Q1411 217 1390.5 162.5 Q1370 108 1331.5 67.5 Q1293 27 1238 3 Q1183 -21 1114 -21 Q1044 -21 988.5 3 Q933 27 894 67.5 Q855 108 834.5 162.5 Q814 217 814 279 L814 357 ZM952 279 Q952 244 962 211.5 Q972 179 992 154 Q1012 129 1042.5 114 Q1073 99 1114 99 Q1154 99 1184 114 Q1214 129 1233.5 154 Q1253 179 1262.5 211.5 Q1272 244 1272 279 L1272 357 Q1272 392 1262 424.5 Q1252 457 1232.5 481.5 Q1213 506 1182.5 521 Q1152 536 1112 536 Q1072 536 1042 521 Q1012 506 992 481.5 Q972 457 962 424.5 Q952 392 952 357 L952 279 ZM447 110 L342 176 L1053 1314 L1158 1248 L447 110 Z" /><glyph glyph-name="ampersand" unicode="&amp;" d="M101 391 Q101 457 121.5 510.5 Q142 564 179.5 611.5 Q217 659 269 702 Q321 745 383 789 Q346 834 316 875 Q286 916 264.5 956.5 Q243 997 231.5 1038 Q220 1079 220 1122 Q220 1207 246 1273 Q272 1339 320 1384 Q368 1429 435 1452.5 Q502 1476 584 1476 Q664 1476 728 1451 Q792 1426 837 1384 Q882 1342 906 1286 Q930 1230 930 1168 Q930 1115 915.5 1071.5 Q901 1028 875 989.5 Q849 951 812.5 917.5 Q776 884 733 851 L623 770 L947 383 Q979 444 997 516.5 Q1015 589 1015 672 L1182 672 Q1182 547 1152 441 Q1122 335 1059 249 L1267 0 L1045 0 L948 115 Q910 81 865 55.5 Q820 30 771.5 13.5 Q723 -3 672 -11.5 Q621 -20 572 -20 Q463 -20 375.5 10.5 Q288 41 227 95.5 Q166 150 133.5 225.5 Q101 301 101 391 ZM572 131 Q644 131 713 160 Q782 189 841 243 L486 668 L444 637 Q390 597 358.5 559.5 Q327 522 311 490 Q295 458 290.5 432.5 Q286 407 286 391 Q286 338 303.5 290.5 Q321 243 356.5 207.5 Q392 172 446 151.5 Q500 131 572 131 ZM405 1128 Q405 1073 437 1013.5 Q469 954 523 888 L628 962 Q659 983 683.5 1004 Q708 1025 725 1049 Q742 1073 750.5 1101.5 Q759 1130 759 1168 Q759 1198 747.5 1226 Q736 1254 713.5 1275.5 Q691 1297 658 1310.5 Q625 1324 583 1324 Q539 1324 506 1308.5 Q473 1293 450.5 1266 Q428 1239 416.5 1203.5 Q405 1168 405 1128 Z" /><glyph glyph-name="quotesingle" unicode="&#39;" d="M253 1425 L232 1057 L103 1057 L104 1409 L104 1536 L253 1536 L253 1425 Z" /><glyph glyph-name="parenleft" unicode="(" d="M133 591 Q133 736 156 863.5 Q179 991 217.5 1099 Q256 1207 306.5 1296 Q357 1385 411.5 1453 Q466 1521 520.5 1569 Q575 1617 623 1643 L661 1521 Q602 1476 541.5 1397 Q481 1318 431 1202.5 Q381 1087 349.5 935 Q318 783 318 593 L318 579 Q318 389 349.5 237 Q381 85 431 -31 Q481 -147 541.5 -228 Q602 -309 661 -357 L623 -470 Q576 -444 521 -396 Q466 -348 411.5 -279.5 Q357 -211 306.5 -123 Q256 -35 217.5 73 Q179 181 156 308 Q133 435 133 581 L133 591 Z" /><glyph glyph-name="parenright" unicode=")" d="M567 581 Q567 435 544 308 Q521 181 482.5 73 Q444 -35 393.5 -123 Q343 -211 288.5 -279.5 Q234 -348 179 -396 Q124 -444 77 -470 L38 -357 Q97 -312 158 -231.5 Q219 -151 268.5 -34 Q318 83 349.5 236 Q381 389 381 579 L381 593 Q381 783 347.5 937 Q314 1091 263 1208 Q212 1325 152 1405.5 Q92 1486 38 1530 L77 1643 Q124 1617 179 1569 Q234 1521 288.5 1453 Q343 1385 393.5 1296 Q444 1207 482.5 1099 Q521 991 544 863.5 Q567 736 567 591 L567 581 Z" /><glyph glyph-name="asterisk" unicode="*" d="M330 983 L28 1073 L74 1224 L376 1112 L367 1456 L520 1456 L510 1107 L807 1217 L853 1065 L546 974 L744 703 L620 609 L434 897 L254 616 L129 707 L330 983 Z" /><glyph glyph-name="plus" unicode="+" d="M670 781 L1076 781 L1076 606 L670 606 L670 146 L484 146 L484 606 L78 606 L78 781 L484 781 L484 1206 L670 1206 L670 781 Z" /><glyph glyph-name="comma" unicode="," d="M308 71 Q308 26 296.5 -23 Q285 -72 262.5 -120 Q240 -168 208 -212 Q176 -256 134 -290 L29 -218 Q76 -152 101.5 -82.5 Q127 -13 127 68 L127 219 L308 219 L308 71 Z" /><glyph glyph-name="hyphen" unicode="-" d="M525 543 L37 543 L37 694 L525 694 L525 543 Z" /><glyph glyph-name="period" unicode="." d="M144 97 Q144 145 172.5 177 Q201 209 258 209 Q315 209 344.5 177 Q374 145 374 97 Q374 51 344.5 20 Q315 -11 258 -11 Q201 -11 172.5 20 Q144 51 144 97 Z" /><glyph glyph-name="slash" unicode="/" d="M177 -125 L18 -125 L626 1456 L784 1456 L177 -125 Z" /><glyph glyph-name="zero" unicode="0" d="M1034 621 Q1034 442 1002 319.5 Q970 197 910.5 121.5 Q851 46 766.5 13 Q682 -20 576 -20 Q471 -20 386 13 Q301 46 241 121.5 Q181 197 148 319.5 Q115 442 115 621 L115 843 Q115 1022 147.5 1143 Q180 1264 240 1338 Q300 1412 384.5 1444 Q469 1476 574 1476 Q680 1476 765 1444 Q850 1412 910 1338 Q970 1264 1002 1143 Q1034 1022 1034 843 L1034 621 ZM849 874 Q849 997 831.5 1083 Q814 1169 779 1222.5 Q744 1276 692.5 1300 Q641 1324 574 1324 Q508 1324 456.5 1300 Q405 1276 370.5 1222.5 Q336 1169 318 1083 Q300 997 300 874 L300 592 Q300 470 318 382.5 Q336 295 371.5 239 Q407 183 458.5 157 Q510 131 576 131 Q644 131 695 157 Q746 183 780.5 239 Q815 295 832 382.5 Q849 470 849 592 L849 874 Z" /><glyph glyph-name="one" unicode="1" d="M729 0 L543 0 L543 1233 L170 1096 L170 1264 L700 1463 L729 1463 L729 0 Z" /><glyph glyph-name="two" unicode="2" d="M1075 0 L121 0 L121 133 L598 663 Q664 736 707.5 792 Q751 848 776.5 894.5 Q802 941 812 981.5 Q822 1022 822 1064 Q822 1118 805 1165.5 Q788 1213 756 1248 Q724 1283 677 1303.5 Q630 1324 569 1324 Q495 1324 440.5 1302 Q386 1280 350 1241 Q314 1202 296 1147.5 Q278 1093 278 1027 L93 1027 Q93 1119 123.5 1201 Q154 1283 214 1344 Q274 1405 363 1440.5 Q452 1476 569 1476 Q672 1476 753.5 1448 Q835 1420 891.5 1368.5 Q948 1317 978 1245 Q1008 1173 1008 1086 Q1008 1022 986 957 Q964 892 927 827.5 Q890 763 840 699.5 Q790 636 735 575 L344 151 L1075 151 L1075 0 Z" /><glyph glyph-name="three" unicode="3" d="M390 818 L522 818 Q594 818 648 837 Q702 856 738 889.5 Q774 923 792 968.5 Q810 1014 810 1068 Q810 1193 747 1258.5 Q684 1324 555 1324 Q496 1324 447.5 1306.5 Q399 1289 364.5 1256.5 Q330 1224 311 1177.5 Q292 1131 292 1074 L107 1074 Q107 1158 139 1231 Q171 1304 230 1358.5 Q289 1413 371.5 1444.5 Q454 1476 555 1476 Q654 1476 735 1449.5 Q816 1423 873.5 1371.5 Q931 1320 963 1243 Q995 1166 995 1064 Q995 1023 981.5 978 Q968 933 940.5 890 Q913 847 869.5 809.5 Q826 772 766 747 Q838 724 886.5 686.5 Q935 649 964 603 Q993 557 1005 506 Q1017 455 1017 406 Q1017 304 982 224.5 Q947 145 885 91 Q823 37 739 8.5 Q655 -20 556 -20 Q461 -20 377 6.5 Q293 33 230 84.5 Q167 136 130.5 211.5 Q94 287 94 384 L280 384 Q280 327 299 280.5 Q318 234 354 200.5 Q390 167 441 149 Q492 131 556 131 Q620 131 671 147.5 Q722 164 758 198 Q794 232 813 283 Q832 334 832 402 Q832 470 810 520 Q788 570 747.5 602.5 Q707 635 650 651 Q593 667 522 667 L390 667 L390 818 Z" /><glyph glyph-name="four" unicode="4" d="M902 489 L1104 489 L1104 338 L902 338 L902 0 L716 0 L716 338 L53 338 L53 447 L705 1456 L902 1456 L902 489 ZM263 489 L716 489 L716 1203 L694 1163 L263 489 Z" /><glyph glyph-name="five" unicode="5" d="M206 730 L280 1456 L1026 1456 L1026 1285 L437 1285 L393 888 Q432 911 493.5 931 Q555 951 636 951 Q736 951 816.5 916.5 Q897 882 953 818.5 Q1009 755 1039 665 Q1069 575 1069 464 Q1069 359 1040.5 270.5 Q1012 182 955 117.5 Q898 53 811.5 16.5 Q725 -20 608 -20 Q520 -20 441.5 4.5 Q363 29 302 79 Q241 129 202 205 Q163 281 154 383 L329 383 Q346 258 418 194.5 Q490 131 608 131 Q674 131 725 154 Q776 177 811.5 220 Q847 263 865.5 324.5 Q884 386 884 462 Q884 530 865 589 Q846 648 809 691.5 Q772 735 717.5 760 Q663 785 593 785 Q546 785 512 778.5 Q478 772 451 760 Q424 748 401.5 730.5 Q379 713 354 692 L206 730 Z" /><glyph glyph-name="six" unicode="6" d="M846 1457 L846 1300 L829 1300 Q696 1300 603 1260 Q510 1220 450 1153.5 Q390 1087 359 1001 Q328 915 320 823 Q380 892 460.5 923.5 Q541 955 634 955 Q743 955 821.5 913.5 Q900 872 951 804.5 Q1002 737 1026.5 651 Q1051 565 1051 475 Q1051 371 1022 280.5 Q993 190 936 123.5 Q879 57 795 18.5 Q711 -20 600 -20 Q482 -20 394 29 Q306 78 247.5 157.5 Q189 237 160 337 Q131 437 131 538 L131 625 Q131 727 143.5 828.5 Q156 930 187 1022.5 Q218 1115 269.5 1194.5 Q321 1274 398.5 1332.5 Q476 1391 582.5 1424 Q689 1457 829 1457 L846 1457 ZM603 801 Q554 801 509 785.5 Q464 770 426.5 743 Q389 716 360.5 679.5 Q332 643 317 601 L317 533 Q317 435 340.5 360.5 Q364 286 403.5 235.5 Q443 185 494 159 Q545 133 600 133 Q664 133 714 157.5 Q764 182 798.5 226.5 Q833 271 851 332 Q869 393 869 466 Q869 531 852.5 591.5 Q836 652 803 698.5 Q770 745 720 773 Q670 801 603 801 Z" /><glyph glyph-name="seven" unicode="7" d="M1061 1352 L458 0 L264 0 L865 1304 L77 1304 L77 1456 L1061 1456 L1061 1352 Z" /><glyph glyph-name="eight" unicode="8" d="M1004 1076 Q1004 967 946.5 882 Q889 797 791 749 Q847 725 892.5 689 Q938 653 970.5 607.5 Q1003 562 1020.5 508 Q1038 454 1038 393 Q1038 293 1002.5 216 Q967 139 904.5 86.5 Q842 34 757.5 7 Q673 -20 575 -20 Q477 -20 392 7 Q307 34 245 86.5 Q183 139 147.5 216 Q112 293 112 393 Q112 454 129 508 Q146 562 177.5 608 Q209 654 254 690 Q299 726 355 750 Q258 798 202 883 Q146 968 146 1076 Q146 1171 178 1245.5 Q210 1320 267 1371 Q324 1422 403 1449 Q482 1476 575 1476 Q668 1476 746.5 1449 Q825 1422 882.5 1371 Q940 1320 972 1245.5 Q1004 1171 1004 1076 ZM853 397 Q853 458 832.5 509 Q812 560 775 596.5 Q738 633 686.5 653 Q635 673 573 673 Q510 673 459 653 Q408 633 372 596.5 Q336 560 316.5 509 Q297 458 297 397 Q297 334 316 285 Q335 236 371 201.5 Q407 167 458.5 149 Q510 131 575 131 Q639 131 690.5 149 Q742 167 778 201.5 Q814 236 833.5 285 Q853 334 853 397 ZM819 1073 Q819 1127 801.5 1173 Q784 1219 751.5 1252.5 Q719 1286 674 1305 Q629 1324 575 1324 Q521 1324 476 1306.5 Q431 1289 398.5 1256.5 Q366 1224 348.5 1177.5 Q331 1131 331 1073 Q331 1017 348.5 971 Q366 925 398 892.5 Q430 860 475 842.5 Q520 825 575 825 Q630 825 675 842.5 Q720 860 752 892.5 Q784 925 801.5 971 Q819 1017 819 1073 Z" /><glyph glyph-name="nine" unicode="9" d="M323 155 Q473 155 570 195.5 Q667 236 723.5 303.5 Q780 371 803 458.5 Q826 546 830 640 Q772 571 691.5 529 Q611 487 515 487 Q407 487 328.5 529.5 Q250 572 199.5 640.5 Q149 709 124.5 796 Q100 883 100 972 Q100 1076 129 1168 Q158 1260 214.5 1328.5 Q271 1397 355.5 1436.5 Q440 1476 551 1476 Q676 1476 764 1425.5 Q852 1375 908 1292 Q964 1209 990 1103.5 Q1016 998 1016 887 L1016 820 Q1016 725 1006.5 627.5 Q997 530 970.5 438.5 Q944 347 896.5 267 Q849 187 772 127.5 Q695 68 584.5 33.5 Q474 -1 323 -1 L305 -1 L305 155 L323 155 ZM545 640 Q592 640 636 655 Q680 670 717 697 Q754 724 783.5 760 Q813 796 831 838 L831 912 Q831 1011 808 1087.5 Q785 1164 746.5 1216 Q708 1268 657.5 1295 Q607 1322 552 1322 Q487 1322 437 1296 Q387 1270 352.5 1224.5 Q318 1179 300 1117 Q282 1055 282 982 Q282 917 298 855.5 Q314 794 346.5 746 Q379 698 428.5 669 Q478 640 545 640 Z" /><glyph glyph-name="less" unicode="&lt;" d="M264 644 L890 391 L890 195 L72 574 L72 720 L890 1098 L890 902 L264 644 Z" /><glyph glyph-name="equal" unicode="=" d="M986 814 L152 814 L152 975 L986 975 L986 814 ZM986 399 L152 399 L152 559 L986 559 L986 399 Z" /><glyph glyph-name="greater" unicode="&gt;" d="M795 650 L134 909 L134 1099 L988 721 L988 575 L134 196 L134 388 L795 650 Z" /><glyph glyph-name="question" unicode="?" d="M357 410 Q358 482 367 533 Q376 584 396 626 Q416 668 448.5 707.5 Q481 747 529 796 Q563 831 594.5 862.5 Q626 894 649.5 927.5 Q673 961 687 1000 Q701 1039 701 1090 Q701 1195 646 1254.5 Q591 1314 486 1314 Q442 1314 401.5 1302.5 Q361 1291 329.5 1266.5 Q298 1242 279 1204.5 Q260 1167 260 1115 L75 1115 Q76 1200 108 1267 Q140 1334 195 1380.5 Q250 1427 324.5 1451.5 Q399 1476 486 1476 Q582 1476 656.5 1449.5 Q731 1423 782 1373.5 Q833 1324 859.5 1253.5 Q886 1183 886 1096 Q886 1028 865 969 Q844 910 808.5 856.5 Q773 803 728 755.5 Q683 708 635 663 Q580 612 561 548 Q542 484 542 410 L357 410 ZM349 93 Q349 138 376.5 168.5 Q404 199 458 199 Q512 199 540 168.5 Q568 138 568 93 Q568 48 540 18.5 Q512 -11 458 -11 Q404 -11 376.5 18.5 Q349 48 349 93 Z" /><glyph glyph-name="at" unicode="@" d="M1735 502 Q1732 441 1721 378 Q1710 315 1689 257 Q1668 199 1635.5 148.5 Q1603 98 1558.5 60.5 Q1514 23 1456 1.5 Q1398 -20 1326 -20 Q1232 -20 1171.5 24 Q1111 68 1086 148 Q1032 63 962.5 21.5 Q893 -20 819 -20 Q745 -20 690.5 11.5 Q636 43 601.5 100 Q567 157 554 237.5 Q541 318 550 417 Q562 549 602 655 Q642 761 701 835 Q760 909 832.5 949 Q905 989 982 989 Q1036 989 1077.5 980.5 Q1119 972 1152.5 957.5 Q1186 943 1214.5 924 Q1243 905 1271 883 L1219 329 Q1213 256 1223 210.5 Q1233 165 1252.5 140 Q1272 115 1297.5 106.5 Q1323 98 1347 98 Q1407 98 1454 129.5 Q1501 161 1533.5 215.5 Q1566 270 1584.5 344 Q1603 418 1606 502 Q1615 689 1581 836.5 Q1547 984 1468 1087 Q1389 1190 1263.5 1244.5 Q1138 1299 964 1299 Q807 1299 680 1239.5 Q553 1180 462.5 1071.5 Q372 963 320 812 Q268 661 260 478 Q251 291 289.5 142 Q328 -7 409.5 -111.5 Q491 -216 613.5 -272 Q736 -328 896 -328 Q940 -328 985.5 -322.5 Q1031 -317 1074.5 -306.5 Q1118 -296 1157 -281.5 Q1196 -267 1227 -249 L1264 -364 Q1229 -386 1184 -402.5 Q1139 -419 1089.5 -430.5 Q1040 -442 989 -447.5 Q938 -453 892 -453 Q702 -453 553.5 -388.5 Q405 -324 304.5 -203 Q204 -82 155 90.5 Q106 263 115 478 Q124 683 188 857.5 Q252 1032 362.5 1159.5 Q473 1287 626.5 1359 Q780 1431 968 1431 Q1160 1431 1307.5 1365.5 Q1455 1300 1552.5 1179.5 Q1650 1059 1697 887 Q1744 715 1735 502 ZM709 417 Q695 275 735.5 199 Q776 123 864 123 Q890 123 918 134 Q946 145 973.5 168.5 Q1001 192 1026 229.5 Q1051 267 1071 320 Q1071 326 1072 329 L1118 832 Q1093 845 1063 853 Q1033 861 998 861 Q944 861 895.5 833 Q847 805 809 749 Q771 693 745 610 Q719 527 709 417 Z" /><glyph glyph-name="A" unicode="a" d="M973 380 L363 380 L226 0 L28 0 L584 1456 L752 1456 L1309 0 L1112 0 L973 380 ZM421 538 L916 538 L668 1219 L421 538 Z" /><glyph glyph-name="B" unicode="b" d="M169 0 L169 1456 L645 1456 Q757 1456 845 1433.5 Q933 1411 994.5 1363.5 Q1056 1316 1088.5 1243 Q1121 1170 1121 1068 Q1121 966 1063 887.5 Q1005 809 905 766 Q966 749 1013.5 716 Q1061 683 1093.5 638 Q1126 593 1143 537 Q1160 481 1160 420 Q1160 318 1125.5 239.5 Q1091 161 1028 107.5 Q965 54 876 27 Q787 0 678 0 L169 0 ZM361 681 L361 157 L678 157 Q747 157 800.5 175.5 Q854 194 891 227.5 Q928 261 947.5 309.5 Q967 358 967 418 Q967 478 951 527 Q935 576 900.5 610 Q866 644 813 662.5 Q760 681 687 681 L361 681 ZM361 835 L651 835 Q713 835 764 851 Q815 867 851.5 897 Q888 927 908 970.5 Q928 1014 928 1069 Q928 1189 858 1243.5 Q788 1298 645 1298 L361 1298 L361 835 Z" /><glyph glyph-name="C" unicode="c" d="M1240 462 Q1228 359 1189.5 270.5 Q1151 182 1083 117.5 Q1015 53 917 16.5 Q819 -20 688 -20 Q559 -20 454 28 Q349 76 274.5 164.5 Q200 253 159.5 377 Q119 501 119 654 L119 800 Q119 953 160 1077.5 Q201 1202 277 1290.5 Q353 1379 461.5 1427.5 Q570 1476 705 1476 Q828 1476 923 1440 Q1018 1404 1084.5 1339.5 Q1151 1275 1190 1185.5 Q1229 1096 1240 988 L1047 988 Q1036 1064 1013 1125 Q990 1186 949.5 1229 Q909 1272 849 1295 Q789 1318 705 1318 Q608 1318 534.5 1280.5 Q461 1243 411.5 1175.5 Q362 1108 337 1012.5 Q312 917 312 802 L312 654 Q312 547 334.5 453 Q357 359 403 288.5 Q449 218 520 177.5 Q591 137 688 137 Q780 137 843 159 Q906 181 947.5 222.5 Q989 264 1012 324.5 Q1035 385 1047 462 L1240 462 Z" /><glyph glyph-name="D" unicode="d" d="M169 0 L169 1456 L580 1456 Q724 1456 842 1408 Q960 1360 1044.5 1271 Q1129 1182 1175.5 1055 Q1222 928 1222 770 L1222 684 Q1222 526 1175.5 399 Q1129 272 1043.5 183.5 Q958 95 836 47.5 Q714 0 563 0 L169 0 ZM361 1298 L361 157 L563 157 Q679 157 767 194.5 Q855 232 914 301 Q973 370 1002.5 467 Q1032 564 1032 684 L1032 773 Q1032 898 1002 995.5 Q972 1093 914 1160.5 Q856 1228 772 1263 Q688 1298 580 1298 L361 1298 Z" /><glyph glyph-name="E" unicode="e" d="M992 673 L361 673 L361 157 L1094 157 L1094 0 L169 0 L169 1456 L1084 1456 L1084 1298 L361 1298 L361 830 L992 830 L992 673 Z" /><glyph glyph-name="F" unicode="f" d="M972 643 L361 643 L361 0 L169 0 L169 1456 L1071 1456 L1071 1298 L361 1298 L361 800 L972 800 L972 643 Z" /><glyph glyph-name="G" unicode="g" d="M1244 191 Q1223 161 1186 124.5 Q1149 88 1088.5 56 Q1028 24 940 2 Q852 -20 729 -20 Q596 -20 484.5 27 Q373 74 292.5 162.5 Q212 251 167 379.5 Q122 508 122 671 L122 785 Q122 948 160.5 1076 Q199 1204 273.5 1293 Q348 1382 457 1429 Q566 1476 707 1476 Q832 1476 926 1442.5 Q1020 1409 1086 1349.5 Q1152 1290 1191 1208 Q1230 1126 1244 1029 L1052 1029 Q1041 1088 1017.5 1140.5 Q994 1193 953 1232.5 Q912 1272 852 1295 Q792 1318 708 1318 Q606 1318 532 1281 Q458 1244 410 1175 Q362 1106 338.5 1008 Q315 910 315 787 L315 671 Q315 545 345 446 Q375 347 429.5 278 Q484 209 560.5 173 Q637 137 730 137 Q808 137 862.5 147.5 Q917 158 954.5 173.5 Q992 189 1015 207.5 Q1038 226 1053 242 L1053 569 L716 569 L716 725 L1244 725 L1244 191 Z" /><glyph glyph-name="H" unicode="h" d="M1288 0 L1095 0 L1095 673 L361 673 L361 0 L169 0 L169 1456 L361 1456 L361 830 L1095 830 L1095 1456 L1288 1456 L1288 0 Z" /><glyph glyph-name="I" unicode="i" d="M375 0 L183 0 L183 1456 L375 1456 L375 0 Z" /><glyph glyph-name="J" unicode="j" d="M779 1456 L972 1456 L972 425 Q972 317 938 233.5 Q904 150 842.5 94 Q781 38 696.5 9 Q612 -20 512 -20 Q411 -20 327 5.5 Q243 31 182 83.5 Q121 136 87 215.5 Q53 295 53 402 L245 402 Q245 333 265 283 Q285 233 320 200.5 Q355 168 404 152.5 Q453 137 512 137 Q569 137 618 155.5 Q667 174 703 210 Q739 246 759 300 Q779 354 779 425 L779 1456 Z" /><glyph glyph-name="K" unicode="k" d="M539 677 L361 492 L361 0 L169 0 L169 1456 L361 1456 L361 736 L519 912 L1008 1456 L1240 1456 L667 813 L1285 0 L1055 0 L539 677 Z" /><glyph glyph-name="L" unicode="l" d="M362 157 L1052 157 L1052 0 L169 0 L169 1456 L362 1456 L362 157 Z" /><glyph glyph-name="M" unicode="m" d="M417 1456 L893 268 L1369 1456 L1618 1456 L1618 0 L1426 0 L1426 567 L1444 1179 L966 0 L819 0 L342 1176 L361 567 L361 0 L169 0 L169 1456 L417 1456 Z" /><glyph glyph-name="N" unicode="n" d="M1288 0 L1095 0 L362 1122 L362 0 L169 0 L169 1456 L362 1456 L1097 329 L1097 1456 L1288 1456 L1288 0 Z" /><glyph glyph-name="O" unicode="o" d="M1289 681 Q1289 517 1247.5 387.5 Q1206 258 1130 167 Q1054 76 946 28 Q838 -20 705 -20 Q576 -20 468 28 Q360 76 282 167 Q204 258 161 387.5 Q118 517 118 681 L118 773 Q118 936 161 1066.5 Q204 1197 281 1288 Q358 1379 466 1427.5 Q574 1476 703 1476 Q836 1476 944.5 1427.5 Q1053 1379 1129.5 1288 Q1206 1197 1247.5 1066.5 Q1289 936 1289 773 L1289 681 ZM1098 775 Q1098 905 1071.5 1005 Q1045 1105 994 1173 Q943 1241 869.5 1276 Q796 1311 703 1311 Q614 1311 541 1276 Q468 1241 416.5 1173 Q365 1105 337 1005 Q309 905 309 775 L309 681 Q309 550 337.5 450 Q366 350 418 281.5 Q470 213 543 178 Q616 143 705 143 Q799 143 872 178 Q945 213 995.5 281.5 Q1046 350 1072 450 Q1098 550 1098 681 L1098 775 Z" /><glyph glyph-name="P" unicode="p" d="M361 570 L361 0 L169 0 L169 1456 L706 1456 Q830 1456 925 1423 Q1020 1390 1084.5 1330.5 Q1149 1271 1182.5 1189.5 Q1216 1108 1216 1011 Q1216 906 1182.5 823.5 Q1149 741 1084.5 685 Q1020 629 925 599.5 Q830 570 706 570 L361 570 ZM361 727 L706 727 Q790 727 850.5 748 Q911 769 949.5 806.5 Q988 844 1006 895.5 Q1024 947 1024 1009 Q1024 1065 1006 1117.5 Q988 1170 949.5 1210 Q911 1250 850.5 1274 Q790 1298 706 1298 L361 1298 L361 727 Z" /><glyph glyph-name="Q" unicode="q" d="M1281 681 Q1281 470 1214 317.5 Q1147 165 1026 79 L1286 -125 L1155 -246 L848 -2 Q776 -20 696 -20 Q567 -20 459 28 Q351 76 273 167 Q195 258 152 387.5 Q109 517 109 681 L109 773 Q109 936 152 1066.5 Q195 1197 272 1288 Q349 1379 457 1427.5 Q565 1476 694 1476 Q827 1476 935.5 1427.5 Q1044 1379 1121 1288 Q1198 1197 1239.5 1066.5 Q1281 936 1281 773 L1281 681 ZM1089 775 Q1089 905 1062.5 1005 Q1036 1105 985.5 1173 Q935 1241 861.5 1276 Q788 1311 694 1311 Q605 1311 532.5 1276 Q460 1241 408.5 1173 Q357 1105 329 1005 Q301 905 301 775 L301 681 Q301 550 329.5 450 Q358 350 409.5 281.5 Q461 213 534 178 Q607 143 696 143 Q790 143 863 178 Q936 213 986.5 281.5 Q1037 350 1063 450 Q1089 550 1089 681 L1089 775 Z" /><glyph glyph-name="R" unicode="r" d="M703 589 L361 589 L361 0 L168 0 L168 1456 L650 1456 Q896 1456 1028.5 1344 Q1161 1232 1161 1018 Q1161 882 1087.5 781 Q1014 680 883 630 L1225 12 L1225 0 L1019 0 L703 589 ZM361 746 L656 746 Q734 746 792.5 767.5 Q851 789 890 825.5 Q929 862 948.5 911.5 Q968 961 968 1018 Q968 1081 949.5 1132.5 Q931 1184 892 1221 Q853 1258 793 1278 Q733 1298 650 1298 L361 1298 L361 746 Z" /><glyph glyph-name="S" unicode="s" d="M945 368 Q945 419 929.5 458 Q914 497 874.5 529.5 Q835 562 768 590.5 Q701 619 598 649 Q490 680 402.5 719.5 Q315 759 253.5 810.5 Q192 862 159 928 Q126 994 126 1079 Q126 1164 161.5 1236.5 Q197 1309 262 1362.5 Q327 1416 418 1446 Q509 1476 621 1476 Q744 1476 840 1439 Q936 1402 1001.5 1341 Q1067 1280 1101 1200 Q1135 1120 1135 1035 L942 1035 Q942 1096 922.5 1148 Q903 1200 863 1238 Q823 1276 763 1297 Q703 1318 621 1318 Q544 1318 487 1300 Q430 1282 393 1250.5 Q356 1219 338 1176 Q320 1133 320 1082 Q320 1036 339.5 998 Q359 960 400 928 Q441 896 505.5 869 Q570 842 660 817 Q784 782 874 739.5 Q964 697 1022.5 643 Q1081 589 1109.5 522 Q1138 455 1138 370 Q1138 281 1102 209 Q1066 137 999.5 86 Q933 35 839.5 7.5 Q746 -20 631 -20 Q564 -20 497 -7.5 Q430 5 368.5 30 Q307 55 254.5 92 Q202 129 163 178 Q124 227 102 288 Q80 349 80 422 L273 422 Q273 347 302.5 293.5 Q332 240 381.5 205 Q431 170 495.5 153.5 Q560 137 631 137 Q783 137 864 199 Q945 261 945 368 Z" /><glyph glyph-name="T" unicode="t" d="M1175 1298 L707 1298 L707 0 L516 0 L516 1298 L49 1298 L49 1456 L1175 1456 L1175 1298 Z" /><glyph glyph-name="U" unicode="u" d="M1194 1456 L1194 470 Q1194 347 1151 255 Q1108 163 1035.5 102 Q963 41 867 10.5 Q771 -20 665 -20 Q554 -20 458 10.5 Q362 41 291.5 102 Q221 163 180.5 255 Q140 347 140 470 L140 1456 L330 1456 L330 470 Q330 385 354.5 322.5 Q379 260 423 218.5 Q467 177 528.5 157 Q590 137 665 137 Q741 137 803 157 Q865 177 909 218.5 Q953 260 977 322.5 Q1001 385 1001 470 L1001 1456 L1194 1456 Z" /><glyph glyph-name="V" unicode="v" d="M651 255 L1067 1456 L1277 1456 L737 0 L567 0 L28 1456 L237 1456 L651 255 Z" /><glyph glyph-name="W" unicode="w" d="M483 459 L511 267 L552 440 L840 1456 L1002 1456 L1283 440 L1323 264 L1354 460 L1580 1456 L1773 1456 L1420 0 L1245 0 L945 1061 L922 1172 L899 1061 L588 0 L413 0 L61 1456 L253 1456 L483 459 Z" /><glyph glyph-name="X" unicode="x" d="M644 898 L993 1456 L1219 1456 L759 734 L1230 0 L1002 0 L644 568 L284 0 L57 0 L529 734 L68 1456 L293 1456 L644 898 Z" /><glyph glyph-name="Y" unicode="y" d="M613 725 L993 1456 L1211 1456 L709 543 L709 0 L517 0 L517 543 L15 1456 L235 1456 L613 725 Z" /><glyph glyph-name="Z" unicode="z" d="M313 157 L1146 157 L1146 0 L86 0 L86 144 L884 1298 L99 1298 L99 1456 L1114 1456 L1114 1315 L313 157 Z" /><glyph glyph-name="bracketleft" unicode="[" d="M523 1512 L332 1512 L332 -160 L523 -160 L523 -312 L146 -312 L146 1664 L523 1664 L523 1512 Z" /><glyph glyph-name="backslash" unicode="\" d="M40 1456 L216 1456 L824 -125 L648 -125 L40 1456 Z" /><glyph glyph-name="bracketright" unicode="]" d="M9 1664 L387 1664 L387 -312 L9 -312 L9 -160 L202 -160 L202 1512 L9 1512 L9 1664 Z" /><glyph glyph-name="asciicircum" unicode="^" d="M426 1211 L236 729 L64 729 L363 1456 L490 1456 L788 729 L617 729 L426 1211 Z" /><glyph glyph-name="underscore" unicode="_" d="M920 -151 L4 -151 L4 0 L920 0 L920 -151 Z" /><glyph glyph-name="grave" unicode="`" d="M474 1240 L315 1240 L57 1534 L280 1534 L474 1240 Z" /><glyph glyph-name="a" unicode="a" d="M808 0 Q798 20 792 50.5 Q786 81 782 114 Q756 87 723.5 62.5 Q691 38 652.5 19.5 Q614 1 569 -9.5 Q524 -20 474 -20 Q391 -20 323.5 5 Q256 30 208.5 73 Q161 116 135 174.5 Q109 233 109 300 Q109 387 143 453.5 Q177 520 240.5 565 Q304 610 394 633 Q484 656 595 656 L779 656 L779 741 Q779 838 721 895.5 Q663 953 550 953 Q498 953 455 939 Q412 925 381.5 901.5 Q351 878 334 847 Q317 816 317 782 L131 782 Q131 840 161.5 897 Q192 954 248 999.5 Q304 1045 383.5 1073.5 Q463 1102 561 1102 Q649 1102 723.5 1079.5 Q798 1057 851 1011.5 Q904 966 934 898 Q964 830 964 739 L964 236 Q964 181 973.5 120.5 Q983 60 1002 16 L1002 0 L808 0 ZM501 141 Q551 141 595 155 Q639 169 675 191.5 Q711 214 737.5 243 Q764 272 779 303 L779 525 L625 525 Q466 525 380 475.5 Q294 426 294 326 Q294 287 307 253 Q320 219 346.5 194.5 Q373 170 411.5 155.5 Q450 141 501 141 Z" /><glyph glyph-name="b" unicode="b" d="M1056 529 Q1056 410 1028 309.5 Q1000 209 946 135.5 Q892 62 814 21 Q736 -20 636 -20 Q529 -20 451 17.5 Q373 55 319 125 L310 0 L140 0 L140 1536 L325 1536 L325 963 Q379 1030 455 1066 Q531 1102 634 1102 Q736 1102 814.5 1062 Q893 1022 946.5 949.5 Q1000 877 1028 775.5 Q1056 674 1056 550 L1056 529 ZM871 550 Q871 631 856 702.5 Q841 774 807.5 828 Q774 882 720 913.5 Q666 945 588 945 Q537 945 496 932 Q455 919 422.5 896 Q390 873 366 842 Q342 811 325 775 L325 307 Q343 271 367.5 240 Q392 209 424.5 186 Q457 163 498 150 Q539 137 590 137 Q665 137 718 168 Q771 199 805 252 Q839 305 855 376.5 Q871 448 871 529 L871 550 Z" /><glyph glyph-name="c" unicode="c" d="M574 131 Q623 131 668 147 Q713 163 747.5 191 Q782 219 803.5 257.5 Q825 296 829 341 L1004 341 Q1000 269 964.5 203.5 Q929 138 871 88.5 Q813 39 736.5 9.5 Q660 -20 574 -20 Q452 -20 361.5 23.5 Q271 67 211 141 Q151 215 121.5 313 Q92 411 92 520 L92 562 Q92 671 121.5 769 Q151 867 211 941 Q271 1015 361 1058.5 Q451 1102 573 1102 Q668 1102 745.5 1072 Q823 1042 879.5 989.5 Q936 937 968 865 Q1000 793 1004 710 L829 710 Q825 760 805.5 803.5 Q786 847 753 879.5 Q720 912 674.5 931 Q629 950 573 950 Q487 950 430.5 916 Q374 882 339.5 826.5 Q305 771 291 701.5 Q277 632 277 562 L277 520 Q277 448 291 378.5 Q305 309 339 254 Q373 199 430 165 Q487 131 574 131 Z" /><glyph glyph-name="d" unicode="d" d="M95 550 Q95 674 125.5 775.5 Q156 877 212 949.5 Q268 1022 346.5 1062 Q425 1102 522 1102 Q621 1102 695 1068.5 Q769 1035 823 972 L823 1536 L1008 1536 L1008 0 L838 0 L829 116 Q775 50 699 15 Q623 -20 520 -20 Q425 -20 346.5 21 Q268 62 212 135.5 Q156 209 125.5 309.5 Q95 410 95 529 L95 550 ZM280 529 Q280 448 296.5 376.5 Q313 305 348 252 Q383 199 437 168 Q491 137 566 137 Q615 137 654 148.5 Q693 160 724.5 181 Q756 202 780.5 231 Q805 260 823 295 L823 792 Q805 825 781 853 Q757 881 725.5 901.5 Q694 922 655 933.5 Q616 945 568 945 Q492 945 437.5 913.5 Q383 882 348 828 Q313 774 296.5 702.5 Q280 631 280 550 L280 529 Z" /><glyph glyph-name="e" unicode="e" d="M589 -20 Q476 -20 384.5 19 Q293 58 228 127.5 Q163 197 128 293 Q93 389 93 503 L93 545 Q93 677 132.5 781 Q172 885 238 956 Q304 1027 389 1064.5 Q474 1102 566 1102 Q682 1102 766 1061.5 Q850 1021 904.5 950 Q959 879 985 782 Q1011 685 1011 571 L1011 488 L278 488 Q280 413 302.5 348 Q325 283 366.5 235 Q408 187 466.5 159 Q525 131 599 131 Q697 131 765 171 Q833 211 884 277 L997 189 Q971 149 934 111.5 Q897 74 847.5 44.5 Q798 15 734 -2.5 Q670 -20 589 -20 ZM566 950 Q510 950 463 929.5 Q416 909 379 870 Q342 831 317.5 773 Q293 715 284 640 L826 640 L826 654 Q823 708 808.5 761 Q794 814 763.5 856 Q733 898 685 924 Q637 950 566 950 Z" /><glyph glyph-name="f" unicode="f" d="M231 0 L231 939 L60 939 L60 1082 L231 1082 L231 1196 Q231 1283 255.5 1350.5 Q280 1418 326 1464 Q372 1510 438 1533.5 Q504 1557 587 1557 Q651 1557 714 1540 L704 1390 Q683 1394 656.5 1396.5 Q630 1399 604 1399 Q514 1399 465 1346.5 Q416 1294 416 1196 L416 1082 L647 1082 L647 939 L416 939 L416 0 L231 0 Z" /><glyph glyph-name="g" unicode="g" d="M96 550 Q96 674 125.5 775.5 Q155 877 210.5 949.5 Q266 1022 345 1062 Q424 1102 523 1102 Q626 1102 702 1066 Q778 1030 832 962 L841 1082 L1010 1082 L1010 23 Q1010 -84 976.5 -167.5 Q943 -251 882 -308.5 Q821 -366 737 -396 Q653 -426 551 -426 Q509 -426 454.5 -416.5 Q400 -407 344.5 -385.5 Q289 -364 238 -328 Q187 -292 151 -239 L247 -128 Q281 -170 317 -198 Q353 -226 389.5 -243 Q426 -260 463.5 -267.5 Q501 -275 538 -275 Q603 -275 656 -256.5 Q709 -238 746.5 -201 Q784 -164 804 -110.5 Q824 -57 824 14 L824 108 Q770 46 695.5 13 Q621 -20 521 -20 Q424 -20 345.5 21 Q267 62 211.5 135.5 Q156 209 126 309.5 Q96 410 96 529 L96 550 ZM282 529 Q282 448 298.5 376.5 Q315 305 349.5 252 Q384 199 438 168 Q492 137 567 137 Q616 137 655.5 149 Q695 161 726.5 182 Q758 203 782 232 Q806 261 824 296 L824 790 Q806 823 782 851.5 Q758 880 726.5 901 Q695 922 656 933.5 Q617 945 569 945 Q493 945 439 913.5 Q385 882 350 828 Q315 774 298.5 702.5 Q282 631 282 550 L282 529 Z" /><glyph glyph-name="h" unicode="h" d="M325 951 Q383 1022 464 1062 Q545 1102 645 1102 Q724 1102 788 1080.5 Q852 1059 897 1011.5 Q942 964 966.5 889.5 Q991 815 991 709 L991 0 L806 0 L806 711 Q806 774 792 818.5 Q778 863 750.5 891 Q723 919 682.5 932 Q642 945 589 945 Q499 945 431 897 Q363 849 325 771 L325 0 L140 0 L140 1536 L325 1536 L325 951 Z" /><glyph glyph-name="i" unicode="i" d="M341 0 L156 0 L156 1082 L341 1082 L341 0 ZM141 1369 Q141 1414 168.5 1445 Q196 1476 250 1476 Q304 1476 332 1445 Q360 1414 360 1369 Q360 1324 332 1294 Q304 1264 250 1264 Q196 1264 168.5 1294 Q141 1324 141 1369 Z" /><glyph glyph-name="j" unicode="j" d="M331 1082 L331 -129 Q331 -279 261 -358 Q191 -437 48 -437 Q22 -437 -10 -432 Q-42 -427 -65 -419 L-65 -271 Q-45 -276 -21.5 -277.5 Q2 -279 19 -279 Q81 -279 113.5 -245.5 Q146 -212 146 -129 L146 1082 L331 1082 ZM127 1369 Q127 1413 154.5 1444.5 Q182 1476 235 1476 Q289 1476 317 1445 Q345 1414 345 1369 Q345 1324 317 1294 Q289 1264 235 1264 Q181 1264 154 1294 Q127 1324 127 1369 Z" /><glyph glyph-name="k" unicode="k" d="M442 501 L326 380 L326 0 L141 0 L141 1536 L326 1536 L326 607 L425 726 L762 1082 L987 1082 L566 630 L1036 0 L819 0 L442 501 Z" /><glyph glyph-name="l" unicode="l" d="M341 0 L156 0 L156 1536 L341 1536 L341 0 Z" /><glyph glyph-name="m" unicode="m" d="M314 1082 L319 962 Q375 1028 454.5 1065 Q534 1102 640 1102 Q745 1102 825.5 1060.5 Q906 1019 949 928 Q1003 1006 1089.5 1054 Q1176 1102 1294 1102 Q1381 1102 1448 1079.5 Q1515 1057 1561.5 1009 Q1608 961 1632 887 Q1656 813 1656 711 L1656 0 L1471 0 L1471 712 Q1471 780 1454.5 825 Q1438 870 1408 897 Q1378 924 1335 934.5 Q1292 945 1240 945 Q1183 945 1139 927 Q1095 909 1063.5 878.5 Q1032 848 1013.5 806.5 Q995 765 990 718 L990 0 L804 0 L804 711 Q804 774 787.5 818.5 Q771 863 741 891 Q711 919 668.5 932 Q626 945 573 945 Q474 945 414 902 Q354 859 324 790 L324 0 L139 0 L139 1082 L314 1082 Z" /><glyph glyph-name="n" unicode="n" d="M315 1082 L321 946 Q379 1019 461 1060.5 Q543 1102 645 1102 Q724 1102 788 1080.5 Q852 1059 897 1011.5 Q942 964 966.5 889.5 Q991 815 991 709 L991 0 L806 0 L806 711 Q806 774 792 818.5 Q778 863 750.5 891 Q723 919 682.5 932 Q642 945 589 945 Q499 945 431 897 Q363 849 325 771 L325 0 L140 0 L140 1082 L315 1082 Z" /><glyph glyph-name="o" unicode="o" d="M91 551 Q91 669 125.5 769.5 Q160 870 223.5 944 Q287 1018 378 1060 Q469 1102 582 1102 Q697 1102 788.5 1060 Q880 1018 944 944 Q1008 870 1042 769.5 Q1076 669 1076 551 L1076 529 Q1076 411 1042 310.5 Q1008 210 944 136.5 Q880 63 789 21.5 Q698 -20 584 -20 Q470 -20 379 21.5 Q288 63 224 136.5 Q160 210 125.5 310.5 Q91 411 91 529 L91 551 ZM277 529 Q277 448 296 376 Q315 304 353.5 249.5 Q392 195 449.5 163 Q507 131 584 131 Q660 131 718 163 Q776 195 814 249.5 Q852 304 871.5 376 Q891 448 891 529 L891 551 Q891 631 871.5 703.5 Q852 776 813.5 830.5 Q775 885 717 917.5 Q659 950 582 950 Q506 950 449 917.5 Q392 885 353.5 830.5 Q315 776 296 703.5 Q277 631 277 551 L277 529 Z" /><glyph glyph-name="p" unicode="p" d="M1054 529 Q1054 410 1026 309.5 Q998 209 944.5 135.5 Q891 62 813 21 Q735 -20 635 -20 Q533 -20 456.5 12 Q380 44 325 105 L325 -416 L140 -416 L140 1082 L309 1082 L318 962 Q373 1030 451 1066 Q529 1102 632 1102 Q734 1102 812.5 1062 Q891 1022 945 949.5 Q999 877 1026.5 775.5 Q1054 674 1054 550 L1054 529 ZM869 550 Q869 631 852 702.5 Q835 774 799 828 Q763 882 708 913.5 Q653 945 577 945 Q530 945 491.5 934 Q453 923 422 903 Q391 883 367 855.5 Q343 828 325 796 L325 279 Q343 247 367 219.5 Q391 192 422 172.5 Q453 153 492 142 Q531 131 579 131 Q654 131 708.5 163 Q763 195 799 249 Q835 303 852 375.5 Q869 448 869 529 L869 550 Z" /><glyph glyph-name="q" unicode="q" d="M95 550 Q95 674 124 775.5 Q153 877 208.5 949.5 Q264 1022 344 1062 Q424 1102 526 1102 Q625 1102 700 1069 Q775 1036 829 973 L837 1082 L1007 1082 L1007 -416 L822 -416 L822 100 Q768 42 694 11 Q620 -20 524 -20 Q423 -20 343.5 21 Q264 62 209 135.5 Q154 209 124.5 309.5 Q95 410 95 529 L95 550 ZM280 529 Q280 448 297 375.5 Q314 303 350 249 Q386 195 440.5 163 Q495 131 570 131 Q662 131 723 172 Q784 213 822 277 L822 807 Q803 838 778.5 864 Q754 890 723 909 Q692 928 654.5 939 Q617 950 572 950 Q496 950 441 917.5 Q386 885 350 830.5 Q314 776 297 703.5 Q280 631 280 550 L280 529 Z" /><glyph glyph-name="r" unicode="r" d="M663 916 Q639 920 618.5 921.5 Q598 923 572 923 Q476 923 415.5 881 Q355 839 325 768 L325 0 L140 0 L140 1082 L320 1082 L323 957 Q365 1024 428 1063 Q491 1102 581 1102 Q601 1102 627 1097.5 Q653 1093 663 1088 L663 916 Z" /><glyph glyph-name="s" unicode="s" d="M770 287 Q770 317 761 343.5 Q752 370 725.5 393.5 Q699 417 650 437 Q601 457 521 474 Q431 493 359 519 Q287 545 236.5 581.5 Q186 618 159 668 Q132 718 132 785 Q132 849 160.5 906.5 Q189 964 241 1007.5 Q293 1051 367 1076.5 Q441 1102 532 1102 Q629 1102 705.5 1075.5 Q782 1049 835.5 1003 Q889 957 917 895.5 Q945 834 945 764 L759 764 Q759 797 744 830.5 Q729 864 700 890.5 Q671 917 629 933.5 Q587 950 532 950 Q474 950 433.5 936.5 Q393 923 367 900.5 Q341 878 329 849.5 Q317 821 317 791 Q317 761 327 737 Q337 713 365 693.5 Q393 674 441.5 657.5 Q490 641 567 624 Q666 601 739 572 Q812 543 860 504.5 Q908 466 931.5 416 Q955 366 955 300 Q955 229 925.5 170 Q896 111 841 69 Q786 27 709 3.5 Q632 -20 538 -20 Q430 -20 347.5 10 Q265 40 209 89.5 Q153 139 124 202.5 Q95 266 95 333 L280 333 Q283 276 307.5 237.5 Q332 199 369 175 Q406 151 450 141 Q494 131 538 131 Q595 131 638 143 Q681 155 710.5 176 Q740 197 755 225.5 Q770 254 770 287 Z" /><glyph glyph-name="t" unicode="t" d="M391 1344 L391 1082 L593 1082 L593 939 L391 939 L391 268 Q391 226 401 200.5 Q411 175 427.5 161 Q444 147 465.5 142.5 Q487 138 510 138 Q533 138 558.5 142.5 Q584 147 598 150 L598 0 Q576 -6 541 -13 Q506 -20 456 -20 Q405 -20 359.5 -5.5 Q314 9 280 43 Q246 77 226 132.5 Q206 188 206 269 L206 939 L9 939 L9 1082 L206 1082 L206 1344 L391 1344 Z" /><glyph glyph-name="u" unicode="u" d="M808 107 Q757 47 679 13.5 Q601 -20 491 -20 Q411 -20 346 2.5 Q281 25 234 73.5 Q187 122 161.5 198.5 Q136 275 136 383 L136 1082 L321 1082 L321 381 Q321 308 338 260.5 Q355 213 383 185.5 Q411 158 447 147.5 Q483 137 521 137 Q634 137 702.5 180 Q771 223 803 295 L803 1082 L988 1082 L988 0 L812 0 L808 107 Z" /><glyph glyph-name="v" unicode="v" d="M497 251 L765 1082 L954 1082 L566 0 L425 0 L33 1082 L222 1082 L497 251 Z" /><glyph glyph-name="w" unicode="w" d="M1098 255 L1306 1082 L1491 1082 L1176 0 L1026 0 L763 820 L507 0 L357 0 L43 1082 L227 1082 L440 272 L692 1082 L841 1082 L1098 255 Z" /><glyph glyph-name="x" unicode="x" d="M503 687 L743 1082 L959 1082 L605 547 L970 0 L756 0 L506 405 L256 0 L41 0 L406 547 L52 1082 L266 1082 L503 687 Z" /><glyph glyph-name="y" unicode="y" d="M494 271 L746 1082 L944 1082 L509 -167 Q494 -207 470 -254 Q446 -301 407.5 -341.5 Q369 -382 315 -409.5 Q261 -437 188 -437 Q177 -437 162 -435 Q147 -433 132 -430.5 Q117 -428 104 -425.5 Q91 -423 84 -421 L84 -271 Q88 -272 95 -272.5 Q102 -273 109.5 -273.5 Q117 -274 123.5 -274.5 Q130 -275 134 -275 Q181 -275 217 -266 Q253 -257 281 -236.5 Q309 -216 329.5 -182 Q350 -148 367 -98 L408 12 L22 1082 L224 1082 L494 271 Z" /><glyph glyph-name="z" unicode="z" d="M314 151 L947 151 L947 0 L88 0 L88 136 L685 929 L97 929 L97 1082 L917 1082 L917 951 L314 151 Z" /><glyph glyph-name="braceleft" unicode="{" d="M632 -366 Q530 -337 461.5 -290 Q393 -243 352 -183 Q311 -123 293.5 -51 Q276 21 276 99 L276 305 Q276 359 264 403 Q252 447 226.5 478 Q201 509 160.5 526 Q120 543 64 543 L64 688 Q176 688 226 752 Q276 816 276 925 L276 1132 Q276 1211 293.5 1282.5 Q311 1354 352 1414.5 Q393 1475 461.5 1521.5 Q530 1568 632 1597 L670 1482 Q611 1463 571 1429 Q531 1395 506.5 1349.5 Q482 1304 471.5 1248.5 Q461 1193 461 1132 L461 925 Q461 824 421.5 743 Q382 662 294 615 Q381 568 421 486.5 Q461 405 461 305 L461 99 Q461 37 471.5 -18 Q482 -73 506.5 -118.5 Q531 -164 571 -198 Q611 -232 670 -251 L632 -366 Z" /><glyph glyph-name="bar" unicode="|" d="M324 -270 L175 -270 L175 1456 L324 1456 L324 -270 Z" /><glyph glyph-name="braceright" unicode="}" d="M19 -251 Q78 -232 118.5 -198 Q159 -164 183.5 -118.5 Q208 -73 218.5 -18 Q229 37 229 99 L229 305 Q229 409 272 490 Q315 571 410 615 Q315 658 272 739 Q229 820 229 925 L229 1132 Q229 1193 218.5 1248.5 Q208 1304 183.5 1349.5 Q159 1395 119 1429 Q79 1463 20 1482 L58 1597 Q160 1568 228.5 1521.5 Q297 1475 338.5 1414.5 Q380 1354 397 1282.5 Q414 1211 414 1132 L414 925 Q414 871 426 827 Q438 783 463.5 752 Q489 721 529.5 704.5 Q570 688 626 688 L626 543 Q570 543 529.5 526 Q489 509 463.5 478 Q438 447 426 403 Q414 359 414 305 L414 99 Q414 21 397 -51 Q380 -123 338.5 -183 Q297 -243 228.5 -290 Q160 -337 58 -366 L19 -251 Z" /><glyph glyph-name="asciitilde" unicode="~" d="M1263 777 Q1263 700 1239 632 Q1215 564 1172 513 Q1129 462 1069.5 432 Q1010 402 939 402 Q895 402 857.5 411 Q820 420 784.5 437 Q749 454 714.5 480 Q680 506 641 541 Q589 588 546.5 613.5 Q504 639 454 639 Q376 639 334 585.5 Q292 532 292 438 L131 436 Q131 514 154.5 581 Q178 648 221 697 Q264 746 323 774 Q382 802 454 802 Q497 802 535.5 792.5 Q574 783 609.5 765.5 Q645 748 680 722 Q715 696 752 663 Q779 638 802.5 619.5 Q826 601 848 589 Q870 577 892 571 Q914 565 939 565 Q978 565 1009.5 580.5 Q1041 596 1063.5 624 Q1086 652 1098 690.5 Q1110 729 1110 776 L1263 777 Z" /><glyph glyph-name="exclamdown" unicode="¡" d="M170 684 L338 684 L351 -360 L157 -360 L170 684 ZM358 996 Q358 951 330.5 920 Q303 889 249 889 Q195 889 167 920 Q139 951 139 996 Q139 1041 167 1071 Q195 1101 249 1101 Q303 1101 330.5 1071 Q358 1041 358 996 Z" /><glyph glyph-name="cent" unicode="¢" d="M587 131 Q636 131 681 147 Q726 163 760.5 191 Q795 219 816.5 257.5 Q838 296 842 341 L1017 341 Q1014 278 986 219.5 Q958 161 911.5 114 Q865 67 803 34 Q741 1 670 -12 L670 -245 L484 -245 L484 -10 Q388 7 317 55.5 Q246 104 198.5 175 Q151 246 128 334.5 Q105 423 105 520 L105 562 Q105 658 128.5 746.5 Q152 835 199 906 Q246 977 317 1025.5 Q388 1074 484 1092 L484 1318 L670 1318 L670 1095 Q747 1083 809.5 1048.5 Q872 1014 917 963.5 Q962 913 988 848 Q1014 783 1017 710 L842 710 Q838 760 818.5 803.5 Q799 847 766 879.5 Q733 912 687.5 931 Q642 950 586 950 Q500 950 443.5 916 Q387 882 352.5 826.5 Q318 771 304 701.5 Q290 632 290 562 L290 520 Q290 448 304 378.5 Q318 309 352 254 Q386 199 443 165 Q500 131 587 131 Z" /><glyph glyph-name="sterling" unicode="£" d="M449 622 L457 402 Q457 332 442 268 Q427 204 395 157 L1128 157 L1127 0 L95 0 L95 157 L172 157 Q198 163 215.5 189.5 Q233 216 244 252 Q255 288 259.5 328 Q264 368 264 401 L256 622 L91 622 L91 779 L251 779 L242 1039 Q242 1142 275.5 1223.5 Q309 1305 368.5 1361 Q428 1417 509.5 1446.5 Q591 1476 687 1476 Q784 1476 861 1447.5 Q938 1419 990.5 1368 Q1043 1317 1071 1245.5 Q1099 1174 1099 1087 L908 1087 Q908 1150 888 1193.5 Q868 1237 835 1265 Q802 1293 759 1305.5 Q716 1318 670 1318 Q621 1318 578 1299.5 Q535 1281 503.5 1245.5 Q472 1210 453.5 1158 Q435 1106 435 1039 L444 779 L763 779 L763 622 L449 622 Z" /><glyph glyph-name="currency" unicode="¤" d="M1103 112 Q1027 49 933.5 14.5 Q840 -20 735 -20 Q631 -20 538 14 Q445 48 369 110 L235 -26 L105 109 L244 250 Q194 325 167 415.5 Q140 506 140 608 Q140 714 169.5 807 Q199 900 252 977 L105 1128 L235 1264 L382 1114 Q457 1171 546 1202.5 Q635 1234 735 1234 Q835 1234 925 1202 Q1015 1170 1090 1113 L1239 1265 L1371 1128 L1220 974 Q1272 897 1301 804.5 Q1330 712 1330 608 Q1330 508 1303 418 Q1276 328 1228 253 L1371 109 L1239 -27 L1103 112 ZM311 608 Q311 513 344.5 430 Q378 347 435.5 285 Q493 223 570 187 Q647 151 735 151 Q822 151 899 187 Q976 223 1033.5 285 Q1091 347 1124 430 Q1157 513 1157 608 Q1157 702 1124 785 Q1091 868 1033.5 929.5 Q976 991 899 1026.5 Q822 1062 735 1062 Q647 1062 570 1026.5 Q493 991 435.5 929.5 Q378 868 344.5 785 Q311 702 311 608 Z" /><glyph glyph-name="yen" unicode="¥" d="M614 782 L978 1456 L1197 1456 L779 736 L1091 736 L1091 611 L707 611 L707 446 L1091 446 L1091 322 L707 322 L707 0 L514 0 L514 322 L136 322 L136 446 L514 446 L514 611 L136 611 L136 736 L449 736 L31 1456 L251 1456 L614 782 Z" /><glyph glyph-name="brokenbar" unicode="¦" d="M147 -270 L147 521 L333 521 L333 -270 L147 -270 ZM333 698 L147 698 L147 1456 L333 1456 L333 698 Z" /><glyph glyph-name="section" unicode="§" d="M1145 431 Q1145 335 1096 266 Q1047 197 959 157 Q1028 108 1064 40 Q1100 -28 1100 -128 Q1100 -215 1065 -283 Q1030 -351 966.5 -398.5 Q903 -446 813 -470.5 Q723 -495 612 -495 Q516 -495 422 -473 Q328 -451 254.5 -401 Q181 -351 135.5 -268.5 Q90 -186 90 -64 L276 -62 Q276 -141 306.5 -195 Q337 -249 385 -282 Q433 -315 493 -329 Q553 -343 612 -343 Q684 -343 740.5 -326.5 Q797 -310 835.5 -281.5 Q874 -253 894 -214 Q914 -175 914 -130 Q914 -84 897 -49.5 Q880 -15 839.5 14 Q799 43 731.5 69.5 Q664 96 563 126 Q453 155 366.5 190 Q280 225 220 274 Q160 323 128 390 Q96 457 96 551 Q96 644 143.5 713.5 Q191 783 278 825 Q212 874 176.5 942 Q141 1010 141 1110 Q141 1193 175.5 1260.5 Q210 1328 274 1376 Q338 1424 428.5 1450 Q519 1476 630 1476 Q745 1476 836 1447.5 Q927 1419 990.5 1364.5 Q1054 1310 1088 1229.5 Q1122 1149 1122 1045 L937 1045 Q937 1103 917 1154 Q897 1205 858 1243 Q819 1281 762 1303 Q705 1325 630 1325 Q552 1325 494.5 1308 Q437 1291 400 1262 Q363 1233 345 1194 Q327 1155 327 1112 Q327 1062 342 1026.5 Q357 991 396 962.5 Q435 934 502.5 908.5 Q570 883 676 854 Q788 823 875 788 Q962 753 1022 704.5 Q1082 656 1113.5 590 Q1145 524 1145 431 ZM602 691 Q512 715 437 742 Q357 723 319.5 672.5 Q282 622 282 553 Q282 502 297 465.5 Q312 429 352 400 Q392 371 460.5 345 Q529 319 636 289 Q681 276 721 264 Q761 252 797 238 Q875 258 917 308.5 Q959 359 959 428 Q959 474 941.5 509.5 Q924 545 883 575 Q842 605 773 632.5 Q704 660 602 691 Z" /><glyph glyph-name="dieresis" unicode="¨" d="M102 1371 Q102 1416 129.5 1446.5 Q157 1477 211 1477 Q265 1477 293 1446.5 Q321 1416 321 1371 Q321 1326 293 1296 Q265 1266 211 1266 Q157 1266 129.5 1296 Q102 1326 102 1371 ZM532 1369 Q532 1414 559.5 1445 Q587 1476 641 1476 Q695 1476 723 1445 Q751 1414 751 1369 Q751 1324 723 1294 Q695 1264 641 1264 Q587 1264 559.5 1294 Q532 1324 532 1369 Z" /><glyph glyph-name="copyright" unicode="©" d="M1119 597 Q1119 518 1096 459 Q1073 400 1030 361 Q987 322 925.5 302.5 Q864 283 788 283 Q708 283 644 311 Q580 339 535 390 Q490 441 466 512.5 Q442 584 442 670 L442 786 Q442 872 466 943 Q490 1014 535 1065 Q580 1116 644 1144.5 Q708 1173 788 1173 Q864 1173 925.5 1153.5 Q987 1134 1030 1095 Q1073 1056 1096.5 997 Q1120 938 1120 860 L974 860 Q974 959 926.5 1001.5 Q879 1044 788 1044 Q738 1044 700.5 1025 Q663 1006 637.5 972 Q612 938 599 890.5 Q586 843 586 787 L586 670 Q586 613 599 565.5 Q612 518 637.5 484 Q663 450 700.5 431 Q738 412 788 412 Q880 412 926.5 454 Q973 496 973 597 L1119 597 ZM206 729 Q206 595 253 480 Q300 365 380.5 280 Q461 195 569.5 146.5 Q678 98 801 98 Q924 98 1032 146.5 Q1140 195 1220.5 280 Q1301 365 1348 480 Q1395 595 1395 729 Q1395 862 1348 976.5 Q1301 1091 1220.5 1175.5 Q1140 1260 1032 1308 Q924 1356 801 1356 Q678 1356 569.5 1308 Q461 1260 380.5 1175.5 Q300 1091 253 976.5 Q206 862 206 729 ZM91 729 Q91 835 116.5 931.5 Q142 1028 188 1111 Q234 1194 299 1261.5 Q364 1329 443 1376.5 Q522 1424 612.5 1450 Q703 1476 801 1476 Q899 1476 989.5 1450 Q1080 1424 1158.5 1376.5 Q1237 1329 1302 1261.5 Q1367 1194 1413 1111 Q1459 1028 1484.5 931.5 Q1510 835 1510 729 Q1510 623 1484.5 526.5 Q1459 430 1413 346.5 Q1367 263 1302 195.5 Q1237 128 1158.5 79.5 Q1080 31 989.5 5 Q899 -21 801 -21 Q703 -21 612.5 5 Q522 31 443 79.5 Q364 128 299 195.5 Q234 263 188 346.5 Q142 430 116.5 526.5 Q91 623 91 729 Z" /><glyph glyph-name="ordfeminine" unicode="ª" d="M618 705 Q606 739 600 777 Q569 742 518.5 716.5 Q468 691 396 691 Q336 691 289.5 707 Q243 723 211.5 753 Q180 783 163.5 825 Q147 867 147 918 Q147 1029 230.5 1089 Q314 1149 486 1149 L594 1149 L594 1201 Q594 1267 563.5 1301.5 Q533 1336 470 1336 Q401 1336 361.5 1309 Q322 1282 322 1231 L161 1243 Q161 1294 183 1336.5 Q205 1379 245.5 1410 Q286 1441 343 1458.5 Q400 1476 470 1476 Q534 1476 587 1458.5 Q640 1441 678 1406.5 Q716 1372 736.5 1320.5 Q757 1269 757 1200 L757 886 Q757 837 763 793 Q769 749 783 705 L618 705 ZM435 828 Q478 828 522 848 Q566 868 594 895 L594 1037 L487 1037 Q441 1037 407.5 1028 Q374 1019 352.5 1003 Q331 987 320.5 966.5 Q310 946 310 922 Q310 878 340 853 Q370 828 435 828 Z" /><glyph glyph-name="logicalnot" unicode="¬" d="M958 375 L772 375 L772 639 L127 639 L127 800 L958 800 L958 375 Z" /><glyph glyph-name="registered" unicode="®" d="M90 729 Q90 835 115.5 931.5 Q141 1028 187 1111 Q233 1194 298 1261.5 Q363 1329 442 1376.5 Q521 1424 611.5 1450 Q702 1476 800 1476 Q898 1476 988.5 1450 Q1079 1424 1157.5 1376.5 Q1236 1329 1301 1261.5 Q1366 1194 1412 1111 Q1458 1028 1483.5 931.5 Q1509 835 1509 729 Q1509 623 1483.5 526.5 Q1458 430 1412 346.5 Q1366 263 1301 195.5 Q1236 128 1157.5 79.5 Q1079 31 988.5 5 Q898 -21 800 -21 Q702 -21 611.5 5 Q521 31 442 79.5 Q363 128 298 195.5 Q233 263 187 346.5 Q141 430 115.5 526.5 Q90 623 90 729 ZM205 729 Q205 595 252 480 Q299 365 379.5 280 Q460 195 568.5 146.5 Q677 98 800 98 Q923 98 1031 146.5 Q1139 195 1220 280 Q1301 365 1347.5 480 Q1394 595 1394 729 Q1394 862 1347.5 976.5 Q1301 1091 1220 1175.5 Q1139 1260 1031 1308 Q923 1356 800 1356 Q677 1356 568.5 1308 Q460 1260 379.5 1175.5 Q299 1091 252 976.5 Q205 862 205 729 ZM653 654 L653 316 L512 316 L512 1165 L788 1165 Q862 1165 921.5 1149 Q981 1133 1023 1101.5 Q1065 1070 1087.5 1021.5 Q1110 973 1110 909 Q1110 846 1077.5 799.5 Q1045 753 982 721 Q1016 707 1039.5 686 Q1063 665 1077.5 638.5 Q1092 612 1098.5 580.5 Q1105 549 1105 514 L1105 459 Q1105 421 1108.5 388 Q1112 355 1122 332 L1122 316 L977 316 Q972 329 969 349 Q966 369 964.5 390 Q963 411 963 430 Q963 449 963 460 L963 513 Q963 585 929.5 619.5 Q896 654 816 654 L653 654 ZM653 782 L809 782 Q841 783 870 791 Q899 799 921 814 Q943 829 956 851.5 Q969 874 969 904 Q969 941 959.5 966.5 Q950 992 929 1008 Q908 1024 873.5 1031 Q839 1038 788 1038 L653 1038 L653 782 Z" /><glyph glyph-name="macron" unicode="¯&#x2c9;" d="M834 1313 L120 1313 L120 1456 L834 1456 L834 1313 Z" /><glyph glyph-name="degree" unicode="°" d="M130 1216 Q130 1269 150.5 1316.5 Q171 1364 205.5 1399.5 Q240 1435 286.5 1455.5 Q333 1476 385 1476 Q437 1476 482.5 1455.5 Q528 1435 562 1399.5 Q596 1364 616 1316.5 Q636 1269 636 1216 Q636 1162 616 1115.5 Q596 1069 562 1034.5 Q528 1000 482.5 980 Q437 960 385 960 Q333 960 286.5 980 Q240 1000 205.5 1034.5 Q171 1069 150.5 1115.5 Q130 1162 130 1216 ZM255 1216 Q255 1188 265.5 1164.5 Q276 1141 293.5 1124 Q311 1107 334.5 1097.5 Q358 1088 385 1088 Q412 1088 435.5 1097.5 Q459 1107 476.5 1124 Q494 1141 503.5 1164.5 Q513 1188 513 1216 Q513 1244 503.5 1268.5 Q494 1293 476.5 1311 Q459 1329 435.5 1339 Q412 1349 385 1349 Q358 1349 334.5 1339 Q311 1329 293.5 1311 Q276 1293 265.5 1268.5 Q255 1244 255 1216 Z" /><glyph glyph-name="plusminus" unicode="±" d="M650 855 L1013 855 L1013 703 L650 703 L650 289 L483 289 L483 703 L97 703 L97 855 L483 855 L483 1267 L650 1267 L650 855 ZM970 1 L135 1 L135 152 L970 152 L970 1 Z" /><glyph glyph-name="twosuperior" unicode="²" d="M683 667 L84 667 L84 775 L372 1046 Q439 1107 466 1151 Q493 1195 493 1228 Q493 1277 461 1307.5 Q429 1338 369 1338 Q294 1338 258.5 1300 Q223 1262 223 1205 L66 1205 Q66 1259 86.5 1306.5 Q107 1354 145.5 1389.5 Q184 1425 239.5 1446 Q295 1467 365 1467 Q432 1467 485 1450.5 Q538 1434 575 1403 Q612 1372 631.5 1328 Q651 1284 651 1230 Q651 1190 637.5 1154.5 Q624 1119 599.5 1084.5 Q575 1050 539.5 1015 Q504 980 460 940 L284 795 L683 795 L683 667 Z" /><glyph glyph-name="threesuperior" unicode="³" d="M265 1125 L349 1125 Q423 1125 459 1155.5 Q495 1186 495 1234 Q495 1279 463.5 1308 Q432 1337 362 1337 Q334 1337 310 1330.5 Q286 1324 268 1312 Q250 1300 240 1283 Q230 1266 230 1245 L73 1245 Q73 1296 95 1336.5 Q117 1377 156 1406 Q195 1435 247.5 1450.5 Q300 1466 360 1466 Q425 1466 479 1451.5 Q533 1437 571.5 1408.5 Q610 1380 631.5 1338 Q653 1296 653 1241 Q653 1186 618 1140.5 Q583 1095 517 1070 Q594 1049 630 1002 Q666 955 666 886 Q666 830 642.5 787 Q619 744 578 715 Q537 686 481 670.5 Q425 655 360 655 Q304 655 250.5 668.5 Q197 682 155 710.5 Q113 739 87.5 783 Q62 827 62 888 L220 888 Q220 843 259.5 813 Q299 783 366 783 Q436 783 472.5 813 Q509 843 509 894 Q509 956 465.5 982.5 Q422 1009 349 1009 L265 1009 L265 1125 Z" /><glyph glyph-name="acute" unicode="´" d="M316 1534 L540 1534 L272 1240 L123 1240 L316 1534 Z" /><glyph glyph-name="mu" unicode="µ" d="M339 1082 L339 460 Q339 357 356 292.5 Q373 228 403 192 Q433 156 473 143 Q513 130 559 130 Q667 130 729 170.5 Q791 211 820 282 L820 1082 L1006 1082 L1006 0 L840 0 L830 116 Q787 51 722 15.5 Q657 -20 567 -20 Q494 -20 437.5 -2.5 Q381 15 339 53 L339 -416 L154 -416 L154 1082 L339 1082 Z" /><glyph glyph-name="paragraph" unicode="¶" d="M646 0 L646 520 L559 520 Q440 520 348 555 Q256 590 193.5 652.5 Q131 715 99 801 Q67 887 67 988 Q67 1088 99 1174 Q131 1260 193.5 1322.5 Q256 1385 348 1420.5 Q440 1456 559 1456 L832 1456 L832 0 L646 0 Z" /><glyph glyph-name="periodcentered" unicode="·" d="M147 729 Q147 777 175.5 809 Q204 841 261 841 Q318 841 347.5 809 Q377 777 377 729 Q377 682 347.5 650.5 Q318 619 261 619 Q204 619 175.5 650.5 Q147 682 147 729 Z" /><glyph glyph-name="cedilla" unicode="¸" d="M285 0 L273 -52 Q301 -57 328.5 -68.5 Q356 -80 378 -100.5 Q400 -121 413 -151.5 Q426 -182 426 -225 Q426 -272 406.5 -310.5 Q387 -349 348.5 -377 Q310 -405 253.5 -420 Q197 -435 123 -435 L116 -328 Q150 -328 180.5 -322.5 Q211 -317 233.5 -305 Q256 -293 269 -274 Q282 -255 282 -229 Q282 -204 272.5 -187.5 Q263 -171 243.5 -160.5 Q224 -150 193 -144 Q162 -138 120 -134 L152 0 L285 0 Z" /><glyph glyph-name="onesuperior" unicode="¹" d="M495 674 L338 674 L338 1275 L122 1218 L122 1346 L477 1463 L495 1463 L495 674 Z" /><glyph glyph-name="ordmasculine" unicode="º" d="M122 1123 Q122 1200 146 1265 Q170 1330 214.5 1377 Q259 1424 322.5 1450 Q386 1476 464 1476 Q544 1476 607.5 1450 Q671 1424 715.5 1377 Q760 1330 783.5 1265 Q807 1200 807 1123 L807 1043 Q807 966 783.5 901 Q760 836 715.5 789 Q671 742 608 716 Q545 690 466 690 Q387 690 323.5 716 Q260 742 215 789 Q170 836 146 901 Q122 966 122 1043 L122 1123 ZM285 1043 Q285 997 296 958 Q307 919 329.5 890.5 Q352 862 386 845.5 Q420 829 466 829 Q511 829 544.5 845.5 Q578 862 600 890.5 Q622 919 633 958 Q644 997 644 1043 L644 1123 Q644 1168 633 1207 Q622 1246 599.5 1274.5 Q577 1303 543.5 1319.5 Q510 1336 464 1336 Q419 1336 385.5 1319.5 Q352 1303 329.5 1274.5 Q307 1246 296 1207 Q285 1168 285 1123 L285 1043 Z" /><glyph glyph-name="questiondown" unicode="¿" d="M588 680 Q587 608 578 558 Q569 508 549 467 Q529 426 497 387 Q465 348 419 298 Q387 263 357 231.5 Q327 200 304 165.5 Q281 131 267 91 Q253 51 253 0 Q253 -109 311 -166.5 Q369 -224 478 -224 Q521 -224 562 -211.5 Q603 -199 634 -173.5 Q665 -148 684 -110 Q703 -72 703 -20 L888 -20 Q887 -105 855 -172.5 Q823 -240 768.5 -287.5 Q714 -335 639.5 -360 Q565 -385 478 -385 Q380 -385 304 -359.5 Q228 -334 175.5 -285 Q123 -236 95.5 -165.5 Q68 -95 68 -5 Q68 63 89.5 123 Q111 183 145.5 236.5 Q180 290 224 338.5 Q268 387 313 431 Q367 482 385 543.5 Q403 605 403 680 L588 680 ZM596 997 Q596 952 568.5 921 Q541 890 487 890 Q433 890 405 921 Q377 952 377 997 Q377 1041 405 1071 Q433 1101 487 1101 Q541 1101 568.5 1071 Q596 1041 596 997 Z" /><glyph glyph-name="AE" unicode="æ" d="M1879 0 L996 0 L981 353 L417 353 L212 0 L-14 0 L866 1456 L1817 1456 L1817 1304 L1126 1304 L1146 833 L1736 833 L1736 682 L1152 682 L1174 151 L1879 151 L1879 0 ZM518 527 L974 527 L943 1260 L518 527 Z" /><glyph glyph-name="multiply" unicode="×" d="M89 329 L419 665 L91 1000 L210 1123 L539 788 L868 1123 L987 1000 L659 665 L989 329 L870 206 L539 543 L208 206 L89 329 Z" /><glyph glyph-name="Oslash" unicode="ø" d="M1289 681 Q1289 517 1247.5 387.5 Q1206 258 1130 167 Q1054 76 946 28 Q838 -20 705 -20 Q534 -20 403 62 L307 -93 L164 -93 L308 138 Q218 229 168 366 Q118 503 118 681 L118 773 Q118 936 161 1066.5 Q204 1197 281 1288 Q358 1379 466 1427.5 Q574 1476 703 1476 Q812 1476 903 1444 Q994 1412 1066 1351 L1169 1516 L1309 1516 L1150 1261 Q1217 1170 1253 1047.5 Q1289 925 1289 773 L1289 681 ZM309 681 Q309 556 334 460 Q359 364 407 296 L971 1200 Q871 1311 703 1311 Q614 1311 541 1276 Q468 1241 416.5 1173 Q365 1105 337 1005 Q309 905 309 775 L309 681 ZM1098 775 Q1098 869 1083.5 947 Q1069 1025 1042 1088 L494 207 Q582 143 705 143 Q799 143 872 178 Q945 213 995.5 281.5 Q1046 350 1072 450 Q1098 550 1098 681 L1098 775 Z" /><glyph glyph-name="Thorn" unicode="þ" d="M352 1456 L352 1163 L629 1163 Q747 1163 838 1131 Q929 1099 991 1042 Q1053 985 1085 907 Q1117 829 1117 738 Q1117 646 1085 568 Q1053 490 991 433.5 Q929 377 838 345 Q747 313 629 313 L352 313 L352 0 L166 0 L166 1456 L352 1456 ZM352 1011 L352 465 L629 465 Q710 465 767 488 Q824 511 860.5 549.5 Q897 588 914 636.5 Q931 685 931 736 Q931 788 914 837.5 Q897 887 860.5 925.5 Q824 964 767 987.5 Q710 1011 629 1011 L352 1011 Z" /><glyph glyph-name="germandbls" unicode="ß" d="M324 0 L139 0 L139 1111 Q139 1221 167.5 1304 Q196 1387 247.5 1442.5 Q299 1498 371.5 1526 Q444 1554 532 1554 Q613 1554 682.5 1534 Q752 1514 802 1472 Q852 1430 880.5 1366.5 Q909 1303 909 1216 Q909 1162 899.5 1121.5 Q890 1081 876 1048.5 Q862 1016 845 989 Q828 962 814 935.5 Q800 909 790.5 881 Q781 853 781 819 Q781 773 807 736 Q833 699 871.5 665 Q910 631 955.5 596.5 Q1001 562 1039.5 521.5 Q1078 481 1104 431 Q1130 381 1130 317 Q1130 231 1101 167.5 Q1072 104 1021 62.5 Q970 21 899.5 0.5 Q829 -20 745 -20 Q704 -20 659 -14 Q614 -8 573 2 Q532 12 498 25 Q464 38 445 52 L488 207 Q505 196 531 183 Q557 170 588.5 158.5 Q620 147 655 139 Q690 131 725 131 Q784 131 825.5 144.5 Q867 158 893.5 182 Q920 206 932.5 238 Q945 270 945 307 Q945 354 919 392 Q893 430 854 464.5 Q815 499 770 533.5 Q725 568 686 609.5 Q647 651 621 702 Q595 753 595 821 Q595 861 605.5 894 Q616 927 631 956.5 Q646 986 664.5 1013.5 Q683 1041 698 1070 Q713 1099 723.5 1130.5 Q734 1162 734 1201 Q734 1251 719.5 1288.5 Q705 1326 679 1351.5 Q653 1377 618 1389.5 Q583 1402 542 1402 Q438 1402 381 1331.5 Q324 1261 324 1111 L324 0 Z" /><glyph glyph-name="ae" unicode="æ" d="M1262 -20 Q1127 -20 1028 27.5 Q929 75 865 160 Q840 127 801 94.5 Q762 62 708.5 36.5 Q655 11 586 -4.5 Q517 -20 433 -20 Q347 -20 281 3 Q215 26 170 68 Q125 110 101.5 170 Q78 230 78 304 Q78 461 191.5 548 Q305 635 526 635 L749 635 L749 720 Q749 827 694 888.5 Q639 950 535 950 Q479 950 434 934.5 Q389 919 357 893 Q325 867 307.5 832.5 Q290 798 290 759 L106 778 Q106 848 137 907.5 Q168 967 224.5 1010 Q281 1053 360 1077.5 Q439 1102 535 1102 Q650 1102 738 1060.5 Q826 1019 876 936 Q939 1015 1026 1058.5 Q1113 1102 1218 1102 Q1326 1102 1408.5 1068 Q1491 1034 1547 970.5 Q1603 907 1631.5 817 Q1660 727 1660 615 L1660 497 L932 497 Q935 420 955.5 353 Q976 286 1016.5 236.5 Q1057 187 1118 158.5 Q1179 130 1262 130 Q1321 130 1368.5 140.5 Q1416 151 1454 166.5 Q1492 182 1522.5 201 Q1553 220 1578 237 L1642 101 Q1625 88 1594 67.5 Q1563 47 1516 27.5 Q1469 8 1406 -6 Q1343 -20 1262 -20 ZM469 130 Q507 130 547 140.5 Q587 151 624.5 169 Q662 187 694 210 Q726 233 749 258 L749 495 L528 495 Q463 495 413.5 479 Q364 463 331 436 Q298 409 281 374 Q264 339 264 300 Q264 264 276.5 233 Q289 202 314 179 Q339 156 377.5 143 Q416 130 469 130 ZM1218 950 Q1158 950 1109.5 926.5 Q1061 903 1025.5 861 Q990 819 967.5 762.5 Q945 706 937 640 L1475 640 L1475 671 Q1475 728 1461 778.5 Q1447 829 1416.5 867 Q1386 905 1337 927.5 Q1288 950 1218 950 Z" /><glyph glyph-name="eth" unicode="ð" d="M820 1301 Q938 1176 1003.5 1008.5 Q1069 841 1069 633 L1069 535 Q1069 412 1034 309.5 Q999 207 936.5 134 Q874 61 788.5 20.5 Q703 -20 602 -20 Q497 -20 409.5 18 Q322 56 259 121.5 Q196 187 161 276 Q126 365 126 467 Q126 582 159.5 676.5 Q193 771 253 837.5 Q313 904 395 940.5 Q477 977 574 977 Q659 977 731.5 945.5 Q804 914 858 863 Q832 968 783.5 1050.5 Q735 1133 669 1199 L451 1051 L378 1150 L570 1281 Q499 1330 420 1364 Q341 1398 255 1421 L312 1580 Q431 1553 535 1504.5 Q639 1456 726 1387 L915 1516 L988 1416 L820 1301 ZM884 635 Q884 649 883.5 663 Q883 677 882 691 Q868 717 844.5 741 Q821 765 788 784 Q755 803 712.5 814 Q670 825 618 825 Q544 825 487 800 Q430 775 391 728.5 Q352 682 331.5 615.5 Q311 549 311 467 Q311 405 330.5 345 Q350 285 387.5 237.5 Q425 190 480 160.5 Q535 131 606 131 Q670 131 721.5 161.5 Q773 192 809 246 Q845 300 864.5 374 Q884 448 884 535 L884 635 Z" /><glyph glyph-name="divide" unicode="÷" d="M1069 600 L71 600 L71 784 L1069 784 L1069 600 ZM461 1098 Q461 1146 489.5 1178 Q518 1210 575 1210 Q632 1210 661.5 1178 Q691 1146 691 1098 Q691 1051 661.5 1020 Q632 989 575 989 Q518 989 489.5 1020 Q461 1051 461 1098 ZM461 281 Q461 329 489.5 361 Q518 393 575 393 Q632 393 661.5 361 Q691 329 691 281 Q691 235 661.5 203.5 Q632 172 575 172 Q518 172 489.5 203.5 Q461 235 461 281 Z" /><glyph glyph-name="oslash" unicode="ø" d="M91 551 Q91 669 125.5 769.5 Q160 870 223.5 944 Q287 1018 378 1060 Q469 1102 582 1102 Q639 1102 690 1091 Q741 1080 787 1060 L860 1209 L983 1209 L881 1003 Q975 929 1025.5 812.5 Q1076 696 1076 551 L1076 529 Q1076 411 1042 310.5 Q1008 210 944 136.5 Q880 63 789 21.5 Q698 -20 584 -20 Q531 -20 484 -11 Q437 -2 394 15 L320 -135 L197 -135 L297 69 Q198 141 144.5 260.5 Q91 380 91 529 L91 551 ZM277 529 Q277 438 301 358.5 Q325 279 374 223 L716 918 Q687 933 653.5 941.5 Q620 950 582 950 Q506 950 449 917.5 Q392 885 353.5 830.5 Q315 776 296 703.5 Q277 631 277 551 L277 529 ZM891 551 Q891 636 869 712 Q847 788 803 844 L463 156 Q518 131 584 131 Q660 131 718 163 Q776 195 814 249.5 Q852 304 871.5 376 Q891 448 891 529 L891 551 Z" /><glyph glyph-name="thorn" unicode="þ" d="M1063 529 Q1063 410 1035 309.5 Q1007 209 953.5 135.5 Q900 62 822 21 Q744 -20 644 -20 Q542 -20 465.5 12 Q389 44 334 105 L334 -416 L149 -416 L149 1536 L334 1536 L334 970 Q389 1034 465 1068 Q541 1102 641 1102 Q743 1102 821.5 1062 Q900 1022 954 949.5 Q1008 877 1035.5 775.5 Q1063 674 1063 550 L1063 529 ZM878 550 Q878 631 861 702.5 Q844 774 808 828 Q772 882 717 913.5 Q662 945 586 945 Q539 945 500.5 934 Q462 923 431 903 Q400 883 376 855.5 Q352 828 334 796 L334 279 Q352 247 376 219.5 Q400 192 431 172.5 Q462 153 501 142 Q540 131 588 131 Q663 131 717.5 163 Q772 195 808 249 Q844 303 861 375.5 Q878 448 878 529 L878 550 Z" /><glyph glyph-name="Hbar" unicode="&#x126;" d="M1282 1167 L1417 1167 L1417 1024 L1282 1024 L1282 0 L1089 0 L1089 673 L355 673 L355 0 L163 0 L163 1024 L30 1024 L30 1167 L163 1167 L163 1456 L355 1456 L355 1167 L1089 1167 L1089 1456 L1282 1456 L1282 1167 ZM355 830 L1089 830 L1089 1024 L355 1024 L355 830 Z" /><glyph glyph-name="dotlessi" unicode="&#x131;" d="M341 0 L155 0 L155 1082 L341 1082 L341 0 Z" /><glyph glyph-name="kgreenlandic" unicode="&#x138;" d="M447 461 L340 461 L340 0 L154 0 L154 1082 L340 1082 L340 624 L431 624 L828 1082 L1051 1082 L599 557 L1087 0 L854 0 L447 461 Z" /><glyph glyph-name="Lslash" unicode="&#x141;" d="M361 844 L624 928 L624 766 L361 682 L361 157 L1051 157 L1051 0 L168 0 L168 621 L35 579 L35 741 L168 783 L168 1456 L361 1456 L361 844 Z" /><glyph glyph-name="lslash" unicode="&#x142;" d="M364 869 L523 930 L523 768 L364 707 L364 0 L179 0 L179 636 L35 581 L35 743 L179 798 L179 1536 L364 1536 L364 869 Z" /><glyph glyph-name="Eng" unicode="&#x14a;" d="M1265 1456 L1265 -84 Q1265 -170 1242.5 -235.5 Q1220 -301 1178 -346 Q1136 -391 1075 -414 Q1014 -437 938 -437 Q906 -437 879.5 -433 Q853 -429 823 -419 L837 -265 Q845 -268 858.5 -270.5 Q872 -273 886.5 -275 Q901 -277 914 -278 Q927 -279 935 -279 Q1001 -279 1036 -227.5 Q1071 -176 1071 -84 L1071 0 L354 1130 L354 0 L162 0 L162 1456 L354 1456 L1071 328 L1071 1456 L1265 1456 Z" /><glyph glyph-name="eng" unicode="&#x14b;" d="M311 1082 L324 928 Q378 1009 457.5 1055.5 Q537 1102 643 1102 Q727 1102 794.5 1078 Q862 1054 909.5 1003 Q957 952 982.5 872.5 Q1008 793 1008 682 L1008 -89 Q1008 -173 986 -238 Q964 -303 922.5 -347.5 Q881 -392 821 -414.5 Q761 -437 686 -437 Q655 -437 628 -433 Q601 -429 571 -419 L585 -262 Q593 -265 607.5 -267.5 Q622 -270 637 -271.5 Q652 -273 665.5 -274 Q679 -275 686 -275 Q751 -275 787 -228 Q823 -181 823 -89 L823 678 Q823 753 807.5 804.5 Q792 856 762 887 Q732 918 688 931.5 Q644 945 587 945 Q493 945 430.5 909 Q368 873 331 812 L331 0 L145 0 L145 1082 L311 1082 Z" /><glyph glyph-name="OE" unicode="&#x152;" d="M1801 0 L954 0 Q886 -8 812.5 -14.5 Q739 -21 662 -21 Q538 -21 435.5 22.5 Q333 66 259.5 145 Q186 224 145.5 334 Q105 444 105 576 L105 880 Q105 1012 145 1122 Q185 1232 258 1311 Q331 1390 433.5 1433.5 Q536 1477 660 1477 Q737 1477 811.5 1470.5 Q886 1464 954 1456 L1791 1456 L1791 1298 L1068 1298 L1068 830 L1699 830 L1699 673 L1068 673 L1068 157 L1801 157 L1801 0 ZM662 131 Q717 131 771 134.5 Q825 138 876 145 L876 1310 Q825 1317 771 1321 Q717 1325 660 1325 Q575 1325 506.5 1296.5 Q438 1268 390 1212 Q342 1156 316 1073.5 Q290 991 290 882 L290 576 Q290 467 316 384 Q342 301 390.5 244.5 Q439 188 508 159.5 Q577 131 662 131 Z" /><glyph glyph-name="oe" unicode="&#x153;" d="M97 551 Q97 669 130 769.5 Q163 870 225 944 Q287 1018 376.5 1060 Q466 1102 579 1102 Q716 1102 816.5 1043.5 Q917 985 978 885 Q1043 987 1141 1044.5 Q1239 1102 1351 1102 Q1462 1102 1545 1066 Q1628 1030 1683 966 Q1738 902 1765 813.5 Q1792 725 1792 619 L1792 497 L1074 497 Q1077 420 1097.5 353 Q1118 286 1156.5 236.5 Q1195 187 1250.5 158.5 Q1306 130 1379 130 Q1488 130 1562.5 161.5 Q1637 193 1687 238 L1761 112 Q1736 88 1701 64.5 Q1666 41 1618.5 22 Q1571 3 1511.5 -8.5 Q1452 -20 1379 -20 Q1244 -20 1141.5 36 Q1039 92 976 192 Q914 93 814.5 36.5 Q715 -20 581 -20 Q467 -20 377 21.5 Q287 63 225 136.5 Q163 210 130 310.5 Q97 411 97 529 L97 551 ZM282 529 Q282 448 299.5 376 Q317 304 354 249 Q391 194 447.5 162 Q504 130 581 130 Q657 130 713 162 Q769 194 806 249 Q843 304 860.5 376 Q878 448 878 529 L878 551 Q878 631 860 703.5 Q842 776 805.5 830.5 Q769 885 712.5 917.5 Q656 950 579 950 Q502 950 446.5 917.5 Q391 885 354 830.5 Q317 776 299.5 703.5 Q282 631 282 551 L282 529 ZM1351 950 Q1298 950 1253 927 Q1208 904 1172.5 864 Q1137 824 1113.5 768.5 Q1090 713 1080 649 L1606 649 L1606 675 Q1606 729 1591 779 Q1576 829 1544.5 867 Q1513 905 1465 927.5 Q1417 950 1351 950 Z" /><glyph glyph-name="longs" unicode="&#x17f;" d="M160 0 L160 1196 Q160 1283 183.5 1350.5 Q207 1418 250.5 1464 Q294 1510 357 1533.5 Q420 1557 499 1557 Q535 1557 570.5 1551 Q606 1545 642 1536 L619 1394 Q601 1399 579 1402 Q557 1405 528 1405 Q438 1405 391.5 1349.5 Q345 1294 345 1196 L345 0 L160 0 Z" /><glyph glyph-name="florin" unicode="&#x192;" d="M608 939 L405 939 L405 -89 Q405 -173 383 -238 Q361 -303 319.5 -347.5 Q278 -392 218 -414.5 Q158 -437 83 -437 Q52 -437 26 -433 Q0 -429 -28 -419 L-14 -272 Q-7 -275 6.5 -277.5 Q20 -280 34.5 -281.5 Q49 -283 62.5 -284 Q76 -285 83 -285 Q148 -285 183.5 -233 Q219 -181 219 -89 L219 939 L48 939 L48 1082 L219 1082 L219 1196 Q219 1283 242.5 1350.5 Q266 1418 309.5 1464 Q353 1510 415.5 1533.5 Q478 1557 557 1557 Q593 1557 628.5 1551 Q664 1545 700 1536 L678 1389 Q659 1394 634 1396.5 Q609 1399 580 1399 Q490 1399 447.5 1346.5 Q405 1294 405 1196 L405 1082 L608 1082 L608 939 Z" /><glyph glyph-name="Ohorn" unicode="&#x1a0;" d="M1272 681 Q1272 517 1230.5 387.5 Q1189 258 1113 167 Q1037 76 929 28 Q821 -20 688 -20 Q559 -20 451 28 Q343 76 265 167 Q187 258 144 387.5 Q101 517 101 681 L101 773 Q101 936 144 1066.5 Q187 1197 264 1288 Q341 1379 449 1427.5 Q557 1476 686 1476 Q807 1476 906.5 1436 Q1006 1396 1081 1321 Q1133 1325 1169 1345 Q1205 1365 1227.5 1399.5 Q1250 1434 1260 1482.5 Q1270 1531 1270 1592 L1437 1592 Q1437 1429 1371.5 1328.5 Q1306 1228 1173 1198 Q1221 1113 1246.5 1007 Q1272 901 1272 773 L1272 681 ZM1081 775 Q1081 905 1054.5 1005 Q1028 1105 977 1173 Q926 1241 852.5 1276 Q779 1311 686 1311 Q597 1311 524 1276 Q451 1241 399.5 1173 Q348 1105 320 1005 Q292 905 292 775 L292 681 Q292 550 320.5 450 Q349 350 401 281.5 Q453 213 526 178 Q599 143 688 143 Q782 143 855 178 Q928 213 978.5 281.5 Q1029 350 1055 450 Q1081 550 1081 681 L1081 775 Z" /><glyph glyph-name="ohorn" unicode="&#x1a1;" d="M91 551 Q91 669 125.5 769.5 Q160 870 223.5 944 Q287 1018 378 1060 Q469 1102 582 1102 Q689 1102 775.5 1065.5 Q862 1029 925 964 Q969 970 995.5 989 Q1022 1008 1036.5 1039 Q1051 1070 1056 1111 Q1061 1152 1061 1201 L1210 1201 Q1210 1133 1199 1076.5 Q1188 1020 1163.5 976.5 Q1139 933 1099.5 903 Q1060 873 1003 858 Q1038 793 1057 715.5 Q1076 638 1076 551 L1076 529 Q1076 411 1042 310.5 Q1008 210 944 136.5 Q880 63 789 21.5 Q698 -20 584 -20 Q470 -20 379 21.5 Q288 63 224 136.5 Q160 210 125.5 310.5 Q91 411 91 529 L91 551 ZM277 529 Q277 448 296 376 Q315 304 353.5 249.5 Q392 195 449.5 163 Q507 131 584 131 Q660 131 718 163 Q776 195 814 249.5 Q852 304 871.5 376 Q891 448 891 529 L891 551 Q891 631 871.5 703.5 Q852 776 813.5 830.5 Q775 885 717 917.5 Q659 950 582 950 Q506 950 449 917.5 Q392 885 353.5 830.5 Q315 776 296 703.5 Q277 631 277 551 L277 529 Z" /><glyph glyph-name="Uhorn" unicode="&#x1af;" d="M1194 1456 L1194 1244 Q1256 1250 1297 1271.5 Q1338 1293 1362.5 1329.5 Q1387 1366 1397 1418.5 Q1407 1471 1407 1538 L1565 1538 Q1565 1438 1544.5 1360 Q1524 1282 1480 1228 Q1436 1174 1365 1143.5 Q1294 1113 1194 1108 L1194 470 Q1194 347 1151 255 Q1108 163 1035.5 102 Q963 41 867 10.5 Q771 -20 665 -20 Q554 -20 458 10.5 Q362 41 291.5 102 Q221 163 180.5 255 Q140 347 140 470 L140 1456 L330 1456 L330 470 Q330 385 354.5 322.5 Q379 260 423 218.5 Q467 177 528.5 157 Q590 137 665 137 Q741 137 803 157 Q865 177 909 218.5 Q953 260 977 322.5 Q1001 385 1001 470 L1001 1456 L1194 1456 Z" /><glyph glyph-name="uhorn" unicode="&#x1b0;" d="M1296 1169 Q1296 1089 1281.5 1028 Q1267 967 1232 925.5 Q1197 884 1137.5 862 Q1078 840 988 838 L988 0 L812 0 L808 107 Q757 47 679 13.5 Q601 -20 491 -20 Q411 -20 346 2.5 Q281 25 234 73.5 Q187 122 161.5 198.5 Q136 275 136 383 L136 1082 L321 1082 L321 381 Q321 308 338 260.5 Q355 213 383 185.5 Q411 158 447 147.5 Q483 137 521 137 Q634 137 702.5 180 Q771 223 803 295 L803 1082 L988 1082 L988 952 Q1048 954 1081 967.5 Q1114 981 1130.5 1007.5 Q1147 1034 1150.5 1074 Q1154 1114 1154 1169 L1296 1169 Z" /><glyph glyph-name="uni0237" unicode="&#x237;" d="M357 1082 L357 -89 Q357 -259 272 -348 Q187 -437 35 -437 Q5 -437 -21 -433 Q-47 -429 -76 -419 L-62 -272 Q-55 -275 -41.5 -277.5 Q-28 -280 -13.5 -281.5 Q1 -283 14.5 -284 Q28 -285 35 -285 Q100 -285 136 -233 Q172 -181 172 -89 L172 1082 L357 1082 Z" /><glyph glyph-name="schwa" unicode="&#x259;" d="M511 1103 Q623 1103 713.5 1063 Q804 1023 868 951 Q932 879 966.5 779.5 Q1001 680 1001 562 L1001 518 Q1001 399 963 300 Q925 201 861.5 130 Q798 59 714 19.5 Q630 -20 539 -19 Q428 -19 345 16.5 Q262 52 207 116 Q152 180 125 268.5 Q98 357 98 463 L98 584 L815 584 Q812 661 791.5 728 Q771 795 733 845 Q695 895 639.5 923.5 Q584 952 511 952 Q456 952 410.5 943.5 Q365 935 327 920.5 Q289 906 258 886 Q227 866 202 844 L129 969 Q154 993 189 1017 Q224 1041 271.5 1060 Q319 1079 378.5 1091 Q438 1103 511 1103 ZM539 132 Q591 132 636 155 Q681 178 716.5 218 Q752 258 775.5 313 Q799 368 809 433 L284 433 L284 407 Q284 353 299 303 Q314 253 345.5 215 Q377 177 425 154.5 Q473 132 539 132 Z" /><glyph glyph-name="circumflex" unicode="&#x2c6;" d="M774 1262 L774 1252 L621 1252 L471 1422 L322 1252 L169 1252 L169 1264 L415 1536 L527 1536 L774 1262 Z" /><glyph glyph-name="caron" unicode="&#x2c7;" d="M448 1365 L598 1535 L758 1535 L758 1525 L504 1251 L391 1251 L140 1525 L140 1535 L297 1535 L448 1365 Z" /><glyph glyph-name="breve" unicode="&#x2d8;" d="M728 1495 Q728 1436 707.5 1387 Q687 1338 648 1302.5 Q609 1267 553.5 1247 Q498 1227 429 1227 Q360 1227 304.5 1247 Q249 1267 210 1302.5 Q171 1338 150 1387 Q129 1436 129 1495 L280 1495 Q280 1465 288 1438 Q296 1411 313.5 1390.5 Q331 1370 359.5 1358 Q388 1346 429 1346 Q469 1346 497.5 1358 Q526 1370 544 1390.5 Q562 1411 570 1438 Q578 1465 578 1495 L728 1495 Z" /><glyph glyph-name="dotaccent" unicode="&#x2d9;" d="M141 1367 Q141 1412 168.5 1443 Q196 1474 250 1474 Q304 1474 332 1443 Q360 1412 360 1367 Q360 1322 332 1292 Q304 1262 250 1262 Q196 1262 168.5 1292 Q141 1322 141 1367 Z" /><glyph glyph-name="ring" unicode="&#x2da;" d="M121 1408 Q121 1451 137.5 1489 Q154 1527 183 1555.5 Q212 1584 251 1600 Q290 1616 336 1616 Q381 1616 420.5 1600 Q460 1584 489 1555.5 Q518 1527 534.5 1489 Q551 1451 551 1408 Q551 1364 534.5 1327 Q518 1290 489 1262.5 Q460 1235 420.5 1219.5 Q381 1204 336 1204 Q290 1204 251 1219.5 Q212 1235 183 1262.5 Q154 1290 137.5 1327 Q121 1364 121 1408 ZM220 1408 Q220 1386 228.5 1365 Q237 1344 252.5 1328 Q268 1312 289 1302.5 Q310 1293 336 1293 Q361 1293 382.5 1302.5 Q404 1312 419.5 1327.5 Q435 1343 443.5 1364 Q452 1385 452 1408 Q452 1432 443.5 1453 Q435 1474 419.5 1490.5 Q404 1507 382.5 1516.5 Q361 1526 336 1526 Q310 1526 289 1516.5 Q268 1507 252.5 1490.5 Q237 1474 228.5 1453 Q220 1432 220 1408 Z" /><glyph glyph-name="ogonek" unicode="&#x2db;" d="M382 0 Q350 -24 319 -49 Q288 -74 264 -102 Q240 -130 225.5 -159.5 Q211 -189 211 -222 Q211 -255 228 -274.5 Q245 -294 289 -294 Q322 -294 347.5 -285 Q373 -276 389 -268 L402 -389 Q378 -404 340 -418.5 Q302 -433 242 -433 Q201 -433 166 -421 Q131 -409 105.5 -385 Q80 -361 65 -325.5 Q50 -290 50 -243 Q50 -203 64.5 -163 Q79 -123 110.5 -84.5 Q142 -46 190.5 -10.5 Q239 25 307 56 L382 0 Z" /><glyph glyph-name="tilde" unicode="&#x2dc;" d="M830 1500 Q830 1445 813.5 1400 Q797 1355 767.5 1323.5 Q738 1292 699 1275 Q660 1258 615 1258 Q564 1258 531 1273 Q498 1288 471 1305.5 Q444 1323 416 1338 Q388 1353 346 1353 Q325 1353 307 1344.5 Q289 1336 275.5 1321 Q262 1306 254.5 1285.5 Q247 1265 247 1241 L123 1248 Q123 1303 139.5 1348.5 Q156 1394 184.5 1426.5 Q213 1459 252.5 1477 Q292 1495 337 1495 Q380 1495 412.5 1480 Q445 1465 474.5 1447 Q504 1429 535 1414 Q566 1399 606 1399 Q627 1399 645 1407.5 Q663 1416 676.5 1431.5 Q690 1447 698 1467.5 Q706 1488 706 1512 L830 1500 Z" /><glyph glyph-name="hungarumlaut" unicode="&#x2dd;" d="M605 1535 L812 1535 L543 1232 L374 1232 L605 1535 ZM265 1535 L462 1535 L244 1232 L94 1232 L265 1535 Z" /><glyph glyph-name="uni02F3" unicode="&#x2f3;" d="M126 -242 Q126 -206 140 -175 Q154 -144 177.5 -122 Q201 -100 232.5 -87.5 Q264 -75 300 -75 Q335 -75 365.5 -87.5 Q396 -100 419 -122 Q442 -144 455.5 -175 Q469 -206 469 -242 Q469 -279 455.5 -309 Q442 -339 419 -360.5 Q396 -382 365.5 -393.5 Q335 -405 300 -405 Q264 -405 232.5 -393.5 Q201 -382 177.5 -360.5 Q154 -339 140 -309 Q126 -279 126 -242 ZM213 -242 Q213 -259 220 -274.5 Q227 -290 239 -301 Q251 -312 266.5 -318.5 Q282 -325 300 -325 Q335 -325 359 -301 Q383 -277 383 -242 Q383 -206 359 -181 Q335 -156 300 -156 Q282 -156 266.5 -162.5 Q251 -169 239 -181 Q227 -193 220 -208.5 Q213 -224 213 -242 Z" /><glyph glyph-name="gravecomb" unicode="&#x300;" d="M-458 1240 L-584 1240 L-714 1535 L-538 1535 L-458 1240 Z" /><glyph glyph-name="acutecomb" unicode="&#x301;" d="M-523 1536 L-351 1536 L-518 1243 L-634 1243 L-523 1536 Z" /><glyph glyph-name="hook" unicode="&#x309;" d="M-652 1241 L-653 1394 Q-578 1399 -543 1414 Q-508 1429 -508 1468 Q-508 1489 -521 1504 Q-534 1519 -556.5 1528 Q-579 1537 -609.5 1541.5 Q-640 1546 -674 1546 L-667 1652 Q-518 1652 -441 1600.5 Q-364 1549 -364 1464 Q-364 1426 -377.5 1399 Q-391 1372 -412.5 1354 Q-434 1336 -462 1326 Q-490 1316 -519 1312 L-520 1241 L-652 1241 Z" /><glyph glyph-name="uni030F" unicode="&#x30f;" d="M-510 1252 L-679 1252 L-985 1518 L-760 1518 L-510 1252 ZM-249 1252 L-399 1252 L-645 1518 L-439 1518 L-249 1252 Z" /><glyph glyph-name="dotbelow" unicode="&#x323;" d="M-712 -245 Q-712 -200 -684.5 -169 Q-657 -138 -603 -138 Q-549 -138 -521 -169 Q-493 -200 -493 -245 Q-493 -290 -521 -320 Q-549 -350 -603 -350 Q-657 -350 -684.5 -320 Q-712 -290 -712 -245 Z" /><glyph glyph-name="tonos" unicode="&#x384;" d="M237 1599 L411 1599 L295 1262 L183 1262 L237 1599 Z" /><glyph glyph-name="dieresistonos" unicode="&#x385;" d="M481 1672 L669 1672 L568 1408 L433 1408 L481 1672 ZM113 1371 Q113 1416 140.5 1446.5 Q168 1477 222 1477 Q276 1477 304 1446.5 Q332 1416 332 1371 Q332 1326 304 1296 Q276 1266 222 1266 Q168 1266 140.5 1296 Q113 1326 113 1371 ZM680 1369 Q680 1414 707.5 1445 Q735 1476 789 1476 Q843 1476 871 1445 Q899 1414 899 1369 Q899 1324 871 1294 Q843 1264 789 1264 Q735 1264 707.5 1294 Q680 1324 680 1369 Z" /><glyph glyph-name="Gamma" unicode="&#x393;" d="M1072 1298 L370 1298 L370 0 L177 0 L177 1456 L1072 1456 L1072 1298 Z" /><glyph glyph-name="Delta" unicode="&#x394;&#x2206;" d="M646 1456 L816 1456 L1395 0 L31 0 L646 1456 ZM293 157 L1137 157 L728 1221 L293 157 Z" /><glyph glyph-name="Theta" unicode="&#x398;" d="M960 660 L444 660 L444 811 L960 811 L960 660 ZM1274 681 Q1274 517 1232.5 387.5 Q1191 258 1115 167 Q1039 76 931 28 Q823 -20 690 -20 Q561 -20 453 28 Q345 76 267 167 Q189 258 146 387.5 Q103 517 103 681 L103 773 Q103 936 146 1066.5 Q189 1197 266 1288 Q343 1379 451 1427.5 Q559 1476 688 1476 Q821 1476 929.5 1427.5 Q1038 1379 1114.5 1288 Q1191 1197 1232.5 1066.5 Q1274 936 1274 773 L1274 681 ZM1083 775 Q1083 905 1056.5 1005 Q1030 1105 979 1173 Q928 1241 854.5 1276 Q781 1311 688 1311 Q599 1311 526 1276 Q453 1241 401.5 1173 Q350 1105 322 1005 Q294 905 294 775 L294 681 Q294 550 322.5 450 Q351 350 403 281.5 Q455 213 528 178 Q601 143 690 143 Q784 143 857 178 Q930 213 980.5 281.5 Q1031 350 1057 450 Q1083 550 1083 681 L1083 775 Z" /><glyph glyph-name="Lambda" unicode="&#x39b;" d="M666 1161 L256 0 L50 0 L580 1456 L752 1456 L1283 0 L1076 0 L666 1161 Z" /><glyph glyph-name="Xi" unicode="&#x39e;" d="M120 157 L1057 157 L1057 0 L120 0 L120 157 ZM207 831 L961 831 L961 674 L207 674 L207 831 ZM124 1456 L1040 1456 L1040 1298 L124 1298 L124 1456 Z" /><glyph glyph-name="Pi" unicode="&#x3a0;" d="M1281 0 L1088 0 L1088 1298 L370 1298 L370 0 L178 0 L178 1456 L1281 1456 L1281 0 Z" /><glyph glyph-name="Sigma" unicode="&#x3a3;" d="M754 718 L309 157 L1092 157 L1092 0 L69 0 L69 143 L550 729 L69 1312 L69 1456 L1043 1456 L1043 1298 L311 1298 L754 742 L754 718 Z" /><glyph glyph-name="Phi" unicode="&#x3a6;" d="M834 1271 L836 1271 Q956 1271 1058.5 1231 Q1161 1191 1236 1119 Q1311 1047 1353.5 946 Q1396 845 1396 724 Q1396 602 1353.5 501.5 Q1311 401 1236 328 Q1161 255 1058.5 215 Q956 175 836 175 L834 175 L834 0 L640 0 L640 175 L635 175 Q516 175 414 215 Q312 255 237 327 Q162 399 119.5 499.5 Q77 600 77 722 Q77 843 119.5 944 Q162 1045 237 1118 Q312 1191 414 1231 Q516 1271 635 1271 L640 1271 L640 1456 L834 1456 L834 1271 ZM635 1112 Q547 1112 478.5 1084 Q410 1056 363.5 1005 Q317 954 292.5 882 Q268 810 268 722 Q268 633 292.5 561.5 Q317 490 363.5 439.5 Q410 389 478.5 361.5 Q547 334 635 334 L640 334 L640 1112 L635 1112 ZM834 1112 L834 334 L838 334 Q926 334 994 361.5 Q1062 389 1109 440 Q1156 491 1180.5 563 Q1205 635 1205 724 Q1205 812 1180.5 883.5 Q1156 955 1109 1006 Q1062 1057 994 1084.5 Q926 1112 838 1112 L834 1112 Z" /><glyph glyph-name="Psi" unicode="&#x3a8;" d="M790 523 Q865 534 926 566 Q987 598 1030 649.5 Q1073 701 1096.5 771.5 Q1120 842 1120 930 L1120 1456 L1313 1456 L1313 930 Q1313 803 1274.5 702.5 Q1236 602 1166.5 530 Q1097 458 1001 415.5 Q905 373 790 362 L790 0 L597 0 L597 362 Q485 373 392 416 Q299 459 232 531 Q165 603 127.5 703.5 Q90 804 90 930 L90 1456 L282 1456 L282 930 Q282 843 305 773 Q328 703 369 651.5 Q410 600 468 568 Q526 536 597 524 L597 1456 L790 1456 L790 523 Z" /><glyph glyph-name="Omega" unicode="&#x3a9;&#x2126;" d="M737 162 Q804 175 858.5 217 Q913 259 951.5 329.5 Q990 400 1011 499 Q1032 598 1032 726 L1032 841 Q1032 958 1007 1047 Q982 1136 934.5 1196 Q887 1256 820 1287 Q753 1318 669 1318 Q586 1318 519.5 1287 Q453 1256 406 1196 Q359 1136 333.5 1047 Q308 958 308 841 L308 726 Q308 598 330 498.5 Q352 399 391.5 328.5 Q431 258 486.5 216.5 Q542 175 610 162 L610 0 L118 0 L118 157 L339 157 Q287 207 245 271.5 Q203 336 174 409.5 Q145 483 129 563.5 Q113 644 113 726 L113 839 Q113 981 153.5 1098 Q194 1215 267 1299 Q340 1383 442.5 1429.5 Q545 1476 669 1476 Q793 1476 896 1429.5 Q999 1383 1072.5 1299 Q1146 1215 1186.5 1098 Q1227 981 1227 839 L1227 726 Q1227 644 1211 563.5 Q1195 483 1166 409.5 Q1137 336 1095 271.5 Q1053 207 1001 157 L1221 157 L1221 0 L737 0 L737 162 Z" /><glyph glyph-name="alpha" unicode="&#x3b1;" d="M1006 1082 L1006 295 Q1006 249 1012.5 220 Q1019 191 1030 174.5 Q1041 158 1055.5 151.5 Q1070 145 1086 145 Q1096 145 1105 146.5 Q1114 148 1120 150 L1143 13 Q1112 -9 1082.5 -15 Q1053 -21 1021 -21 Q951 -21 903.5 17.5 Q856 56 836 144 Q784 64 706.5 21.5 Q629 -21 520 -21 Q420 -21 342 17.5 Q264 56 210 125 Q156 194 128 290 Q100 386 100 500 L100 521 Q100 649 128 755.5 Q156 862 209.5 939 Q263 1016 341.5 1059 Q420 1102 522 1102 Q628 1102 704 1060.5 Q780 1019 832 941 L849 1082 L1006 1082 ZM285 500 Q285 423 301 355.5 Q317 288 350.5 238 Q384 188 437.5 159 Q491 130 566 130 Q615 130 654 144 Q693 158 724 182.5 Q755 207 779 241 Q803 275 821 316 L821 762 Q803 802 778.5 836.5 Q754 871 723 896.5 Q692 922 653.5 936 Q615 950 568 950 Q492 950 438.5 915.5 Q385 881 351 822.5 Q317 764 301 686 Q285 608 285 521 L285 500 Z" /><glyph glyph-name="beta" unicode="&#x3b2;" d="M605 1476 Q702 1476 781.5 1447 Q861 1418 916.5 1366 Q972 1314 1002.5 1242 Q1033 1170 1033 1083 Q1033 992 984 916 Q935 840 847 794 Q970 749 1035.5 651.5 Q1101 554 1101 424 Q1101 317 1067 234.5 Q1033 152 972.5 95.5 Q912 39 829 9.5 Q746 -20 647 -20 Q566 -20 487 3 Q408 26 346 75 L346 -384 L160 -384 L160 1073 Q160 1129 176 1180 Q192 1231 221.5 1276 Q251 1321 292 1358 Q333 1395 382.5 1421 Q432 1447 488 1461.5 Q544 1476 605 1476 ZM601 858 Q667 858 714 875 Q761 892 790.5 922.5 Q820 953 834 995 Q848 1037 848 1087 Q848 1132 832.5 1174.5 Q817 1217 786.5 1250 Q756 1283 710.5 1303.5 Q665 1324 605 1324 Q550 1324 503 1305 Q456 1286 421 1252.5 Q386 1219 366 1173 Q346 1127 346 1073 L346 246 Q390 194 462 162.5 Q534 131 628 131 Q697 131 750.5 152.5 Q804 174 840.5 212.5 Q877 251 896.5 304 Q916 357 916 420 Q916 472 899.5 523.5 Q883 575 850.5 615.5 Q818 656 770 681 Q722 706 660 706 L517 706 L517 858 L601 858 Z" /><glyph glyph-name="gamma" unicode="&#x3b3;" d="M522 276 L802 1082 L991 1082 L612 57 L612 -416 L426 -416 L426 64 L46 1082 L235 1082 L522 276 Z" /><glyph glyph-name="delta" unicode="&#x3b4;" d="M221 1269 Q221 1337 247 1391.5 Q273 1446 322 1484.5 Q371 1523 441 1543.5 Q511 1564 599 1564 Q638 1564 673 1560.5 Q708 1557 741 1550.5 Q774 1544 806 1533.5 Q838 1523 872 1509 L870 1349 Q847 1358 817 1368.5 Q787 1379 751 1387.5 Q715 1396 675.5 1402 Q636 1408 595 1408 Q509 1408 458.5 1372 Q408 1336 408 1274 Q408 1253 417.5 1230 Q427 1207 452.5 1183 Q478 1159 523 1134.5 Q568 1110 639 1086 Q854 1012 958.5 873 Q1063 734 1063 530 L1063 509 Q1063 396 1030.5 299 Q998 202 936 131 Q874 60 784.5 20 Q695 -20 581 -20 Q467 -20 376.5 20 Q286 60 224 131 Q162 202 129 299 Q96 396 96 509 L96 530 Q96 619 123 696.5 Q150 774 195.5 835 Q241 896 301.5 937 Q362 978 428 994 L427 999 Q328 1038 274.5 1108 Q221 1178 221 1269 ZM283 509 Q283 432 300.5 363 Q318 294 355 242.5 Q392 191 448 160.5 Q504 130 581 130 Q657 130 713 160.5 Q769 191 805.5 242.5 Q842 294 859.5 363 Q877 432 877 509 L877 530 Q877 594 856 656.5 Q835 719 796 771 Q757 823 703 860 Q649 897 583 910 Q506 910 450 879 Q394 848 356.5 796 Q319 744 301 675 Q283 606 283 530 L283 509 Z" /><glyph glyph-name="epsilon" unicode="&#x3b5;" d="M539 478 Q414 478 350 436.5 Q286 395 286 304 Q286 269 303.5 237 Q321 205 355 181 Q389 157 438.5 143 Q488 129 551 129 Q612 129 661.5 145 Q711 161 746 187 Q781 213 800 247.5 Q819 282 819 320 L1004 320 Q1004 231 964.5 167 Q925 103 861 61.5 Q797 20 715.5 0 Q634 -20 551 -20 Q453 -20 370 2 Q287 24 227 65.5 Q167 107 133 167 Q99 227 99 304 Q99 398 151.5 461 Q204 524 304 556 Q216 592 167 653 Q118 714 118 787 Q118 863 149 922 Q180 981 236.5 1020.5 Q293 1060 373 1080.5 Q453 1101 551 1101 Q640 1101 719 1078.5 Q798 1056 857.5 1014.5 Q917 973 951.5 913.5 Q986 854 986 780 L801 780 Q801 816 781.5 847 Q762 878 728.5 901.5 Q695 925 649 938 Q603 951 551 951 Q487 951 440.5 937 Q394 923 363.5 900 Q333 877 318.5 847.5 Q304 818 304 786 Q304 751 317 721.5 Q330 692 358.5 671 Q387 650 431.5 638 Q476 626 539 626 L744 626 L744 478 L539 478 Z" /><glyph glyph-name="zeta" unicode="&#x3b6;" d="M963 1456 L963 1336 L613 909 Q554 840 509.5 778.5 Q465 717 434.5 655.5 Q404 594 388.5 528 Q373 462 373 386 Q373 338 382 303 Q391 268 410.5 242.5 Q430 217 460 200 Q490 183 533 171 L662 133 Q717 117 764.5 103.5 Q812 90 847 68 Q882 46 901.5 9.5 Q921 -27 921 -88 Q920 -128 902.5 -171 Q885 -214 858.5 -253.5 Q832 -293 801.5 -327 Q771 -361 744 -383 L646 -299 Q693 -246 718.5 -203.5 Q744 -161 744 -116 Q744 -81 708 -56 Q672 -31 591 -9 L501 14 Q414 37 354 67.5 Q294 98 257.5 141.5 Q221 185 204.5 243.5 Q188 302 188 381 Q188 436 203 504 Q218 572 251.5 650 Q285 728 338 813.5 Q391 899 467 988 L746 1304 L109 1304 L109 1456 L963 1456 Z" /><glyph glyph-name="eta" unicode="&#x3b7;" d="M312 1082 L323 946 Q379 1019 459.5 1060.5 Q540 1102 643 1102 Q727 1102 794.5 1082 Q862 1062 909.5 1014.5 Q957 967 982.5 889 Q1008 811 1008 694 L1008 -415 L823 -415 L823 690 Q823 765 807.5 815 Q792 865 762 895 Q732 925 688 937.5 Q644 950 587 950 Q538 950 498 938 Q458 926 426.5 904 Q395 882 371 852 Q347 822 331 785 L331 0 L145 0 L145 1082 L312 1082 Z" /><glyph glyph-name="theta" unicode="&#x3b8;" d="M1042 640 Q1042 471 1010 347 Q978 223 918.5 141.5 Q859 60 774 20 Q689 -20 583 -20 Q478 -20 393 20 Q308 60 248 141.5 Q188 223 155 347 Q122 471 122 640 L122 825 Q122 993 154.5 1116 Q187 1239 247 1319 Q307 1399 391.5 1437.5 Q476 1476 581 1476 Q687 1476 772 1437.5 Q857 1399 917 1319 Q977 1239 1009.5 1116 Q1042 993 1042 825 L1042 640 ZM307 801 L856 801 L856 856 Q856 1083 786.5 1203.5 Q717 1324 581 1324 Q447 1324 377 1203.5 Q307 1083 307 856 L307 801 ZM856 649 L307 649 L307 610 Q307 497 325 408.5 Q343 320 378.5 258 Q414 196 465.5 163.5 Q517 131 583 131 Q651 131 702 163.5 Q753 196 787.5 258 Q822 320 839 408.5 Q856 497 856 610 L856 649 Z" /><glyph glyph-name="iota" unicode="&#x3b9;" d="M380 1082 L380 275 Q380 233 390 208 Q400 183 416.5 169 Q433 155 454.5 150.5 Q476 146 499 146 Q522 146 547.5 150 Q573 154 586 158 L587 7 Q565 1 529.5 -5.5 Q494 -12 444 -12 Q393 -12 347.5 2.5 Q302 17 268 50.5 Q234 84 214.5 139.5 Q195 195 195 276 L195 1082 L380 1082 Z" /><glyph glyph-name="lambda" unicode="&#x3bb;" d="M261 1518 Q318 1518 359 1505.5 Q400 1493 429.5 1470 Q459 1447 478.5 1415 Q498 1383 512 1343 L939 234 Q959 183 981.5 163.5 Q1004 144 1039 144 Q1048 144 1058.5 144.5 Q1069 145 1077 147 L1083 -5 Q1071 -9 1049.5 -13 Q1028 -17 1005 -17 Q959 -17 924 -10 Q889 -3 860.5 19 Q832 41 807.5 80.5 Q783 120 759 186 L529 779 L243 0 L37 0 L431 1029 L335 1264 Q312 1320 285.5 1343 Q259 1366 214 1366 Q205 1366 190.5 1365.5 Q176 1365 167 1364 L166 1506 Q173 1508 185 1510.5 Q197 1513 210.5 1514.5 Q224 1516 237.5 1517 Q251 1518 261 1518 Z" /><glyph glyph-name="xi" unicode="&#x3be;" d="M882 1288 Q827 1303 770.5 1313.5 Q714 1324 653 1324 Q574 1324 517 1308.5 Q460 1293 423.5 1267 Q387 1241 369.5 1207 Q352 1173 352 1136 Q352 1087 370 1046.5 Q388 1006 427.5 977.5 Q467 949 528.5 933 Q590 917 677 917 L818 917 L818 765 L677 765 Q491 765 389 687 Q287 609 287 444 Q287 377 310.5 326.5 Q334 276 373 239 Q412 202 462.5 178.5 Q513 155 568 142 L678 115 Q739 100 787.5 84.5 Q836 69 869 45.5 Q902 22 919.5 -13 Q937 -48 937 -101 Q937 -141 919 -183.5 Q901 -226 874.5 -265 Q848 -304 817.5 -337.5 Q787 -371 761 -393 L654 -309 Q677 -283 696.5 -261.5 Q716 -240 730 -219 Q744 -198 752 -175 Q760 -152 760 -123 Q760 -103 751.5 -88.5 Q743 -74 724.5 -62.5 Q706 -51 677 -41 Q648 -31 606 -21 L548 -8 Q449 15 367 47 Q285 79 226 131 Q167 183 134 259.5 Q101 336 101 448 Q101 524 123 586.5 Q145 649 186 698.5 Q227 748 285 784 Q343 820 415 842 Q297 884 231.5 960 Q166 1036 166 1132 Q166 1214 200.5 1278 Q235 1342 298 1386 Q361 1430 451 1453 Q541 1476 652 1476 Q687 1476 722.5 1473 Q758 1470 792 1464.5 Q826 1459 856 1452 Q886 1445 909 1437 L882 1288 Z" /><glyph glyph-name="pi" unicode="&#x3c0;" d="M1137 929 L981 929 L981 275 Q981 233 991 208 Q1001 183 1017.5 169 Q1034 155 1055.5 150.5 Q1077 146 1100 146 Q1123 146 1148.5 150 Q1174 154 1187 158 L1188 7 Q1166 1 1130.5 -5.5 Q1095 -12 1045 -12 Q994 -12 948.5 2.5 Q903 17 869 50.5 Q835 84 815.5 139.5 Q796 195 796 276 L796 929 L396 929 L396 0 L210 0 L210 929 L41 929 L41 1082 L1137 1082 L1137 929 Z" /><glyph glyph-name="rho" unicode="&#x3c1;" d="M1055 500 Q1055 386 1028 290.5 Q1001 195 948 126 Q895 57 817.5 18.5 Q740 -20 640 -20 Q539 -20 462.5 12 Q386 44 331 104 L331 -416 L145 -416 L145 577 L145 578 Q145 707 180.5 805 Q216 903 277 969 Q338 1035 419.5 1068.5 Q501 1102 592 1102 Q707 1102 794 1059 Q881 1016 939 939 Q997 862 1026 755.5 Q1055 649 1055 521 L1055 500 ZM870 521 Q870 608 855 686 Q840 764 807 822.5 Q774 881 721 915.5 Q668 950 592 950 Q522 950 472.5 914.5 Q423 879 391.5 824.5 Q360 770 345.5 704 Q331 638 331 577 L331 278 Q349 246 373 219 Q397 192 428 172.5 Q459 153 498 142 Q537 131 585 131 Q660 131 714 160 Q768 189 802.5 239 Q837 289 853.5 356 Q870 423 870 500 L870 521 Z" /><glyph glyph-name="sigma1" unicode="&#x3c2;" d="M573 1102 Q664 1102 741 1075.5 Q818 1049 874 999 Q930 949 961.5 875.5 Q993 802 993 709 L818 709 Q818 759 802.5 803 Q787 847 756 879.5 Q725 912 679.5 931 Q634 950 573 950 Q497 950 443 916 Q389 882 354 826.5 Q319 771 302.5 701.5 Q286 632 286 562 L286 520 Q286 246 641 151 Q700 135 751 119.5 Q802 104 839 80 Q876 56 897 17.5 Q918 -21 918 -82 Q917 -121 899.5 -163 Q882 -205 856 -245 Q830 -285 799.5 -318.5 Q769 -352 743 -374 L645 -289 Q668 -263 686 -242 Q704 -221 716 -200.5 Q728 -180 734.5 -157 Q741 -134 741 -105 Q741 -61 704.5 -39.5 Q668 -18 585 0 Q349 52 225 180.5 Q101 309 101 520 L101 562 Q101 671 132.5 769 Q164 867 224 941 Q284 1015 372 1058.5 Q460 1102 573 1102 Z" /><glyph glyph-name="sigma" unicode="&#x3c3;" d="M1147 929 L863 929 Q960 857 1011.5 752 Q1063 647 1063 514 L1063 491 Q1063 391 1030.5 299 Q998 207 935.5 136 Q873 65 783.5 22.5 Q694 -20 580 -20 Q466 -20 376.5 21.5 Q287 63 224.5 136.5 Q162 210 129 310.5 Q96 411 96 529 L96 551 Q96 664 129 761 Q162 858 224 929 Q286 1000 375 1041 Q464 1082 577 1082 L1147 1082 L1147 929 ZM282 529 Q282 448 299.5 376 Q317 304 354 249.5 Q391 195 447 163 Q503 131 580 131 Q656 131 712.5 163 Q769 195 805.5 249.5 Q842 304 860 376 Q878 448 878 529 L878 551 Q878 627 860 695.5 Q842 764 805 816 Q768 868 711.5 898.5 Q655 929 578 929 Q502 929 446 898.5 Q390 868 353.5 816 Q317 764 299.5 695.5 Q282 627 282 551 L282 529 Z" /><glyph glyph-name="tau" unicode="&#x3c4;" d="M985 932 L614 932 L614 269 Q614 228 622.5 202 Q631 176 645.5 161.5 Q660 147 679 141.5 Q698 136 719 136 Q746 136 770 144.5 Q794 153 811 162 L853 32 Q806 0 762.5 -10 Q719 -20 671 -20 Q614 -20 568.5 -4 Q523 12 492 48 Q461 84 444.5 141 Q428 198 428 279 L428 932 L81 932 L81 1082 L985 1082 L985 932 Z" /><glyph glyph-name="upsilon" unicode="&#x3c5;" d="M329 1082 L329 426 Q329 346 344 289.5 Q359 233 386 197.5 Q413 162 449.5 146 Q486 130 530 130 Q603 130 659 168.5 Q715 207 753 268.5 Q791 330 810 407 Q829 484 829 562 Q826 698 791.5 827.5 Q757 957 706 1082 L901 1082 Q923 1035 943.5 979.5 Q964 924 979.5 859 Q995 794 1004.5 720 Q1014 646 1014 562 Q1014 446 985.5 341 Q957 236 898 155.5 Q839 75 749.5 27.5 Q660 -20 539 -20 Q447 -20 374 6 Q301 32 249.5 87 Q198 142 170.5 226.5 Q143 311 143 428 L143 1082 L329 1082 Z" /><glyph glyph-name="phi" unicode="&#x3c6;" d="M620 -17 Q475 -4 373.5 48 Q272 100 208.5 179 Q145 258 116 357 Q87 456 87 564 Q87 732 151.5 863.5 Q216 995 343 1082 L444 949 Q399 910 367.5 864 Q336 818 315.5 768 Q295 718 285 666 Q275 614 273 564 Q273 494 291 424 Q309 354 350 294.5 Q391 235 457.5 193 Q524 151 620 136 L620 855 Q620 907 638.5 949 Q657 991 690 1020.5 Q723 1050 769 1066 Q815 1082 871 1082 Q970 1082 1058 1041.5 Q1146 1001 1212.5 929 Q1279 857 1317.5 758.5 Q1356 660 1356 544 Q1356 440 1325.5 344 Q1295 248 1229 172 Q1163 96 1058.5 45.5 Q954 -5 805 -17 L805 -478 L620 -478 L620 -17 ZM805 136 Q905 149 974.5 189.5 Q1044 230 1087.5 286.5 Q1131 343 1151 410 Q1171 477 1171 544 Q1169 617 1149.5 686 Q1130 755 1092.5 809 Q1055 863 999.5 896 Q944 929 871 929 Q839 929 822 908 Q805 887 805 861 L805 136 Z" /><glyph glyph-name="psi" unicode="&#x3c8;" d="M796 1082 L796 136 Q897 150 967 192.5 Q1037 235 1080.5 294.5 Q1124 354 1143 425 Q1162 496 1162 567 Q1159 701 1123.5 830 Q1088 959 1035 1082 L1229 1082 Q1252 1036 1273 981 Q1294 926 1310.5 861.5 Q1327 797 1337 723.5 Q1347 650 1347 567 Q1347 458 1318 357.5 Q1289 257 1223.5 177.5 Q1158 98 1053 46.5 Q948 -5 796 -17 L796 -472 L611 -472 L611 -15 Q492 -3 396.5 39 Q301 81 234 156 Q167 231 131 340.5 Q95 450 95 596 L95 1082 L281 1082 L281 594 Q281 483 305.5 402 Q330 321 373.5 266 Q417 211 478 179.5 Q539 148 611 137 L611 1082 L796 1082 Z" /><glyph glyph-name="omega" unicode="&#x3c9;" d="M452 1082 Q391 957 351 827 Q311 697 307 560 Q307 473 319 395 Q331 317 357 258 Q383 199 425 164.5 Q467 130 527 130 Q575 130 615.5 148.5 Q656 167 685.5 207.5 Q715 248 731.5 313 Q748 378 748 471 L748 770 L935 770 L935 471 Q935 378 951.5 313 Q968 248 997.5 207.5 Q1027 167 1067.5 148.5 Q1108 130 1156 130 Q1216 130 1258 164.5 Q1300 199 1326 257.5 Q1352 316 1364 394 Q1376 472 1376 560 Q1372 697 1332 827 Q1292 957 1231 1082 L1426 1082 Q1452 1035 1476.5 979.5 Q1501 924 1519.5 858.5 Q1538 793 1549.5 718.5 Q1561 644 1561 560 Q1561 445 1540 340 Q1519 235 1472 155 Q1425 75 1349.5 27.5 Q1274 -20 1166 -20 Q1047 -20 965 40.5 Q883 101 841 218 Q800 101 718 40.5 Q636 -20 517 -20 Q409 -20 333.5 27.5 Q258 75 211 155 Q164 235 143 340 Q122 445 122 560 Q122 644 133 718.5 Q144 793 163 858.5 Q182 924 206 979.5 Q230 1035 257 1082 L452 1082 Z" /><glyph glyph-name="uni03D1" unicode="&#x3d1;" d="M1145 627 Q1114 615 1077 607 Q1040 599 1002 595 L1002 435 Q1002 324 971 239 Q940 154 883.5 96.5 Q827 39 747.5 9.5 Q668 -20 571 -20 Q470 -20 387 12 Q304 44 245 103 Q186 162 153.5 246.5 Q121 331 121 435 L121 769 L307 771 L307 435 Q307 292 377 214.5 Q447 137 571 137 Q687 137 752 210 Q817 283 817 435 L817 601 Q705 617 615 663 Q525 709 462 776.5 Q399 844 365 930.5 Q331 1017 331 1116 L331 1131 Q331 1214 356 1278.5 Q381 1343 426 1387.5 Q471 1432 532 1455 Q593 1478 665 1478 Q743 1478 805.5 1453.5 Q868 1429 911.5 1381.5 Q955 1334 978.5 1264.5 Q1002 1195 1002 1105 L1002 752 Q1037 755 1071.5 761.5 Q1106 768 1137 776 L1145 627 ZM517 1114 Q517 1052 536 995.5 Q555 939 593 892.5 Q631 846 687 812 Q743 778 817 762 L817 1105 Q817 1218 779 1269 Q741 1320 665 1320 Q633 1320 606 1309.5 Q579 1299 559 1276.5 Q539 1254 528 1218 Q517 1182 517 1131 L517 1114 Z" /><glyph glyph-name="uni03D2" unicode="&#x3d2;" d="M548 774 L773 1281 Q797 1336 822 1372 Q847 1408 875.5 1429.5 Q904 1451 937 1459.5 Q970 1468 1010 1468 Q1044 1468 1073.5 1462.5 Q1103 1457 1134 1441 L1098 1290 Q1093 1293 1077.5 1295.5 Q1062 1298 1046 1298 Q1014 1298 987.5 1281.5 Q961 1265 940 1219 L643 570 L643 0 L452 0 L452 572 L156 1219 Q134 1265 107.5 1281.5 Q81 1298 50 1298 Q33 1298 18 1295.5 Q3 1293 -2 1290 L-38 1440 Q-8 1456 21 1462 Q50 1468 85 1468 Q122 1468 155.5 1460.5 Q189 1453 219 1432.5 Q249 1412 275.5 1375.5 Q302 1339 326 1282 L548 774 Z" /><glyph glyph-name="uni03D6" unicode="&#x3d6;" d="M1563 929 L1427 929 Q1456 851 1473.5 760 Q1491 669 1491 560 Q1491 445 1471.5 340 Q1452 235 1409.5 155 Q1367 75 1298.5 27.5 Q1230 -20 1132 -20 Q1013 -20 931 40.5 Q849 101 808 219 Q767 101 685.5 40.5 Q604 -20 485 -20 Q387 -20 318.5 27.5 Q250 75 207 155 Q164 235 145 340 Q126 445 126 560 Q126 669 144 760 Q162 851 190 929 L74 929 L74 1082 L1563 1082 L1563 929 ZM1305 560 Q1303 655 1282 746.5 Q1261 838 1227 929 L390 929 Q356 839 334.5 747 Q313 655 311 560 Q311 473 321 395 Q331 317 353 258 Q375 199 410 164.5 Q445 130 495 130 Q542 130 582.5 148.5 Q623 167 652.5 207.5 Q682 248 698.5 313 Q715 378 715 471 L715 722 L902 722 L902 471 Q902 378 918.5 313 Q935 248 964.5 207.5 Q994 167 1034.5 148.5 Q1075 130 1123 130 Q1172 130 1206.5 164.5 Q1241 199 1263 257.5 Q1285 316 1295 394 Q1305 472 1305 560 Z" /><glyph glyph-name="uni0402" unicode="&#x402;" d="M1172 1298 L650 1298 L650 843 Q686 854 724.5 863 Q763 872 800.5 878 Q838 884 873.5 887.5 Q909 891 939 891 Q1060 891 1156 860.5 Q1252 830 1319 771.5 Q1386 713 1421.5 628 Q1457 543 1457 433 Q1457 329 1426 246.5 Q1395 164 1332.5 107 Q1270 50 1177 19.5 Q1084 -11 960 -11 L958 139 Q1044 139 1102.5 160 Q1161 181 1197 219.5 Q1233 258 1249 312 Q1265 366 1265 432 Q1263 574 1181.5 649 Q1100 724 938 724 Q864 724 791.5 712.5 Q719 701 650 678 L650 0 L457 0 L457 1298 L42 1298 L42 1456 L1172 1456 L1172 1298 Z" /><glyph glyph-name="uni0404" unicode="&#x404;" d="M1244 462 Q1232 359 1193.5 270.5 Q1155 182 1087 117.5 Q1019 53 921 16.5 Q823 -20 692 -20 Q563 -20 458 28 Q353 76 278.5 164.5 Q204 253 163.5 377 Q123 501 123 654 L123 799 Q123 952 164 1077 Q205 1202 281 1290.5 Q357 1379 465.5 1427.5 Q574 1476 709 1476 Q832 1476 927 1440 Q1022 1404 1088.5 1339.5 Q1155 1275 1194 1185.5 Q1233 1096 1244 988 L1052 988 Q1041 1064 1017.5 1125 Q994 1186 953.5 1229 Q913 1272 853 1295 Q793 1318 709 1318 Q613 1318 540 1281.5 Q467 1245 418 1178.5 Q369 1112 343 1019 Q317 926 316 813 L886 813 L886 656 L316 656 L316 654 Q316 547 338.5 453 Q361 359 407 288.5 Q453 218 524 177.5 Q595 137 692 137 Q784 137 847 159 Q910 181 951.5 222.5 Q993 264 1016 324.5 Q1039 385 1051 462 L1244 462 Z" /><glyph glyph-name="uni0409" unicode="&#x409;" d="M1270 1456 L1270 891 L1621 891 Q1741 891 1833 857.5 Q1925 824 1988 764.5 Q2051 705 2083 623.5 Q2115 542 2115 445 Q2115 349 2082.5 267.5 Q2050 186 1987.5 126.5 Q1925 67 1833 33.5 Q1741 0 1621 0 L1078 0 L1078 1298 L573 1298 L570 774 Q568 575 542.5 429.5 Q517 284 461.5 188.5 Q406 93 317 46.5 Q228 0 99 0 L49 0 L49 157 L89 157 Q166 157 220.5 190.5 Q275 224 309.5 298 Q344 372 360.5 489.5 Q377 607 379 774 L383 1456 L1270 1456 ZM1270 733 L1270 157 L1621 157 Q1701 157 1758.5 181.5 Q1816 206 1852.5 246.5 Q1889 287 1906 339.5 Q1923 392 1923 447 Q1923 502 1906 553.5 Q1889 605 1852.5 645 Q1816 685 1758.5 709 Q1701 733 1621 733 L1270 733 Z" /><glyph glyph-name="uni040A" unicode="&#x40a;" d="M370 825 L1088 825 L1088 1456 L1280 1456 L1280 846 L1631 846 Q1751 846 1843 815.5 Q1935 785 1997.5 729.5 Q2060 674 2092.5 597 Q2125 520 2125 428 Q2125 335 2092.5 256.5 Q2060 178 1997.5 121 Q1935 64 1843 32 Q1751 0 1631 0 L1088 0 L1088 668 L370 668 L370 0 L177 0 L177 1456 L370 1456 L370 825 ZM1280 689 L1280 166 L1631 166 Q1711 166 1768.5 187.5 Q1826 209 1862.5 245.5 Q1899 282 1916 330 Q1933 378 1933 430 Q1933 481 1916 528 Q1899 575 1862.5 611 Q1826 647 1768.5 668 Q1711 689 1631 689 L1280 689 Z" /><glyph glyph-name="uni040B" unicode="&#x40b;" d="M1190 1298 L662 1298 L662 866 Q734 884 813.5 895 Q893 906 997 906 Q1113 906 1205 881.5 Q1297 857 1360.5 803.5 Q1424 750 1458 664 Q1492 578 1492 455 L1492 0 L1299 0 L1299 455 Q1299 540 1280 596.5 Q1261 653 1223.5 686.5 Q1186 720 1129.5 734 Q1073 748 997 748 Q906 748 823.5 737 Q741 726 662 706 L662 0 L470 0 L470 1298 L62 1298 L62 1456 L1190 1456 L1190 1298 Z" /><glyph glyph-name="uni040F" unicode="&#x40f;" d="M176 1456 L369 1456 L369 157 L1087 157 L1087 1456 L1279 1456 L1279 0 L831 0 L831 -359 L638 -359 L638 0 L176 0 L176 1456 Z" /><glyph glyph-name="uni0411" unicode="&#x411;" d="M1057 1298 L355 1298 L355 862 L706 862 Q826 862 918.5 831.5 Q1011 801 1073.5 745 Q1136 689 1168.5 610.5 Q1201 532 1201 435 Q1201 339 1168.5 259 Q1136 179 1073 121.5 Q1010 64 918 32 Q826 0 706 0 L162 0 L162 1456 L1057 1456 L1057 1298 ZM355 704 L355 157 L706 157 Q786 157 843.5 180 Q901 203 937.5 242 Q974 281 991 331.5 Q1008 382 1008 437 Q1008 492 991 540.5 Q974 589 937.5 625.5 Q901 662 843.5 683 Q786 704 706 704 L355 704 Z" /><glyph glyph-name="uni0414" unicode="&#x414;" d="M1479 -357 L1288 -357 L1288 0 L243 0 L243 -358 L51 -358 L50 157 L169 157 Q194 185 230 237.5 Q266 290 299.5 375 Q333 460 358 581.5 Q383 703 388 870 L420 1456 L1291 1456 L1291 157 L1481 157 L1479 -357 ZM582 870 Q572 620 518.5 442 Q465 264 389 157 L1098 157 L1098 1298 L604 1298 L582 870 Z" /><glyph glyph-name="uni0416" unicode="&#x416;" d="M1192 664 L1036 664 L1036 0 L844 0 L844 664 L679 664 L267 0 L27 0 L517 768 L65 1456 L292 1456 L679 824 L844 824 L844 1456 L1036 1456 L1036 824 L1194 824 L1581 1456 L1807 1456 L1355 769 L1845 0 L1606 0 L1192 664 Z" /><glyph glyph-name="uni0417" unicode="&#x417;" d="M607 821 Q689 821 748 839 Q807 857 844 889.5 Q881 922 898.5 966.5 Q916 1011 916 1065 Q916 1117 897 1163 Q878 1209 839 1243.5 Q800 1278 739 1298 Q678 1318 594 1318 Q531 1318 476 1299.5 Q421 1281 380.5 1248.5 Q340 1216 316.5 1171 Q293 1126 293 1073 L101 1073 Q101 1166 140.5 1241 Q180 1316 247 1368 Q314 1420 403.5 1448 Q493 1476 594 1476 Q711 1476 806 1449.5 Q901 1423 968 1370.5 Q1035 1318 1071.5 1241 Q1108 1164 1108 1062 Q1108 961 1046 878 Q984 795 873 747 Q998 705 1064 619.5 Q1130 534 1130 406 Q1130 304 1090 224.5 Q1050 145 979 91 Q908 37 809.5 8.5 Q711 -20 594 -20 Q500 -20 408 4.5 Q316 29 243 80.5 Q170 132 125 212 Q80 292 80 404 L272 404 Q272 349 295 300 Q318 251 360.5 214.5 Q403 178 462.5 157 Q522 136 594 136 Q676 136 740 156 Q804 176 848 211.5 Q892 247 915 295.5 Q938 344 938 402 Q938 537 853.5 600 Q769 663 607 663 L441 663 L441 821 L607 821 Z" /><glyph glyph-name="uni0418" unicode="&#x418;" d="M1087 1456 L1279 1456 L1279 0 L1087 0 L1087 1122 L370 0 L177 0 L177 1456 L370 1456 L370 334 L1087 1456 Z" /><glyph glyph-name="uni041B" unicode="&#x41b;" d="M1270 1456 L1270 0 L1078 0 L1078 1298 L558 1298 L541 774 Q535 575 510.5 429.5 Q486 284 435 188.5 Q384 93 302.5 46.5 Q221 0 100 0 L47 0 L47 157 L87 157 Q157 157 205 191 Q253 225 283 298.5 Q313 372 328.5 489.5 Q344 607 350 774 L373 1456 L1270 1456 Z" /><glyph glyph-name="uni0423" unicode="&#x423;" d="M669 611 L1004 1456 L1227 1456 L712 243 Q689 192 662.5 144.5 Q636 97 596.5 60 Q557 23 500 1 Q443 -21 358 -21 Q346 -21 330.5 -20 Q315 -19 300.5 -18 Q286 -17 274 -15.5 Q262 -14 257 -12 L263 140 Q269 139 281 138.5 Q293 138 306.5 137.5 Q320 137 333 136.5 Q346 136 354 136 Q396 136 424.5 149.5 Q453 163 473.5 184.5 Q494 206 508 233.5 Q522 261 535 289 L573 378 L77 1456 L292 1456 L669 611 Z" /><glyph glyph-name="uni0424" unicode="&#x424;" d="M888 1311 L915 1311 Q1041 1311 1149 1268 Q1257 1225 1336.5 1147.5 Q1416 1070 1461.5 962.5 Q1507 855 1507 725 Q1507 595 1461.5 487 Q1416 379 1336.5 301 Q1257 223 1149 180 Q1041 137 915 137 L888 137 L888 -60 L703 -60 L703 137 L674 137 Q548 137 440 180 Q332 223 252.5 300 Q173 377 128 485 Q83 593 83 723 Q83 853 128 961 Q173 1069 252.5 1147 Q332 1225 440 1268 Q548 1311 674 1311 L703 1311 L703 1516 L888 1516 L888 1311 ZM674 1159 Q576 1159 500 1127.5 Q424 1096 372 1039 Q320 982 293.5 901.5 Q267 821 267 723 Q267 624 293.5 544 Q320 464 372 407 Q424 350 500 319 Q576 288 674 288 L703 288 L703 1159 L674 1159 ZM888 1159 L888 288 L917 288 Q1014 288 1090 319.5 Q1166 351 1217.5 408 Q1269 465 1296 545.5 Q1323 626 1323 725 Q1323 823 1296 903 Q1269 983 1217.5 1040 Q1166 1097 1090 1128 Q1014 1159 917 1159 L888 1159 Z" /><glyph glyph-name="uni0426" unicode="&#x426;" d="M175 1456 L368 1456 L368 157 L1086 157 L1086 1456 L1278 1456 L1278 161 L1431 161 L1413 -351 L1240 -351 L1240 0 L175 0 L175 1456 Z" /><glyph glyph-name="uni0427" unicode="&#x427;" d="M1224 1456 L1224 0 L1031 0 L1031 603 Q989 591 946 581 Q903 571 856.5 564 Q810 557 757.5 553.5 Q705 550 644 550 Q528 550 436 574.5 Q344 599 280.5 652.5 Q217 706 183.5 792 Q150 878 150 1001 L150 1456 L343 1456 L343 1001 Q343 916 362 859.5 Q381 803 418.5 769.5 Q456 736 512.5 722 Q569 708 644 708 Q749 708 844.5 722.5 Q940 737 1031 762 L1031 1456 L1224 1456 Z" /><glyph glyph-name="uni0428" unicode="&#x428;" d="M369 1456 L369 157 L870 157 L870 1456 L1061 1456 L1061 157 L1559 157 L1559 1456 L1751 1456 L1751 0 L176 0 L176 1456 L369 1456 Z" /><glyph glyph-name="uni0429" unicode="&#x429;" d="M369 1456 L369 157 L870 157 L870 1456 L1061 1456 L1061 157 L1559 157 L1559 1456 L1751 1456 L1751 152 L1899 152 L1881 -351 L1715 -351 L1715 0 L176 0 L176 1456 L369 1456 Z" /><glyph glyph-name="uni042A" unicode="&#x42a;" d="M17 1456 L618 1456 L618 862 L969 862 Q1089 862 1181.5 831.5 Q1274 801 1336.5 745 Q1399 689 1431.5 610.5 Q1464 532 1464 435 Q1464 339 1431.5 259 Q1399 179 1336 121.5 Q1273 64 1181 32 Q1089 0 969 0 L426 0 L426 1304 L17 1304 L17 1456 ZM618 704 L618 157 L969 157 Q1049 157 1106.5 180 Q1164 203 1200.5 242 Q1237 281 1254 331.5 Q1271 382 1271 437 Q1271 492 1254 540.5 Q1237 589 1200.5 625.5 Q1164 662 1106.5 683 Q1049 704 969 704 L618 704 Z" /><glyph glyph-name="uni042B" unicode="&#x42b;" d="M370 862 L721 862 Q841 862 933.5 831.5 Q1026 801 1088.5 745 Q1151 689 1183.5 610.5 Q1216 532 1216 435 Q1216 339 1183.5 259 Q1151 179 1088 121.5 Q1025 64 933 32 Q841 0 721 0 L178 0 L178 1456 L370 1456 L370 862 ZM370 704 L370 157 L721 157 Q801 157 858.5 180 Q916 203 952.5 242 Q989 281 1006 331.5 Q1023 382 1023 437 Q1023 492 1006 540.5 Q989 589 952.5 625.5 Q916 662 858.5 683 Q801 704 721 704 L370 704 ZM1584 0 L1392 0 L1392 1456 L1584 1456 L1584 0 Z" /><glyph glyph-name="uni042C" unicode="&#x42c;" d="M355 862 L706 862 Q826 862 918.5 831.5 Q1011 801 1073.5 745 Q1136 689 1168.5 610.5 Q1201 532 1201 435 Q1201 339 1168.5 259 Q1136 179 1073 121.5 Q1010 64 918 32 Q826 0 706 0 L163 0 L163 1456 L355 1456 L355 862 ZM355 704 L355 157 L706 157 Q786 157 843.5 180 Q901 203 937.5 242 Q974 281 991 331.5 Q1008 382 1008 437 Q1008 492 991 540.5 Q974 589 937.5 625.5 Q901 662 843.5 683 Q786 704 706 704 L355 704 Z" /><glyph glyph-name="uni042D" unicode="&#x42d;" d="M340 462 Q352 385 375 324.5 Q398 264 439.5 222.5 Q481 181 544 159 Q607 137 699 137 Q795 137 865.5 177 Q936 217 982.5 286 Q1029 355 1051.5 448 Q1074 541 1075 647 L502 647 L502 805 L1075 805 Q1075 920 1049.5 1014.5 Q1024 1109 974.5 1176.5 Q925 1244 851.5 1281 Q778 1318 682 1318 Q598 1318 538 1295 Q478 1272 437.5 1229 Q397 1186 374 1125 Q351 1064 340 988 L147 988 Q158 1096 197 1185.5 Q236 1275 302.5 1339.5 Q369 1404 464 1440 Q559 1476 682 1476 Q817 1476 925.5 1427.5 Q1034 1379 1110 1290.5 Q1186 1202 1227 1077 Q1268 952 1268 799 L1268 654 Q1268 501 1227.5 377 Q1187 253 1112.5 164.5 Q1038 76 933 28 Q828 -20 699 -20 Q568 -20 470 16.5 Q372 53 304 117.5 Q236 182 197.5 270.5 Q159 359 147 462 L340 462 Z" /><glyph glyph-name="uni042E" unicode="&#x42e;" d="M1754 681 Q1754 517 1712.5 387.5 Q1671 258 1595 167 Q1519 76 1411 28 Q1303 -20 1170 -20 Q1045 -20 940 25 Q835 70 758 154.5 Q681 239 635.5 361 Q590 483 584 637 L375 637 L375 0 L183 0 L183 1456 L375 1456 L375 788 L583 788 Q585 948 628.5 1075.5 Q672 1203 749.5 1292 Q827 1381 933.5 1428.5 Q1040 1476 1168 1476 Q1301 1476 1409.5 1427.5 Q1518 1379 1594.5 1288 Q1671 1197 1712.5 1066.5 Q1754 936 1754 773 L1754 681 ZM1563 775 Q1563 905 1536.5 1005 Q1510 1105 1459 1173 Q1408 1241 1334.5 1276 Q1261 1311 1168 1311 Q1079 1311 1006 1276 Q933 1241 881.5 1173 Q830 1105 802 1005 Q774 905 774 775 L774 681 Q774 550 802.5 450 Q831 350 883 281.5 Q935 213 1008 178 Q1081 143 1170 143 Q1264 143 1337 178 Q1410 213 1460.5 281.5 Q1511 350 1537 450 Q1563 550 1563 681 L1563 775 Z" /><glyph glyph-name="uni042F" unicode="&#x42f;" d="M931 0 L931 567 L595 567 L294 0 L89 0 L427 620 Q290 674 217.5 773 Q145 872 145 1017 Q145 1123 180.5 1204.5 Q216 1286 283 1342 Q350 1398 444.5 1427 Q539 1456 658 1456 L1124 1456 L1124 0 L931 0 ZM337 1017 Q337 954 357 900.5 Q377 847 416.5 807.5 Q456 768 515 746 Q574 724 652 724 L931 724 L931 1298 L658 1298 Q578 1298 517.5 1278.5 Q457 1259 417 1222 Q377 1185 357 1133 Q337 1081 337 1017 Z" /><glyph glyph-name="uni0431" unicode="&#x431;" d="M615 1020 Q721 1020 804 983 Q887 946 945 880 Q1003 814 1033.5 724.5 Q1064 635 1064 530 L1064 507 Q1064 394 1031.5 297.5 Q999 201 936.5 130.5 Q874 60 784.5 20 Q695 -20 581 -20 Q467 -20 377.5 20 Q288 60 225.5 130.5 Q163 201 130 297.5 Q97 394 97 507 L97 530 L97 537 L97 606 Q97 790 132.5 928 Q168 1066 232.5 1162 Q297 1258 387 1314 Q477 1370 586 1391 Q644 1401 690 1413 Q736 1425 768.5 1443 Q801 1461 818 1487.5 Q835 1514 835 1553 L987 1553 Q987 1455 956.5 1398 Q926 1341 875.5 1309 Q825 1277 759.5 1261.5 Q694 1246 625 1231 Q557 1216 496.5 1190 Q436 1164 388 1120 Q340 1076 306 1010 Q272 944 257 850 Q322 925 411.5 972.5 Q501 1020 615 1020 ZM579 868 Q503 868 447 840.5 Q391 813 354.5 766.5 Q318 720 300.5 658.5 Q283 597 283 530 L283 507 Q283 431 300.5 362.5 Q318 294 355 242.5 Q392 191 448 160.5 Q504 130 581 130 Q657 130 713.5 160.5 Q770 191 806.5 242.5 Q843 294 861 362.5 Q879 431 879 507 L879 530 Q879 597 861 658.5 Q843 720 806 766.5 Q769 813 712.5 840.5 Q656 868 579 868 Z" /><glyph glyph-name="uni0432" unicode="&#x432;" d="M157 0 L157 1082 L579 1082 Q682 1082 765 1064 Q848 1046 906 1009.5 Q964 973 995 917 Q1026 861 1026 785 Q1026 710 981 649.5 Q936 589 848 557 Q900 545 940.5 520.5 Q981 496 1009 463 Q1037 430 1051 390 Q1065 350 1065 307 Q1065 230 1036 172.5 Q1007 115 953 77 Q899 39 822 19.5 Q745 0 648 0 L157 0 ZM342 475 L342 149 L648 149 Q764 149 821.5 192 Q879 235 879 313 Q879 390 821.5 432.5 Q764 475 648 475 L342 475 ZM342 623 L581 623 Q841 623 841 775 Q841 932 579 932 L342 932 L342 623 Z" /><glyph glyph-name="uni0433" unicode="&#x433;" d="M839 929 L340 929 L340 0 L154 0 L154 1082 L839 1082 L839 929 Z" /><glyph glyph-name="uni0434" unicode="&#x434;" d="M131 151 Q164 190 194.5 231 Q225 272 250 330.5 Q275 389 293 472 Q311 555 319 676 L335 1082 L1032 1082 L1032 151 L1171 151 L1171 -318 L986 -318 L986 0 L231 0 L231 -318 L46 -318 L47 151 L131 151 ZM504 676 Q499 581 485.5 502.5 Q472 424 451.5 359.5 Q431 295 405 243.5 Q379 192 349 151 L847 151 L847 911 L514 911 L504 676 Z" /><glyph glyph-name="uni0436" unicode="&#x436;" d="M1003 470 L873 470 L873 0 L688 0 L688 470 L558 470 L255 0 L21 0 L408 560 L58 1082 L282 1082 L561 634 L688 634 L688 1082 L873 1082 L873 634 L999 634 L1280 1082 L1504 1082 L1153 559 L1540 0 L1306 0 L1003 470 Z" /><glyph glyph-name="uni0437" unicode="&#x437;" d="M530 630 Q588 630 627 641 Q666 652 690 672.5 Q714 693 724.5 722 Q735 751 735 786 Q735 818 723 847.5 Q711 877 685 900 Q659 923 618 937 Q577 951 518 951 Q470 951 428.5 938 Q387 925 356 901.5 Q325 878 307 847 Q289 816 289 780 L105 780 Q105 854 138 913.5 Q171 973 227.5 1014.5 Q284 1056 359 1078.5 Q434 1101 518 1101 Q612 1101 686.5 1080.5 Q761 1060 813 1020.5 Q865 981 892.5 922 Q920 863 920 787 Q920 714 876 653 Q832 592 751 556 Q845 524 892.5 461 Q940 398 940 304 Q940 227 909 167 Q878 107 822.5 66 Q767 25 689.5 3 Q612 -19 518 -19 Q439 -19 362 1 Q285 21 224 62 Q163 103 125.5 167 Q88 231 88 320 L272 320 Q272 282 290 247.5 Q308 213 340 186.5 Q372 160 417.5 144 Q463 128 518 128 Q576 128 620.5 142.5 Q665 157 694.5 181 Q724 205 739 237 Q754 269 754 304 Q754 395 699.5 434.5 Q645 474 530 474 L345 474 L345 630 L530 630 Z" /><glyph glyph-name="uni0438" unicode="&#x438;" d="M840 1082 L1025 1082 L1025 0 L840 0 L840 789 L341 0 L156 0 L156 1082 L341 1082 L341 292 L840 1082 Z" /><glyph glyph-name="uni043A" unicode="&#x43a;" d="M477 461 L342 461 L342 0 L156 0 L156 1082 L342 1082 L342 624 L463 624 L827 1082 L1051 1082 L623 562 L1087 0 L852 0 L477 461 Z" /><glyph glyph-name="uni043B" unicode="&#x43b;" d="M1027 1082 L1027 0 L841 0 L841 929 L474 929 L461 619 Q454 465 434.5 349 Q415 233 374 155.5 Q333 78 265 39 Q197 0 94 0 L40 0 L44 165 L84 166 Q138 166 172.5 191.5 Q207 217 228 271.5 Q249 326 259.5 412 Q270 498 276 619 L296 1082 L1027 1082 Z" /><glyph glyph-name="uni043C" unicode="&#x43c;" d="M763 245 L1131 1082 L1362 1082 L1362 0 L1177 0 L1177 787 L827 0 L699 0 L342 804 L342 0 L157 0 L157 1082 L397 1082 L763 245 Z" /><glyph glyph-name="uni043D" unicode="&#x43d;" d="M1024 0 L839 0 L839 462 L342 462 L342 0 L156 0 L156 1082 L342 1082 L342 613 L839 613 L839 1082 L1024 1082 L1024 0 Z" /><glyph glyph-name="uni043F" unicode="&#x43f;" d="M1025 0 L840 0 L840 929 L342 929 L342 0 L156 0 L156 1082 L1025 1082 L1025 0 Z" /><glyph glyph-name="uni0442" unicode="&#x442;" d="M944 932 L581 932 L581 0 L396 0 L396 932 L40 932 L40 1082 L944 1082 L944 932 Z" /><glyph glyph-name="uni0444" unicode="&#x444;" d="M100 521 Q100 649 125 755.5 Q150 862 199.5 939 Q249 1016 322.5 1059 Q396 1102 493 1102 Q578 1102 642 1073 L642 1536 L827 1536 L827 1067 Q861 1084 901.5 1093 Q942 1102 991 1102 Q1088 1102 1162 1059 Q1236 1016 1285.5 939 Q1335 862 1360 755.5 Q1385 649 1385 521 L1385 500 Q1385 386 1359.5 290 Q1334 194 1284.5 125 Q1235 56 1162 17.5 Q1089 -21 993 -21 Q896 -21 827 11 L827 -416 L642 -416 L642 8 Q610 -6 572.5 -13.5 Q535 -21 491 -21 Q396 -21 323 17.5 Q250 56 200.5 125 Q151 194 125.5 290 Q100 386 100 500 L100 521 ZM1200 521 Q1200 608 1185.5 686 Q1171 764 1139 822.5 Q1107 881 1057 915.5 Q1007 950 937 950 Q902 950 875 944.5 Q848 939 827 930 L827 147 Q848 139 876 134.5 Q904 130 939 130 Q1009 130 1058.5 159 Q1108 188 1139.5 238 Q1171 288 1185.5 355.5 Q1200 423 1200 500 L1200 521 ZM285 500 Q285 423 298 355.5 Q311 288 341 238 Q371 188 419 159 Q467 130 537 130 Q569 130 595 135 Q621 140 642 148 L642 933 Q622 941 596.5 945.5 Q571 950 539 950 Q468 950 419.5 915.5 Q371 881 341 822.5 Q311 764 298 686 Q285 608 285 521 L285 500 Z" /><glyph glyph-name="uni0446" unicode="&#x446;" d="M156 1082 L342 1082 L342 151 L840 151 L840 1082 L1025 1082 L1025 151 L1154 151 L1136 -321 L970 -321 L970 0 L156 0 L156 1082 Z" /><glyph glyph-name="uni0447" unicode="&#x447;" d="M957 0 L771 0 L771 392 Q714 377 653 368.5 Q592 360 521 360 Q425 360 347.5 384.5 Q270 409 216 459.5 Q162 510 132.5 586.5 Q103 663 103 767 L103 1083 L288 1083 L288 767 Q288 633 348 572.5 Q408 512 521 512 Q591 512 652.5 520.5 Q714 529 771 544 L771 1082 L957 1082 L957 0 Z" /><glyph glyph-name="uni0448" unicode="&#x448;" d="M342 1082 L342 151 L738 151 L738 1082 L923 1082 L923 151 L1318 151 L1318 1082 L1504 1082 L1504 0 L156 0 L156 1082 L342 1082 Z" /><glyph glyph-name="uni0449" unicode="&#x449;" d="M331 1082 L331 151 L727 151 L727 1082 L912 1082 L912 151 L1307 151 L1307 1082 L1493 1082 L1493 152 L1645 152 L1627 -321 L1462 -321 L1462 0 L145 0 L145 1082 L331 1082 Z" /><glyph glyph-name="uni044A" unicode="&#x44a;" d="M30 1082 L536 1082 L536 709 L811 709 Q910 709 985.5 682.5 Q1061 656 1112 609.5 Q1163 563 1189 498.5 Q1215 434 1215 358 Q1215 283 1189 217.5 Q1163 152 1112 104 Q1061 56 985.5 28 Q910 0 811 0 L351 0 L351 930 L30 930 L30 1082 ZM536 558 L536 151 L811 151 Q871 151 913 168 Q955 185 980.5 213 Q1006 241 1017.5 277 Q1029 313 1029 351 Q1029 387 1017.5 424 Q1006 461 980.5 491 Q955 521 913 539.5 Q871 558 811 558 L536 558 Z" /><glyph glyph-name="uni044B" unicode="&#x44b;" d="M342 709 L617 709 Q716 709 791.5 682.5 Q867 656 918 609.5 Q969 563 995 498.5 Q1021 434 1021 358 Q1021 283 995 217.5 Q969 152 918 104 Q867 56 791.5 28 Q716 0 617 0 L157 0 L157 1082 L342 1082 L342 709 ZM1407 0 L1221 0 L1221 1082 L1407 1082 L1407 0 ZM342 558 L342 151 L617 151 Q677 151 719 168 Q761 185 786.5 213 Q812 241 823.5 277 Q835 313 835 351 Q835 387 823.5 424 Q812 461 786.5 491 Q761 521 719 539.5 Q677 558 617 558 L342 558 Z" /><glyph glyph-name="uni044C" unicode="&#x44c;" d="M342 709 L617 709 Q716 709 791.5 682.5 Q867 656 918 609.5 Q969 563 995 498.5 Q1021 434 1021 358 Q1021 283 995 217.5 Q969 152 918 104 Q867 56 791.5 28 Q716 0 617 0 L157 0 L157 1082 L342 1082 L342 709 ZM342 558 L342 151 L617 151 Q677 151 719 168 Q761 185 786.5 213 Q812 241 823.5 277 Q835 313 835 351 Q835 387 823.5 424 Q812 461 786.5 491 Q761 521 719 539.5 Q677 558 617 558 L342 558 Z" /><glyph glyph-name="uni044D" unicode="&#x44d;" d="M520 950 Q474 950 430.5 934.5 Q387 919 352.5 890.5 Q318 862 297 823 Q276 784 276 738 L100 738 Q100 811 135 877 Q170 943 228.5 993 Q287 1043 362.5 1072.5 Q438 1102 520 1102 Q633 1102 721 1058.5 Q809 1015 869 941 Q929 867 960.5 769 Q992 671 992 562 L992 520 Q992 411 960.5 313 Q929 215 869 141 Q809 67 721 23.5 Q633 -20 520 -20 Q429 -20 352 10 Q275 40 219 92.5 Q163 145 131.5 216.5 Q100 288 100 371 L276 371 Q276 321 294.5 277 Q313 233 346 200.5 Q379 168 423.5 149 Q468 130 520 130 Q590 130 641.5 159.5 Q693 189 728 237 Q763 285 781.5 347 Q800 409 805 475 L399 475 L399 627 L803 627 Q797 690 777 748 Q757 806 722.5 851 Q688 896 637.5 923 Q587 950 520 950 Z" /><glyph glyph-name="uni044E" unicode="&#x44e;" d="M343 623 L601 623 Q611 727 649.5 815 Q688 903 751 966.5 Q814 1030 899.5 1066 Q985 1102 1089 1102 Q1204 1102 1295.5 1060 Q1387 1018 1451 944 Q1515 870 1549 769.5 Q1583 669 1583 551 L1583 529 Q1583 411 1549 310.5 Q1515 210 1451 136.5 Q1387 63 1296 21.5 Q1205 -20 1091 -20 Q984 -20 897 17 Q810 54 746.5 119.5 Q683 185 645.5 275 Q608 365 600 472 L343 472 L343 0 L157 0 L157 1082 L343 1082 L343 623 ZM784 529 Q784 448 803 376 Q822 304 860.5 249.5 Q899 195 956.5 163 Q1014 131 1091 131 Q1167 131 1225 163 Q1283 195 1321 249.5 Q1359 304 1378.5 376 Q1398 448 1398 529 L1398 551 Q1398 631 1378.5 703.5 Q1359 776 1320.5 830.5 Q1282 885 1224 917.5 Q1166 950 1089 950 Q1013 950 956 917.5 Q899 885 860.5 830.5 Q822 776 803 703.5 Q784 631 784 551 L784 529 Z" /><glyph glyph-name="uni044F" unicode="&#x44f;" d="M967 1082 L967 0 L781 0 L781 421 L502 421 L247 0 L47 0 L319 449 Q215 487 159.5 566.5 Q104 646 104 752 Q104 823 131.5 883.5 Q159 944 211.5 988 Q264 1032 340.5 1057 Q417 1082 515 1082 L967 1082 ZM290 750 Q290 717 301.5 685 Q313 653 337.5 628.5 Q362 604 400 588.5 Q438 573 492 573 L781 573 L781 932 L515 932 Q455 932 412.5 916 Q370 900 343 874.5 Q316 849 303 816 Q290 783 290 750 Z" /><glyph glyph-name="uni0452" unicode="&#x452;" d="M611 1209 L325 1209 L325 951 Q383 1022 464 1062 Q545 1102 645 1102 Q724 1102 788 1080.5 Q852 1059 897 1011.5 Q942 964 966.5 889.5 Q991 815 991 709 L991 454 L992 454 L992 -89 Q992 -173 970 -238 Q948 -303 906.5 -347.5 Q865 -392 805 -414.5 Q745 -437 670 -437 Q638 -437 611 -433.5 Q584 -430 555 -420 L570 -272 Q577 -275 591 -277.5 Q605 -280 620 -281.5 Q635 -283 648.5 -284 Q662 -285 670 -285 Q735 -285 770.5 -233.5 Q806 -182 806 -89 L806 711 Q806 774 792 818.5 Q778 863 750.5 891 Q723 919 682.5 932 Q642 945 589 945 Q499 945 431 897 Q363 849 325 771 L325 0 L140 0 L140 1209 L-25 1209 L-25 1360 L140 1360 L140 1536 L325 1536 L325 1360 L611 1360 L611 1209 Z" /><glyph glyph-name="uni0454" unicode="&#x454;" d="M585 131 Q634 131 679 147 Q724 163 758.5 191 Q793 219 814.5 257.5 Q836 296 840 341 L1015 341 Q1011 269 975.5 203.5 Q940 138 882 88.5 Q824 39 747.5 9.5 Q671 -20 585 -20 Q463 -20 372.5 23.5 Q282 67 222 141 Q162 215 132.5 313 Q103 411 103 520 L103 562 Q103 671 132.5 769 Q162 867 222 941 Q282 1015 372 1058.5 Q462 1102 584 1102 Q679 1102 756.5 1072 Q834 1042 890.5 989.5 Q947 937 979 865 Q1011 793 1015 710 L840 710 Q836 760 816.5 803.5 Q797 847 764 879.5 Q731 912 685.5 931 Q640 950 584 950 Q507 950 453 921.5 Q399 893 364.5 846.5 Q330 800 312 740 Q294 680 290 616 L695 616 L695 464 L290 464 Q294 399 311.5 339 Q329 279 363.5 233 Q398 187 452.5 159 Q507 131 585 131 Z" /><glyph glyph-name="uni0459" unicode="&#x459;" d="M991 1082 L991 670 L1266 670 Q1364 670 1439.5 645 Q1515 620 1566 575.5 Q1617 531 1643.5 470.5 Q1670 410 1670 338 Q1670 267 1643.5 205.5 Q1617 144 1566 98 Q1515 52 1439.5 26 Q1364 0 1266 0 L805 0 L805 929 L469 929 L469 619 Q469 465 449 349 Q429 233 384.5 155.5 Q340 78 268 39 Q196 0 93 0 L39 0 L42 155 L83 156 Q137 156 175 183 Q213 210 237.5 266.5 Q262 323 273 410.5 Q284 498 284 619 L284 1082 L991 1082 ZM991 518 L991 149 L1266 149 Q1326 149 1367.5 166 Q1409 183 1435 210.5 Q1461 238 1472.5 272 Q1484 306 1484 340 Q1484 373 1472.5 405 Q1461 437 1435 462 Q1409 487 1367.5 502.5 Q1326 518 1266 518 L991 518 Z" /><glyph glyph-name="uni045A" unicode="&#x45a;" d="M342 673 L839 673 L839 1082 L1024 1082 L1024 669 L1299 669 Q1398 669 1473.5 644 Q1549 619 1600 575 Q1651 531 1677 470.5 Q1703 410 1703 338 Q1703 267 1677 205.5 Q1651 144 1600 98 Q1549 52 1473.5 26 Q1398 0 1299 0 L839 0 L839 522 L342 522 L342 0 L156 0 L156 1082 L342 1082 L342 673 ZM1024 518 L1024 149 L1299 149 Q1359 149 1400.5 166 Q1442 183 1468 210.5 Q1494 238 1505.5 272 Q1517 306 1517 340 Q1517 373 1505.5 405 Q1494 437 1468 462 Q1442 487 1400.5 502.5 Q1359 518 1299 518 L1024 518 Z" /><glyph glyph-name="uni045B" unicode="&#x45b;" d="M633 1214 L325 1214 L325 951 Q383 1022 464 1062 Q545 1102 645 1102 Q724 1102 788 1080.5 Q852 1059 897 1011.5 Q942 964 966.5 889.5 Q991 815 991 709 L991 0 L806 0 L806 711 Q806 774 792 818.5 Q778 863 750.5 891 Q723 919 682.5 932 Q642 945 589 945 Q499 945 431 897 Q363 849 325 771 L325 0 L140 0 L140 1214 L-3 1214 L-3 1365 L140 1365 L140 1536 L325 1536 L325 1365 L633 1365 L633 1214 Z" /><glyph glyph-name="uni045F" unicode="&#x45f;" d="M342 1082 L342 151 L840 151 L840 1082 L1025 1082 L1025 0 L686 0 L686 -356 L501 -356 L501 0 L156 0 L156 1082 L342 1082 Z" /><glyph glyph-name="uni0460" unicode="&#x460;" d="M1653 1456 L1653 397 Q1653 292 1621.5 213.5 Q1590 135 1533.5 83 Q1477 31 1400 5.5 Q1323 -20 1233 -20 Q1124 -20 1038.5 23.5 Q953 67 904 156 Q852 67 763 23.5 Q674 -20 561 -20 Q474 -20 399.5 5.5 Q325 31 271 83 Q217 135 186.5 213.5 Q156 292 156 397 L156 1456 L349 1456 L349 397 Q349 331 365 282 Q381 233 409.5 200.5 Q438 168 476.5 152 Q515 136 561 136 Q614 136 659 152 Q704 168 736.5 200.5 Q769 233 787 282 Q805 331 805 397 L805 1456 L1004 1456 L1004 397 Q1004 331 1021 282 Q1038 233 1069 200.5 Q1100 168 1141.5 152 Q1183 136 1233 136 Q1282 136 1324 152 Q1366 168 1396.5 200.5 Q1427 233 1444 282 Q1461 331 1461 397 L1461 1456 L1653 1456 Z" /><glyph glyph-name="uni0461" unicode="&#x461;" d="M1453 1082 L1453 353 Q1453 258 1424.5 188 Q1396 118 1345.5 71.5 Q1295 25 1226.5 2 Q1158 -21 1077 -21 Q983 -21 909 15.5 Q835 52 790 127 Q742 52 664.5 15.5 Q587 -21 489 -21 Q411 -21 345 2 Q279 25 231 71.5 Q183 118 156 188 Q129 258 129 353 L129 1082 L314 1082 L314 353 Q314 297 327 255 Q340 213 363 185 Q386 157 418.5 143.5 Q451 130 489 130 Q534 130 572 143.5 Q610 157 638 185 Q666 213 682 255 Q698 297 698 353 L698 1082 L884 1082 L884 353 Q884 297 898.5 255 Q913 213 938.5 185 Q964 157 999.5 143.5 Q1035 130 1077 130 Q1118 130 1153 143.5 Q1188 157 1213.5 185 Q1239 213 1253.5 255 Q1268 297 1268 353 L1268 1082 L1453 1082 Z" /><glyph glyph-name="uni0463" unicode="&#x463;" d="M662 1082 L341 1082 L341 746 L615 746 Q714 746 789.5 718.5 Q865 691 916 641.5 Q967 592 993.5 524.5 Q1020 457 1020 377 Q1020 298 993.5 229 Q967 160 916 109 Q865 58 789.5 29 Q714 0 615 0 L155 0 L155 1082 L-36 1082 L-36 1233 L155 1233 L155 1558 L341 1558 L341 1233 L662 1233 L662 1082 ZM341 594 L341 151 L615 151 Q675 151 717 169.5 Q759 188 784.5 219 Q810 250 821.5 289 Q833 328 833 370 Q833 409 821.5 449 Q810 489 784.5 521.5 Q759 554 717 574 Q675 594 615 594 L341 594 Z" /><glyph glyph-name="uni0464" unicode="&#x464;" d="M376 833 L575 833 Q579 979 622 1098 Q665 1217 740.5 1301 Q816 1385 922.5 1431 Q1029 1477 1161 1477 Q1284 1477 1379 1441 Q1474 1405 1540.5 1340.5 Q1607 1276 1646 1186.5 Q1685 1097 1696 989 L1503 989 Q1492 1065 1469 1126 Q1446 1187 1405.5 1230 Q1365 1273 1305 1296 Q1245 1319 1161 1319 Q1067 1319 995.5 1284 Q924 1249 874.5 1185 Q825 1121 798 1031.5 Q771 942 768 833 L1310 833 L1310 681 L768 681 L768 655 Q768 548 790.5 454 Q813 360 859 289.5 Q905 219 976 178.5 Q1047 138 1144 138 Q1236 138 1299 160 Q1362 182 1403.5 223.5 Q1445 265 1468 325.5 Q1491 386 1503 463 L1696 463 Q1684 360 1645.5 271.5 Q1607 183 1539 118.5 Q1471 54 1373 17.5 Q1275 -19 1144 -19 Q1015 -19 910 29 Q805 77 730.5 165.5 Q656 254 615.5 378 Q575 502 575 655 L575 681 L376 681 L376 0 L184 0 L184 1456 L376 1456 L376 833 Z" /><glyph glyph-name="uni0465" unicode="&#x465;" d="M339 616 L531 616 Q538 716 571 804.5 Q604 893 663.5 959 Q723 1025 809.5 1063.5 Q896 1102 1010 1102 Q1105 1102 1182.5 1072 Q1260 1042 1316.5 989.5 Q1373 937 1405 865 Q1437 793 1441 710 L1266 710 Q1262 760 1242.5 803.5 Q1223 847 1190 879.5 Q1157 912 1111.5 931 Q1066 950 1010 950 Q933 950 879 921.5 Q825 893 790.5 846.5 Q756 800 738 740 Q720 680 716 616 L1154 616 L1154 464 L716 464 Q720 399 737.5 339 Q755 279 789.5 233 Q824 187 878.5 159 Q933 131 1011 131 Q1060 131 1105 147 Q1150 163 1184.5 191 Q1219 219 1240.5 257.5 Q1262 296 1266 341 L1441 341 Q1437 269 1401.5 203.5 Q1366 138 1308 88.5 Q1250 39 1173.5 9.5 Q1097 -20 1011 -20 Q897 -20 810 18 Q723 56 663.5 122 Q604 188 571 276 Q538 364 531 464 L339 464 L339 0 L153 0 L153 1082 L339 1082 L339 616 Z" /><glyph glyph-name="uni0466" unicode="&#x466;" d="M905 438 L735 438 L735 0 L547 0 L547 438 L389 438 L237 0 L40 0 L565 1456 L736 1456 L1252 0 L1055 0 L905 438 ZM446 602 L849 602 L650 1187 L446 602 Z" /><glyph glyph-name="uni0467" unicode="&#x467;" d="M749 297 L632 297 L632 0 L447 0 L447 297 L323 297 L204 0 L15 0 L457 1082 L616 1082 L1061 0 L871 0 L749 297 ZM384 449 L687 449 L559 764 L535 853 L511 764 L384 449 Z" /><glyph glyph-name="uni0468" unicode="&#x468;" d="M394 602 L786 602 L1094 1456 L1265 1456 L1781 0 L1584 0 L1434 438 L1264 438 L1264 0 L1076 0 L1076 438 L918 438 L766 0 L569 0 L728 441 L394 441 L394 0 L202 0 L202 1456 L394 1456 L394 602 ZM975 602 L1378 602 L1179 1187 L975 602 Z" /><glyph glyph-name="uni0469" unicode="&#x469;" d="M374 449 L645 449 L904 1082 L1063 1082 L1508 0 L1318 0 L1196 297 L1079 297 L1079 0 L894 0 L894 297 L770 297 L651 0 L462 0 L583 297 L374 297 L374 0 L188 0 L188 1082 L374 1082 L374 449 ZM831 449 L1134 449 L1006 764 L982 853 L958 764 L831 449 Z" /><glyph glyph-name="uni046A" unicode="&#x46a;" d="M502 1449 L502 1456 L1481 1456 L1089 810 L1114 810 Q1228 810 1318 786.5 Q1408 763 1470.5 710.5 Q1533 658 1566 574 Q1599 490 1599 369 L1599 0 L1406 0 L1406 369 Q1406 452 1388 506.5 Q1370 561 1334 593.5 Q1298 626 1243 639 Q1188 652 1114 652 L994 652 L973 617 L973 0 L780 0 L780 630 L767 652 L631 652 Q557 652 502.5 639 Q448 626 411.5 593.5 Q375 561 357 506.5 Q339 452 339 369 L339 0 L147 0 L147 369 Q147 490 180 574 Q213 658 275.5 710.5 Q338 763 427.5 786.5 Q517 810 631 810 L671 810 L279 1456 L498 1456 L502 1449 ZM872 810 L888 810 L1170 1298 L589 1298 L872 810 Z" /><glyph glyph-name="uni046B" unicode="&#x46b;" d="M150 0 L150 164 Q150 281 178.5 363 Q207 445 260.5 497.5 Q314 550 391 575 Q468 600 566 603 L279 1082 L1238 1082 L950 603 Q1045 598 1120 572 Q1195 546 1247.5 493.5 Q1300 441 1327.5 359.5 Q1355 278 1355 164 L1355 0 L1169 0 L1169 164 Q1169 248 1153 303.5 Q1137 359 1105 392 Q1073 425 1024.5 438.5 Q976 452 910 452 L859 452 L848 433 L848 0 L663 0 L663 443 L657 452 L595 452 Q529 452 480.5 438.5 Q432 425 399.5 392 Q367 359 351.5 303.5 Q336 248 336 164 L336 0 L150 0 ZM754 604 L762 604 L945 930 L572 930 L754 604 Z" /><glyph glyph-name="uni046C" unicode="&#x46c;" d="M710 0 L710 369 Q710 465 730.5 537 Q751 609 791 661 L375 661 L375 0 L183 0 L183 1456 L375 1456 L375 812 L1233 812 L842 1456 L1061 1456 L1065 1449 L1065 1456 L2044 1456 L1652 810 L1677 810 Q1791 810 1881 786.5 Q1971 763 2033.5 710.5 Q2096 658 2129 574 Q2162 490 2162 369 L2162 0 L1969 0 L1969 369 Q1969 452 1951 506.5 Q1933 561 1897 593.5 Q1861 626 1806 639 Q1751 652 1677 652 L1557 652 L1536 617 L1536 0 L1343 0 L1343 630 L1330 652 L1194 652 Q1120 652 1065.5 639 Q1011 626 974.5 593.5 Q938 561 920 506.5 Q902 452 902 369 L902 0 L710 0 ZM1435 810 L1451 810 L1733 1298 L1152 1298 L1435 810 Z" /><glyph glyph-name="uni046D" unicode="&#x46d;" d="M646 0 L646 164 Q646 259 664.5 330 Q683 401 719 453 L341 453 L341 0 L155 0 L155 1082 L341 1082 L341 604 L1062 604 L775 1082 L1734 1082 L1446 603 Q1541 598 1616 572 Q1691 546 1743.5 493.5 Q1796 441 1823.5 359.5 Q1851 278 1851 164 L1851 0 L1665 0 L1665 164 Q1665 248 1649 303.5 Q1633 359 1601 392 Q1569 425 1520.5 438.5 Q1472 452 1406 452 L1355 452 L1344 433 L1344 0 L1159 0 L1159 443 L1153 452 L1091 452 Q1025 452 976.5 438.5 Q928 425 895.5 392 Q863 359 847.5 303.5 Q832 248 832 164 L832 0 L646 0 ZM1250 604 L1258 604 L1441 930 L1068 930 L1250 604 Z" /><glyph glyph-name="uni046E" unicode="&#x46e;" d="M418 823 Q501 823 560.5 840.5 Q620 858 657.5 890.5 Q695 923 712.5 968 Q730 1013 730 1067 Q730 1116 712.5 1159 Q695 1202 659 1234 Q623 1266 568 1285 Q513 1304 438 1304 L132 1304 L132 1456 L438 1456 Q542 1456 630 1429 Q718 1402 781.5 1351.5 Q845 1301 880.5 1228 Q916 1155 916 1063 Q916 1012 899 965 Q882 918 850.5 878 Q819 838 773.5 805.5 Q728 773 670 751 Q801 710 869.5 623.5 Q938 537 938 406 Q938 304 902 225 Q866 146 801.5 92 Q737 38 649 9.5 Q561 -19 458 -19 L405 -19 Q324 -19 290 -50.5 Q256 -82 256 -132 Q256 -172 273 -202 Q290 -232 314.5 -254.5 Q339 -277 367 -292.5 Q395 -308 417 -318 L343 -442 Q297 -423 250.5 -393 Q204 -363 166.5 -323.5 Q129 -284 105 -233.5 Q81 -183 80 -123 Q80 -57 103 -9 Q126 39 169 70.5 Q212 102 274 117 Q336 132 413 132 L458 132 Q527 132 582 152 Q637 172 675 208 Q713 244 733 293.5 Q753 343 753 402 Q753 539 667.5 605.5 Q582 672 418 672 L277 672 L277 823 L418 823 ZM543 1756 L693 1926 L853 1926 L853 1916 L599 1642 L486 1642 L235 1916 L235 1926 L392 1926 L543 1756 Z" /><glyph glyph-name="uni046F" unicode="&#x46f;" d="M410 617 Q482 617 533 628.5 Q584 640 616.5 661 Q649 682 664 711.5 Q679 741 679 777 Q679 808 664 836 Q649 864 618 884.5 Q587 905 540.5 917 Q494 929 430 929 L129 929 L129 1082 L430 1082 Q524 1082 604 1061 Q684 1040 742 1000 Q800 960 832.5 902.5 Q865 845 865 773 Q865 699 814 640 Q763 581 672 545 Q777 513 832 452.5 Q887 392 887 304 Q887 227 854 167 Q821 107 762.5 66 Q704 25 623.5 3 Q543 -19 449 -19 L401 -19 Q320 -19 286 -50.5 Q252 -82 252 -132 Q252 -172 269 -202 Q286 -232 310.5 -254.5 Q335 -277 363 -292.5 Q391 -308 413 -318 L339 -442 Q293 -423 246.5 -393 Q200 -363 162.5 -323.5 Q125 -284 101 -233.5 Q77 -183 76 -123 Q76 -57 99 -9 Q122 39 165 70.5 Q208 102 269.5 117 Q331 132 408 132 L449 132 Q508 132 555 144.5 Q602 157 634.5 179.5 Q667 202 684 232.5 Q701 263 701 300 Q701 385 627 425.5 Q553 466 410 466 L269 466 L269 617 L410 617 ZM462 1414 L612 1584 L772 1584 L772 1574 L518 1300 L405 1300 L154 1574 L154 1584 L311 1584 L462 1414 Z" /><glyph glyph-name="uni0472" unicode="&#x472;" d="M1274 681 Q1274 517 1232.5 387.5 Q1191 258 1115 167 Q1039 76 931 28 Q823 -20 690 -20 Q561 -20 453 28 Q345 76 267 167 Q189 258 146 387.5 Q103 517 103 681 L103 773 Q103 936 146 1066.5 Q189 1197 266 1288 Q343 1379 451 1427.5 Q559 1476 688 1476 Q821 1476 929.5 1427.5 Q1038 1379 1114.5 1288 Q1191 1197 1232.5 1066.5 Q1274 936 1274 773 L1274 681 ZM688 1311 Q600 1311 528.5 1277.5 Q457 1244 405.5 1178.5 Q354 1113 325 1016.5 Q296 920 294 795 L1082 795 Q1080 920 1052.5 1016.5 Q1025 1113 974.5 1178.5 Q924 1244 851.5 1277.5 Q779 1311 688 1311 ZM690 143 Q872 143 973 271 Q1074 399 1082 643 L294 643 Q298 521 328 428 Q358 335 410 271.5 Q462 208 533 175.5 Q604 143 690 143 Z" /><glyph glyph-name="uni0473" unicode="&#x473;" d="M91 551 Q91 669 125.5 769.5 Q160 870 223.5 944 Q287 1018 378 1060 Q469 1102 582 1102 Q697 1102 788.5 1060 Q880 1018 944 944 Q1008 870 1042 769.5 Q1076 669 1076 551 L1076 529 Q1076 411 1042 310.5 Q1008 210 944 136.5 Q880 63 789 21.5 Q698 -20 584 -20 Q470 -20 379 21.5 Q288 63 224 136.5 Q160 210 125.5 310.5 Q91 411 91 529 L91 551 ZM584 131 Q653 131 707 157.5 Q761 184 799 230 Q837 276 859.5 338 Q882 400 888 471 L279 471 Q285 400 307.5 338 Q330 276 368 230 Q406 184 460 157.5 Q514 131 584 131 ZM582 950 Q514 950 461.5 924 Q409 898 371.5 853.5 Q334 809 311 749.5 Q288 690 281 622 L887 622 Q879 690 856 749.5 Q833 809 795 853.5 Q757 898 703.5 924 Q650 950 582 950 Z" /><glyph glyph-name="uni0474" unicode="&#x474;" d="M579 374 L612 244 L647 373 L904 1182 Q929 1260 957 1316 Q985 1372 1020.5 1407 Q1056 1442 1099.5 1458.5 Q1143 1475 1199 1475 L1245 1474 L1244 1303 L1231 1303 Q1206 1303 1185.5 1296 Q1165 1289 1147.5 1272.5 Q1130 1256 1115 1228 Q1100 1200 1085 1159 L697 0 L527 0 L22 1456 L230 1456 L579 374 Z" /><glyph glyph-name="uni0475" unicode="&#x475;" d="M475 316 L498 216 L523 316 L680 859 Q701 925 728.5 971 Q756 1017 788 1046 Q820 1075 855.5 1088 Q891 1101 929 1101 Q958 1101 984 1097.5 Q1010 1094 1035 1077 L1014 929 Q1009 932 997.5 934.5 Q986 937 972 937 Q941 937 911 913 Q881 889 865 844 L568 0 L427 0 L46 1082 L235 1082 L475 316 Z" /><glyph glyph-name="uni047A" unicode="&#x47a;" d="M790 1203 L605 1203 L605 1589 L790 1589 L790 1203 ZM790 -141 L605 -141 L605 254 L790 254 L790 -141 ZM1274 681 Q1274 517 1232.5 387.5 Q1191 258 1115 167 Q1039 76 931 28 Q823 -20 690 -20 Q561 -20 453 28 Q345 76 267 167 Q189 258 146 387.5 Q103 517 103 681 L103 773 Q103 936 146 1066.5 Q189 1197 266 1288 Q343 1379 451 1427.5 Q559 1476 688 1476 Q821 1476 929.5 1427.5 Q1038 1379 1114.5 1288 Q1191 1197 1232.5 1066.5 Q1274 936 1274 773 L1274 681 ZM1083 775 Q1083 905 1056.5 1005 Q1030 1105 979 1173 Q928 1241 854.5 1276 Q781 1311 688 1311 Q599 1311 526 1276 Q453 1241 401.5 1173 Q350 1105 322 1005 Q294 905 294 775 L294 681 Q294 550 322.5 450 Q351 350 403 281.5 Q455 213 528 178 Q601 143 690 143 Q784 143 857 178 Q930 213 980.5 281.5 Q1031 350 1057 450 Q1083 550 1083 681 L1083 775 Z" /><glyph glyph-name="uni047B" unicode="&#x47b;" d="M673 838 L488 838 L488 1206 L673 1206 L673 838 ZM673 -119 L488 -119 L488 248 L673 248 L673 -119 ZM91 551 Q91 669 125.5 769.5 Q160 870 223.5 944 Q287 1018 378 1060 Q469 1102 582 1102 Q697 1102 788.5 1060 Q880 1018 944 944 Q1008 870 1042 769.5 Q1076 669 1076 551 L1076 529 Q1076 411 1042 310.5 Q1008 210 944 136.5 Q880 63 789 21.5 Q698 -20 584 -20 Q470 -20 379 21.5 Q288 63 224 136.5 Q160 210 125.5 310.5 Q91 411 91 529 L91 551 ZM277 529 Q277 448 296 376 Q315 304 353.5 249.5 Q392 195 449.5 163 Q507 131 584 131 Q660 131 718 163 Q776 195 814 249.5 Q852 304 871.5 376 Q891 448 891 529 L891 551 Q891 631 871.5 703.5 Q852 776 813.5 830.5 Q775 885 717 917.5 Q659 950 582 950 Q506 950 449 917.5 Q392 885 353.5 830.5 Q315 776 296 703.5 Q277 631 277 551 L277 529 Z" /><glyph glyph-name="uni047C" unicode="&#x47c;" d="M1243 1455 Q1330 1455 1404 1427 Q1478 1399 1532 1342.5 Q1586 1286 1616.5 1201 Q1647 1116 1647 1002 L1647 431 Q1647 317 1616.5 232.5 Q1586 148 1532 91.5 Q1478 35 1404 7 Q1330 -21 1243 -21 Q1131 -21 1042 21.5 Q953 64 901 152 Q849 64 761 21.5 Q673 -21 561 -21 Q474 -21 399.5 7 Q325 35 271 91.5 Q217 148 186.5 232.5 Q156 317 156 431 L156 1002 Q156 1116 186.5 1201 Q217 1286 271 1342.5 Q325 1399 399.5 1427 Q474 1455 561 1455 L561 1297 Q515 1297 476.5 1279 Q438 1261 409.5 1224 Q381 1187 365 1132 Q349 1077 349 1002 L349 431 Q349 356 365 300.5 Q381 245 409.5 208.5 Q438 172 476.5 154 Q515 136 561 136 Q614 136 659 152 Q704 168 736.5 200.5 Q769 233 787 282 Q805 331 805 397 L805 825 L998 825 L998 397 Q998 331 1016.5 282 Q1035 233 1067.5 200.5 Q1100 168 1145 152 Q1190 136 1243 136 Q1289 136 1327.5 154 Q1366 172 1394 208.5 Q1422 245 1438 300.5 Q1454 356 1454 431 L1454 1002 Q1454 1077 1438 1132 Q1422 1187 1394 1224 Q1366 1261 1327.5 1279 Q1289 1297 1243 1297 L1243 1455 ZM1347 1747 L1347 1620 L1304 1620 Q1217 1620 1149.5 1639.5 Q1082 1659 1027 1683 Q972 1707 925.5 1726.5 Q879 1746 834 1746 Q782 1746 751.5 1719.5 Q721 1693 721 1637 L721 1619 L593 1619 L593 1655 Q593 1765 656.5 1819 Q720 1873 830 1873 Q890 1873 942 1853.5 Q994 1834 1049 1810 Q1104 1786 1165.5 1766.5 Q1227 1747 1307 1747 L1347 1747 ZM791 1379 Q824 1419 842 1454.5 Q860 1490 860 1528 L860 1624 L1017 1624 L1017 1522 Q1017 1493 1002.5 1463 Q988 1433 966 1406.5 Q944 1380 917.5 1358 Q891 1336 867 1323 L791 1379 Z" /><glyph glyph-name="uni047D" unicode="&#x47d;" d="M1090 1092 Q1168 1092 1234 1066.5 Q1300 1041 1348 989.5 Q1396 938 1423 860.5 Q1450 783 1450 680 L1450 390 Q1450 286 1423 209 Q1396 132 1348 81 Q1300 30 1234 4.5 Q1168 -21 1090 -21 Q991 -21 913 16 Q835 53 787 128 Q740 53 662 16 Q584 -21 486 -21 Q408 -21 342 4.5 Q276 30 228 81 Q180 132 153 209 Q126 286 126 390 L126 680 Q126 783 153 860.5 Q180 938 228 989.5 Q276 1041 342 1066.5 Q408 1092 486 1092 L486 940 Q448 940 415.5 924 Q383 908 360 876 Q337 844 324 795 Q311 746 311 680 L311 390 Q311 324 324 275 Q337 226 360 194 Q383 162 415.5 146 Q448 130 486 130 Q531 130 569 143.5 Q607 157 635 185 Q663 213 679 255 Q695 297 695 353 L695 588 L880 588 L880 353 Q880 297 896 255 Q912 213 940.5 185 Q969 157 1007 143.5 Q1045 130 1090 130 Q1128 130 1160 146 Q1192 162 1215 194 Q1238 226 1251 275 Q1264 324 1264 390 L1264 680 Q1264 746 1251 795 Q1238 844 1215 876 Q1192 908 1160 924 Q1128 940 1090 940 L1090 1092 ZM1260 1395 L1260 1268 L1216 1268 Q1129 1268 1061.5 1287.5 Q994 1307 939 1330.5 Q884 1354 837.5 1373.5 Q791 1393 747 1393 Q695 1393 664 1367 Q633 1341 633 1285 L633 1267 L505 1267 L505 1303 Q505 1413 568.5 1467 Q632 1521 743 1521 Q803 1521 855 1501.5 Q907 1482 961 1458 Q1015 1434 1077 1414.5 Q1139 1395 1219 1395 L1260 1395 ZM703 1017 Q736 1057 753.5 1092.5 Q771 1128 771 1167 L771 1262 L929 1262 L929 1160 Q929 1131 914.5 1101 Q900 1071 878 1044.5 Q856 1018 829.5 996 Q803 974 779 961 L703 1017 Z" /><glyph glyph-name="uni047E" unicode="&#x47e;" d="M504 1688 L504 1796 L1315 1796 L1316 1688 L985 1688 L985 1563 L817 1563 L817 1688 L504 1688 ZM1653 1456 L1653 397 Q1653 292 1621.5 213.5 Q1590 135 1533.5 83 Q1477 31 1400 5.5 Q1323 -20 1233 -20 Q1124 -20 1038.5 23.5 Q953 67 904 156 Q852 67 763 23.5 Q674 -20 561 -20 Q474 -20 399.5 5.5 Q325 31 271 83 Q217 135 186.5 213.5 Q156 292 156 397 L156 1456 L349 1456 L349 397 Q349 331 365 282 Q381 233 409.5 200.5 Q438 168 476.5 152 Q515 136 561 136 Q614 136 659 152 Q704 168 736.5 200.5 Q769 233 787 282 Q805 331 805 397 L805 1456 L1004 1456 L1004 397 Q1004 331 1021 282 Q1038 233 1069 200.5 Q1100 168 1141.5 152 Q1183 136 1233 136 Q1282 136 1324 152 Q1366 168 1396.5 200.5 Q1427 233 1444 282 Q1461 331 1461 397 L1461 1456 L1653 1456 Z" /><glyph glyph-name="uni047F" unicode="&#x47f;" d="M392 1349 L392 1457 L1203 1457 L1206 1349 L873 1349 L873 1222 L705 1222 L705 1349 L392 1349 ZM1453 1082 L1453 353 Q1453 258 1424.5 188 Q1396 118 1345.5 71.5 Q1295 25 1226.5 2 Q1158 -21 1077 -21 Q983 -21 909 15.5 Q835 52 790 127 Q742 52 664.5 15.5 Q587 -21 489 -21 Q411 -21 345 2 Q279 25 231 71.5 Q183 118 156 188 Q129 258 129 353 L129 1082 L314 1082 L314 353 Q314 297 327 255 Q340 213 363 185 Q386 157 418.5 143.5 Q451 130 489 130 Q534 130 572 143.5 Q610 157 638 185 Q666 213 682 255 Q698 297 698 353 L698 1082 L884 1082 L884 353 Q884 297 898.5 255 Q913 213 938.5 185 Q964 157 999.5 143.5 Q1035 130 1077 130 Q1118 130 1153 143.5 Q1188 157 1213.5 185 Q1239 213 1253.5 255 Q1268 297 1268 353 L1268 1082 L1453 1082 Z" /><glyph glyph-name="uni0480" unicode="&#x480;" d="M788 -380 L597 -380 L597 -16 Q489 -2 400.5 49.5 Q312 101 249 182.5 Q186 264 151.5 371 Q117 478 117 603 L117 853 Q117 988 157.5 1102 Q198 1216 271.5 1299.5 Q345 1383 447.5 1430 Q550 1477 675 1477 Q798 1477 897 1443 Q996 1409 1065.5 1345.5 Q1135 1282 1173 1191.5 Q1211 1101 1212 989 L1019 989 Q1018 1065 995.5 1126.5 Q973 1188 929.5 1230.5 Q886 1273 822.5 1296 Q759 1319 675 1319 Q590 1319 522.5 1282.5 Q455 1246 407.5 1183 Q360 1120 335 1035.5 Q310 951 310 855 L310 603 Q310 505 335 420 Q360 335 407 272 Q454 209 521 172.5 Q588 136 673 136 L788 136 L788 -380 Z" /><glyph glyph-name="uni0481" unicode="&#x481;" d="M674 -382 L489 -382 L489 -14 Q395 2 322.5 50.5 Q250 99 200.5 170.5 Q151 242 125.5 331.5 Q100 421 100 520 L100 562 Q100 671 131.5 769 Q163 867 223.5 941 Q284 1015 372 1058.5 Q460 1102 573 1102 Q664 1102 740.5 1072 Q817 1042 873 989 Q929 936 960.5 864.5 Q992 793 992 709 L817 709 Q817 759 798 803 Q779 847 746 879.5 Q713 912 668.5 931 Q624 950 573 950 Q497 950 442.5 916 Q388 882 353 826.5 Q318 771 301.5 701.5 Q285 632 285 562 L285 520 Q285 448 301.5 378.5 Q318 309 352.5 253.5 Q387 198 441.5 164 Q496 130 573 130 L674 130 L674 -382 Z" /><glyph glyph-name="uni0482" unicode="&#x482;" d="M600 446 L889 274 L821 151 L530 321 L348 0 L180 0 L405 398 L116 569 L184 692 L477 521 L682 886 L392 1057 L462 1182 L753 1011 L941 1342 L1106 1342 L875 934 L1168 763 L1096 641 L808 811 L600 446 Z" /><glyph glyph-name="uni0483" unicode="&#x483;" d="M-755 1315 L-755 1190 L-921 1191 L-920 1424 L-381 1424 L-382 1532 L-217 1531 L-217 1315 L-755 1315 Z" /><glyph glyph-name="uni0484" unicode="&#x484;" d="M-869 1430 Q-790 1430 -728 1450 Q-666 1470 -612 1493.5 Q-558 1517 -506 1537 Q-454 1557 -394 1557 Q-283 1557 -219.5 1503 Q-156 1449 -156 1339 L-156 1303 L-284 1303 L-284 1321 Q-284 1376 -315 1402.5 Q-346 1429 -398 1429 Q-442 1429 -488.5 1409.5 Q-535 1390 -590 1366.5 Q-645 1343 -712.5 1323.5 Q-780 1304 -867 1304 L-911 1304 L-911 1430 L-869 1430 Z" /><glyph glyph-name="uni0485" unicode="&#x485;" d="M-666 1500 L-666 1623 L-487 1623 L-487 1483 L-428 1367 L-505 1302 L-666 1500 Z" /><glyph glyph-name="uni0486" unicode="&#x486;" d="M-527 1302 L-604 1367 L-545 1483 L-546 1623 L-365 1623 L-365 1500 L-527 1302 Z" /><glyph glyph-name="uni0488" unicode="&#x488;" d="M-646 1267 Q-646 1308 -631.5 1342.5 Q-617 1377 -590 1402 Q-563 1427 -524 1441 Q-485 1455 -436 1455 Q-387 1455 -348 1441 Q-309 1427 -281.5 1402 Q-254 1377 -239.5 1342.5 Q-225 1308 -225 1267 L-337 1267 Q-337 1287 -342.5 1305 Q-348 1323 -359.5 1337 Q-371 1351 -390 1359.5 Q-409 1368 -436 1368 Q-463 1368 -481.5 1359.5 Q-500 1351 -511.5 1337 Q-523 1323 -528 1305 Q-533 1287 -533 1267 L-646 1267 ZM-55 990 Q-55 1031 -40.5 1065.5 Q-26 1100 1 1125 Q28 1150 67 1164 Q106 1178 154 1178 Q203 1178 242.5 1164 Q282 1150 309.5 1125 Q337 1100 351.5 1065.5 Q366 1031 366 990 L253 990 Q253 1010 248 1028 Q243 1046 231 1060 Q219 1074 200 1082.5 Q181 1091 154 1091 Q128 1091 109.5 1082.5 Q91 1074 79.5 1060 Q68 1046 63 1028 Q58 1010 58 990 L-55 990 ZM131 487 Q131 528 145.5 562.5 Q160 597 187.5 622 Q215 647 254 661 Q293 675 341 675 Q390 675 429 661 Q468 647 495.5 622 Q523 597 537.5 562.5 Q552 528 552 487 L440 487 Q440 507 435 525 Q430 543 418 557 Q406 571 387 579.5 Q368 588 341 588 Q315 588 296.5 579.5 Q278 571 266.5 557 Q255 543 249.5 525 Q244 507 244 487 L131 487 ZM-65 -32 Q-65 9 -50.5 43.5 Q-36 78 -9 103 Q18 128 57 142 Q96 156 144 156 Q193 156 232 142 Q271 128 298.5 103 Q326 78 340.5 43.5 Q355 9 355 -32 L243 -32 Q243 -12 238 6 Q233 24 221 38 Q209 52 190 60.5 Q171 69 144 69 Q118 69 99.5 60.5 Q81 52 69.5 38 Q58 24 52.5 6 Q47 -12 47 -32 L-65 -32 ZM-641 -316 Q-641 -275 -626.5 -240.5 Q-612 -206 -585 -181 Q-558 -156 -519 -142 Q-480 -128 -431 -128 Q-382 -128 -343 -142 Q-304 -156 -276.5 -181 Q-249 -206 -234.5 -240.5 Q-220 -275 -220 -316 L-332 -316 Q-332 -296 -337.5 -278 Q-343 -260 -354.5 -246 Q-366 -232 -385 -223.5 Q-404 -215 -431 -215 Q-457 -215 -475.5 -223.5 Q-494 -232 -505.5 -246 Q-517 -260 -522.5 -278 Q-528 -296 -528 -316 L-641 -316 ZM-1219 990 Q-1219 1031 -1204.5 1065.5 Q-1190 1100 -1162.5 1125 Q-1135 1150 -1096 1164 Q-1057 1178 -1008 1178 Q-959 1178 -920 1164 Q-881 1150 -853.5 1125 Q-826 1100 -811.5 1065.5 Q-797 1031 -797 990 L-909 990 Q-909 1010 -914.5 1028 Q-920 1046 -931.5 1060 Q-943 1074 -962 1082.5 Q-981 1091 -1008 1091 Q-1035 1091 -1053.5 1082.5 Q-1072 1074 -1083.5 1060 Q-1095 1046 -1100 1028 Q-1105 1010 -1105 990 L-1219 990 ZM-1395 487 Q-1395 528 -1380.5 562.5 Q-1366 597 -1338.5 622 Q-1311 647 -1272 661 Q-1233 675 -1185 675 Q-1136 675 -1097 661 Q-1058 647 -1030.5 622 Q-1003 597 -988.5 562.5 Q-974 528 -974 487 L-1086 487 Q-1086 507 -1091 525 Q-1096 543 -1108 557 Q-1120 571 -1139 579.5 Q-1158 588 -1185 588 Q-1211 588 -1229.5 579.5 Q-1248 571 -1259.5 557 Q-1271 543 -1276.5 525 Q-1282 507 -1282 487 L-1395 487 ZM-1229 -32 Q-1229 9 -1214.5 43.5 Q-1200 78 -1172.5 103 Q-1145 128 -1106 142 Q-1067 156 -1019 156 Q-970 156 -930.5 142 Q-891 128 -863.5 103 Q-836 78 -821.5 43.5 Q-807 9 -807 -32 L-920 -32 Q-920 -12 -925 6 Q-930 24 -942 38 Q-954 52 -973 60.5 Q-992 69 -1019 69 Q-1045 69 -1063.5 60.5 Q-1082 52 -1093.5 38 Q-1105 24 -1110 6 Q-1115 -12 -1115 -32 L-1229 -32 Z" /><glyph glyph-name="uni0489" unicode="&#x489;" d="M-345 -60 L-334 -74 L-456 -413 L-552 -413 L-482 -60 L-345 -60 ZM-540 1126 L-552 1140 L-430 1478 L-334 1478 L-404 1126 L-540 1126 ZM137 631 L150 643 L483 519 L483 421 L137 492 L137 631 ZM-1026 433 L-1039 421 L-1372 545 L-1372 643 L-1026 572 L-1026 433 ZM-102 1002 L-100 1018 L220 1171 L288 1103 L-5 903 L-102 1002 ZM-786 21 L-788 4 L-1108 -149 L-1177 -80 L-883 120 L-786 21 ZM-926 860 L-943 862 L-1091 1188 L-1026 1257 L-828 958 L-926 860 ZM35 161 L52 159 L201 -166 L135 -237 L-61 62 L35 161 Z" /><glyph glyph-name="uni048D" unicode="&#x48d;" d="M662 1304 L341 1304 L341 746 L615 746 Q714 746 789.5 718.5 Q865 691 916 641.5 Q967 592 993.5 524.5 Q1020 457 1020 377 Q1020 298 993.5 229 Q967 160 916 109 Q865 58 789.5 29 Q714 0 615 0 L155 0 L155 1304 L-36 1304 L-36 1456 L155 1456 L155 1649 L341 1649 L341 1456 L662 1456 L662 1304 ZM341 594 L341 151 L615 151 Q675 151 717 169.5 Q759 188 784.5 219 Q810 250 821.5 289 Q833 328 833 370 Q833 409 821.5 449 Q810 489 784.5 521.5 Q759 554 717 574 Q675 594 615 594 L341 594 Z" /><glyph glyph-name="uni048E" unicode="&#x48e;" d="M1240 575 L1130 473 L763 877 L872 980 L1240 575 ZM360 570 L360 0 L168 0 L168 1456 L705 1456 Q829 1456 924 1423 Q1019 1390 1083.5 1330.5 Q1148 1271 1181.5 1189.5 Q1215 1108 1215 1011 Q1215 906 1181.5 823.5 Q1148 741 1083.5 685 Q1019 629 924 599.5 Q829 570 705 570 L360 570 ZM360 727 L705 727 Q789 727 849.5 748 Q910 769 948.5 806.5 Q987 844 1005 895.5 Q1023 947 1023 1009 Q1023 1065 1005 1117.5 Q987 1170 948.5 1210 Q910 1250 849.5 1274 Q789 1298 705 1298 L360 1298 L360 727 Z" /><glyph glyph-name="uni048F" unicode="&#x48f;" d="M1059 15 L949 -88 L619 286 L729 389 L1059 15 ZM1054 529 Q1054 410 1026 309.5 Q998 209 944.5 135.5 Q891 62 813 21 Q735 -20 635 -20 Q533 -20 456.5 12 Q380 44 325 105 L325 -416 L140 -416 L140 1082 L309 1082 L318 962 Q373 1030 451 1066 Q529 1102 632 1102 Q734 1102 812.5 1062 Q891 1022 945 949.5 Q999 877 1026.5 775.5 Q1054 674 1054 550 L1054 529 ZM869 550 Q869 631 852 702.5 Q835 774 799 828 Q763 882 708 913.5 Q653 945 577 945 Q530 945 491.5 934 Q453 923 422 903 Q391 883 367 855.5 Q343 828 325 796 L325 279 Q343 247 367 219.5 Q391 192 422 172.5 Q453 153 492 142 Q531 131 579 131 Q654 131 708.5 163 Q763 195 799 249 Q835 303 852 375.5 Q869 448 869 529 L869 550 Z" /><glyph glyph-name="uni0490" unicode="&#x490;" d="M1059 1304 L1057 1304 L1057 1298 L355 1298 L355 0 L162 0 L162 1456 L874 1456 L874 1792 L1059 1792 L1059 1304 Z" /><glyph glyph-name="uni0491" unicode="&#x491;" d="M835 929 L331 929 L331 0 L145 0 L145 1082 L649 1082 L649 1399 L835 1399 L835 929 Z" /><glyph glyph-name="uni0494" unicode="&#x494;" d="M1072 1298 L370 1298 L370 833 L551 833 Q692 833 802.5 794 Q913 755 990 680.5 Q1067 606 1107.5 499 Q1148 392 1148 256 Q1148 126 1117.5 24.5 Q1087 -77 1027.5 -146.5 Q968 -216 879.5 -252.5 Q791 -289 675 -289 L673 -142 Q753 -142 808.5 -113.5 Q864 -85 898 -33 Q932 19 947 92.5 Q962 166 962 256 Q961 459 859 565 Q757 671 551 671 L370 671 L370 0 L177 0 L177 1456 L1072 1456 L1072 1298 Z" /><glyph glyph-name="uni0495" unicode="&#x495;" d="M830 929 L331 929 L331 646 L447 646 Q558 646 651.5 614 Q745 582 813 521 Q881 460 919.5 371.5 Q958 283 958 170 Q958 133 949 89 Q940 45 921 -1.5 Q902 -48 872 -93 Q842 -138 799.5 -176 Q757 -214 701 -242.5 Q645 -271 574 -284 L525 -138 Q595 -120 643 -89.5 Q691 -59 720 -19 Q749 21 761 69 Q773 117 773 170 Q773 246 748.5 304.5 Q724 363 681 403 Q638 443 578.5 463.5 Q519 484 447 484 L331 484 L331 0 L145 0 L145 1082 L830 1082 L830 929 Z" /><glyph glyph-name="uni049C" unicode="&#x49c;" d="M1234 1456 L834 766 L1279 0 L1038 0 L688 654 L608 654 L608 410 L460 410 L460 654 L356 654 L356 0 L163 0 L163 1456 L356 1456 L356 815 L460 815 L460 1071 L608 1071 L608 815 L685 815 L1008 1456 L1234 1456 Z" /><glyph glyph-name="uni049D" unicode="&#x49d;" d="M1114 1082 L776 568 L1151 0 L916 0 L639 461 L589 461 L589 267 L441 267 L441 461 L340 461 L340 0 L154 0 L154 1082 L340 1082 L340 624 L441 624 L441 837 L589 837 L589 624 L631 624 L890 1082 L1114 1082 Z" /><glyph glyph-name="uni04A0" unicode="&#x4a0;" d="M912 654 L735 654 L735 0 L543 0 L543 1304 L69 1304 L69 1456 L735 1456 L735 814 L885 814 L1394 1456 L1633 1456 L1077 750 L1674 0 L1439 0 L912 654 Z" /><glyph glyph-name="uni04A1" unicode="&#x4a1;" d="M794 461 L659 461 L659 0 L473 0 L473 930 L62 930 L62 1082 L659 1082 L659 624 L780 624 L1144 1082 L1368 1082 L940 562 L1404 0 L1169 0 L794 461 Z" /><glyph glyph-name="uni04A4" unicode="&#x4a4;" d="M360 830 L1094 830 L1094 1456 L1924 1456 L1924 1304 L1287 1304 L1287 0 L1094 0 L1094 673 L360 673 L360 0 L168 0 L168 1456 L360 1456 L360 830 Z" /><glyph glyph-name="uni04A5" unicode="&#x4a5;" d="M331 613 L828 613 L828 1082 L1386 1082 L1386 929 L1013 929 L1013 0 L828 0 L828 462 L331 462 L331 0 L145 0 L145 1082 L331 1082 L331 613 Z" /><glyph glyph-name="uni04A6" unicode="&#x4a6;" d="M1279 833 L1400 833 Q1541 833 1651.5 794 Q1762 755 1839 680.5 Q1916 606 1956.5 499 Q1997 392 1997 256 Q1997 126 1966.5 24.5 Q1936 -77 1876.5 -146.5 Q1817 -216 1728.5 -252.5 Q1640 -289 1524 -289 L1522 -142 Q1602 -142 1657.5 -113.5 Q1713 -85 1747 -33 Q1781 19 1796 92.5 Q1811 166 1811 256 Q1810 459 1708 565 Q1606 671 1400 671 L1279 671 L1279 0 L1086 0 L1086 1298 L368 1298 L368 0 L176 0 L176 1456 L1279 1456 L1279 833 Z" /><glyph glyph-name="uni04A7" unicode="&#x4a7;" d="M1014 646 L1182 646 Q1297 646 1394.5 614 Q1492 582 1562.5 521 Q1633 460 1672.5 371.5 Q1712 283 1712 170 Q1712 133 1703 89 Q1694 45 1675 -1.5 Q1656 -48 1626 -93 Q1596 -138 1553 -176 Q1510 -214 1454 -242.5 Q1398 -271 1327 -284 L1279 -138 Q1349 -120 1397 -89.5 Q1445 -59 1473.5 -19 Q1502 21 1514.5 69 Q1527 117 1527 170 Q1527 246 1501.5 304.5 Q1476 363 1430 403 Q1384 443 1321 463.5 Q1258 484 1182 484 L1014 484 L1014 0 L829 0 L829 929 L331 929 L331 0 L145 0 L145 1082 L1014 1082 L1014 646 Z" /><glyph glyph-name="uni04A8" unicode="&#x4a8;" d="M1442 -28 Q1331 -28 1232.5 -9 Q1134 10 1048 45 Q979 13 900.5 -4 Q822 -21 734 -21 Q594 -21 479.5 32.5 Q365 86 283.5 180 Q202 274 157.5 401 Q113 528 113 675 L113 847 Q113 980 146 1095 Q179 1210 239.5 1295 Q300 1380 384.5 1428.5 Q469 1477 572 1477 L573 1312 Q511 1312 461.5 1276.5 Q412 1241 377.5 1179 Q343 1117 325 1032.5 Q307 948 307 849 L307 675 Q307 561 336.5 463.5 Q366 366 421.5 294.5 Q477 223 556 182.5 Q635 142 734 142 Q804 142 860 155 Q739 252 673 390.5 Q607 529 607 699 L607 926 Q607 1042 636.5 1142.5 Q666 1243 720 1316.5 Q774 1390 849.5 1432 Q925 1474 1018 1474 Q1110 1474 1186 1433 Q1262 1392 1316 1319 Q1370 1246 1400 1144.5 Q1430 1043 1430 922 L1430 678 Q1430 520 1374.5 387 Q1319 254 1217 159 Q1321 133 1442 133 L1442 -28 ZM799 697 Q799 545 859 426.5 Q919 308 1036 234 Q1134 306 1186 421.5 Q1238 537 1238 678 L1238 927 Q1238 1012 1223 1083 Q1208 1154 1179.5 1204 Q1151 1254 1110.5 1282 Q1070 1310 1018 1310 Q967 1310 926.5 1281 Q886 1252 857.5 1201 Q829 1150 814 1080 Q799 1010 799 928 L799 697 Z" /><glyph glyph-name="uni04A9" unicode="&#x4a9;" d="M1180 -12 Q1089 -12 1010 2.5 Q931 17 862 45 Q805 13 740 -4 Q675 -21 601 -21 Q491 -21 400 24 Q309 69 244.5 148.5 Q180 228 144.5 336 Q109 444 109 569 L109 627 Q109 729 134.5 815.5 Q160 902 206.5 966 Q253 1030 317.5 1066 Q382 1102 461 1102 L461 944 Q423 944 392.5 920.5 Q362 897 340 855 Q318 813 306.5 755 Q295 697 295 629 L295 569 Q295 477 316 397.5 Q337 318 376.5 260 Q416 202 472.5 169 Q529 136 601 136 Q647 136 691 147 Q597 226 547.5 335 Q498 444 498 572 L498 676 Q498 770 520 848.5 Q542 927 583 983.5 Q624 1040 682.5 1071.5 Q741 1103 814 1103 Q887 1103 946 1068.5 Q1005 1034 1046.5 974 Q1088 914 1110 832 Q1132 750 1132 655 L1132 550 Q1132 436 1098.5 338.5 Q1065 241 1004 166 Q1083 145 1180 145 L1180 -12 ZM683 570 Q683 464 723.5 380.5 Q764 297 842 240 Q893 297 920 376 Q947 455 947 550 L947 658 Q947 718 938.5 770.5 Q930 823 913 862 Q896 901 871 923.5 Q846 946 814 946 Q782 946 757.5 926 Q733 906 716.5 870.5 Q700 835 691.5 786 Q683 737 683 678 L683 570 Z" /><glyph glyph-name="uni04B4" unicode="&#x4b4;" d="M427 1304 L52 1304 L52 1456 L1005 1456 L1005 1304 L620 1304 L620 157 L1338 157 L1338 1456 L1530 1456 L1530 161 L1683 161 L1665 -351 L1492 -351 L1492 0 L427 0 L427 1304 Z" /><glyph glyph-name="uni04B5" unicode="&#x4b5;" d="M305 931 L31 931 L31 1083 L739 1083 L739 931 L491 931 L491 151 L989 151 L989 1082 L1174 1082 L1174 151 L1303 151 L1285 -321 L1119 -321 L1119 0 L305 0 L305 931 Z" /><glyph glyph-name="uni04B8" unicode="&#x4b8;" d="M791 318 L642 318 L642 1019 L791 1019 L791 318 ZM1224 1456 L1224 0 L1031 0 L1031 603 Q989 591 946 581 Q903 571 856.5 564 Q810 557 757.5 553.5 Q705 550 644 550 Q528 550 436 574.5 Q344 599 280.5 652.5 Q217 706 183.5 792 Q150 878 150 1001 L150 1456 L343 1456 L343 1001 Q343 916 362 859.5 Q381 803 418.5 769.5 Q456 736 512.5 722 Q569 708 644 708 Q749 708 844.5 722.5 Q940 737 1031 762 L1031 1456 L1224 1456 Z" /><glyph glyph-name="uni04B9" unicode="&#x4b9;" d="M646 229 L497 229 L497 795 L646 795 L646 229 ZM985 0 L799 0 L799 392 Q742 377 681 368.5 Q620 360 549 360 Q453 360 375.5 384.5 Q298 409 244 459.5 Q190 510 160.5 586.5 Q131 663 131 767 L131 1083 L316 1083 L316 767 Q316 633 376 572.5 Q436 512 549 512 Q619 512 680.5 520.5 Q742 529 799 544 L799 1082 L985 1082 L985 0 Z" /><glyph glyph-name="uni04BA" unicode="&#x4ba;" d="M138 0 L138 1456 L331 1456 L331 853 Q373 865 416 875 Q459 885 505.5 891.5 Q552 898 604.5 902 Q657 906 718 906 Q834 906 926 881.5 Q1018 857 1081.5 803.5 Q1145 750 1178.5 664 Q1212 578 1212 455 L1212 0 L1019 0 L1019 455 Q1019 540 1000 596.5 Q981 653 943.5 686.5 Q906 720 849.5 734 Q793 748 718 748 Q613 748 517.5 733 Q422 718 331 693 L331 0 L138 0 Z" /><glyph glyph-name="uni04BC" unicode="&#x4bc;" d="M1001 -22 Q851 -22 736 24 Q621 70 542 153 Q463 236 422.5 351 Q382 466 382 603 L382 703 Q303 713 243 744 Q183 775 143 824 Q103 873 83 938 Q63 1003 63 1081 L215 1081 Q215 991 255 928.5 Q295 866 382 846 L382 851 Q382 988 424.5 1103 Q467 1218 541 1300.5 Q615 1383 714 1429 Q813 1475 927 1475 Q1061 1475 1162.5 1428 Q1264 1381 1332 1294.5 Q1400 1208 1434.5 1085 Q1469 962 1469 809 L1469 696 L575 696 L575 603 Q575 506 599 421 Q623 336 674.5 272.5 Q726 209 806.5 172.5 Q887 136 1001 136 Q1062 136 1113.5 144 Q1165 152 1207.5 164 Q1250 176 1284 190.5 Q1318 205 1346 219 L1393 76 Q1376 64 1343.5 47.5 Q1311 31 1262.5 15.5 Q1214 0 1149 -11 Q1084 -22 1001 -22 ZM575 836 L1277 836 L1277 869 Q1277 962 1258.5 1043.5 Q1240 1125 1199 1185 Q1158 1245 1091 1280 Q1024 1315 927 1315 Q843 1315 777.5 1278.5 Q712 1242 667 1179 Q622 1116 598.5 1031.5 Q575 947 575 851 L575 836 Z" /><glyph glyph-name="uni04BD" unicode="&#x4bd;" d="M701 -20 Q588 -20 496.5 19 Q405 58 340 127.5 Q275 197 240 293 Q205 389 205 503 L205 519 Q85 548 25 635.5 Q-35 723 -35 857 L114 857 Q114 788 138 738 Q162 688 214 662 Q230 767 274.5 849 Q319 931 381.5 987.5 Q444 1044 520.5 1073 Q597 1102 678 1102 Q794 1102 878 1061.5 Q962 1021 1016.5 950 Q1071 879 1097 782 Q1123 685 1123 571 L1123 488 L390 488 Q392 413 414.5 348 Q437 283 478.5 235 Q520 187 578.5 159 Q637 131 711 131 Q809 131 877 171 Q945 211 996 277 L1109 189 Q1083 149 1046 111.5 Q1009 74 959.5 44.5 Q910 15 846 -2.5 Q782 -20 701 -20 ZM678 950 Q622 950 575 929.5 Q528 909 491 870 Q454 831 429.5 773 Q405 715 396 640 L938 640 L938 654 Q935 708 920.5 761 Q906 814 875.5 856 Q845 898 797 924 Q749 950 678 950 Z" /><glyph glyph-name="uni04C3" unicode="&#x4c3;" d="M356 0 L163 0 L163 1456 L356 1456 L356 831 L489 831 L1002 1456 L1228 1456 L708 824 Q830 813 926 770 Q1022 727 1088.5 653.5 Q1155 580 1190 478.5 Q1225 377 1225 250 Q1225 123 1195 21.5 Q1165 -80 1105 -151 Q1045 -222 955 -260 Q865 -298 746 -298 L744 -146 Q825 -146 880.5 -117 Q936 -88 969.5 -36 Q1003 16 1017.5 88.5 Q1032 161 1032 248 Q1030 451 929.5 556 Q829 661 628 661 L356 661 L356 0 Z" /><glyph glyph-name="uni04C4" unicode="&#x4c4;" d="M639 612 Q728 598 802 564.5 Q876 531 929 476.5 Q982 422 1011 346.5 Q1040 271 1040 175 Q1040 139 1031 97 Q1022 55 1003 10.5 Q984 -34 954 -76.5 Q924 -119 881.5 -155.5 Q839 -192 783 -219 Q727 -246 656 -258 L608 -112 Q678 -96 725.5 -67.5 Q773 -39 802 -1.5 Q831 36 843.5 80.5 Q856 125 856 175 Q856 251 830.5 305.5 Q805 360 759 394.5 Q713 429 650 445 Q587 461 511 461 L340 461 L340 0 L154 0 L154 1082 L340 1082 L340 624 L431 624 L825 1082 L1049 1082 L639 612 Z" /><glyph glyph-name="uni04C7" unicode="&#x4c7;" d="M370 1456 L370 798 L1086 798 L1086 1456 L1278 1456 L1278 -84 Q1278 -170 1255.5 -235.5 Q1233 -301 1191 -346 Q1149 -391 1088 -414 Q1027 -437 951 -437 Q920 -437 893.5 -433 Q867 -429 837 -419 L851 -265 Q859 -268 872.5 -270.5 Q886 -273 900.5 -275 Q915 -277 928 -278 Q941 -279 949 -279 Q1014 -279 1050 -227.5 Q1086 -176 1086 -84 L1086 641 L370 641 L370 0 L177 0 L177 1456 L370 1456 Z" /><glyph glyph-name="uni04C8" unicode="&#x4c8;" d="M331 1082 L331 613 L828 613 L828 1082 L1013 1082 L1013 -89 Q1013 -259 927.5 -348 Q842 -437 690 -437 Q660 -437 633.5 -433 Q607 -429 578 -419 L593 -272 Q600 -275 614 -277.5 Q628 -280 642.5 -281.5 Q657 -283 670 -284 Q683 -285 690 -285 Q756 -285 792 -233 Q828 -181 828 -89 L828 462 L331 462 L331 0 L145 0 L145 1082 L331 1082 Z" /><glyph glyph-name="uni04D8" unicode="&#x4d8;" d="M640 1476 Q799 1476 921.5 1424 Q1044 1372 1128 1279 Q1212 1186 1255 1057 Q1298 928 1298 774 L1298 680 Q1298 525 1251 396 Q1204 267 1122.5 174.5 Q1041 82 931.5 31 Q822 -20 697 -20 Q548 -20 435.5 26.5 Q323 73 246.5 159 Q170 245 131.5 368 Q93 491 93 643 L93 767 L1105 767 L1105 774 Q1105 886 1079 985 Q1053 1084 996.5 1157.5 Q940 1231 852 1273.5 Q764 1316 640 1316 Q575 1316 521 1308 Q467 1300 422 1287.5 Q377 1275 341 1260 Q305 1245 275 1232 L228 1375 Q246 1387 280 1404 Q314 1421 365 1437 Q416 1453 484.5 1464.5 Q553 1476 640 1476 ZM697 138 Q788 138 860 175 Q932 212 984 276.5 Q1036 341 1066 429 Q1096 517 1103 618 L286 618 L286 584 Q286 491 307.5 409.5 Q329 328 378 267.5 Q427 207 505 172.5 Q583 138 697 138 Z" /><glyph glyph-name="uni04E0" unicode="&#x4e0;" d="M797 1298 L147 1298 L147 1456 L1022 1456 L1023 1331 L618 849 Q725 842 809 809.5 Q893 777 950.5 720.5 Q1008 664 1038 585 Q1068 506 1068 406 Q1068 304 1031 224.5 Q994 145 928.5 90.5 Q863 36 772.5 7.5 Q682 -21 575 -21 Q488 -21 404 3.5 Q320 28 253 79.5 Q186 131 145 211.5 Q104 292 104 404 L296 404 Q296 349 316 300 Q336 251 372.5 214.5 Q409 178 460.5 157 Q512 136 575 136 Q647 136 702.5 156 Q758 176 796.5 211.5 Q835 247 855 295.5 Q875 344 875 402 Q875 559 792 630 Q709 701 551 701 L410 701 L410 852 L797 1298 Z" /><glyph glyph-name="uni04E1" unicode="&#x4e1;" d="M780 929 L148 929 L148 1082 L1017 1082 L1018 964 L620 469 Q726 461 808.5 428.5 Q891 396 948 340.5 Q1005 285 1034.5 207.5 Q1064 130 1064 31 Q1064 -70 1027.5 -149.5 Q991 -229 925.5 -283.5 Q860 -338 770 -366.5 Q680 -395 574 -395 Q488 -395 404 -370.5 Q320 -346 253.5 -294 Q187 -242 146 -162 Q105 -82 105 29 L291 29 Q291 -27 311.5 -76 Q332 -125 369 -162.5 Q406 -200 458 -221.5 Q510 -243 574 -243 Q647 -243 703.5 -223 Q760 -203 799 -167 Q838 -131 858.5 -81.5 Q879 -32 879 27 Q879 106 857 162.5 Q835 219 793 255 Q751 291 689.5 308 Q628 325 549 325 L408 325 L408 476 L780 929 Z" /><glyph glyph-name="uni0500" unicode="&#x500;" d="M931 883 L931 1456 L1125 1456 L1125 0 L580 0 Q460 0 368 33.5 Q276 67 213.5 126.5 Q151 186 119 267.5 Q87 349 87 445 Q87 542 119 622.5 Q151 703 213.5 761 Q276 819 368 851 Q460 883 580 883 L931 883 ZM931 157 L931 725 L580 725 Q500 725 443 702 Q386 679 349.5 640.5 Q313 602 296 552 Q279 502 279 447 Q279 392 296 339.5 Q313 287 349.5 246.5 Q386 206 443 181.5 Q500 157 580 157 L931 157 Z" /><glyph glyph-name="uni0502" unicode="&#x502;" d="M583 0 Q463 0 371 33.5 Q279 67 216.5 126.5 Q154 186 121.5 267.5 Q89 349 89 445 Q89 542 121.5 622.5 Q154 703 216.5 761 Q279 819 371 851 Q463 883 583 883 L935 883 L935 1456 L1128 1456 L1128 155 L1216 156 Q1327 158 1384 231 Q1441 304 1444 427 Q1446 505 1430 591.5 Q1414 678 1384 756 L1570 756 Q1583 717 1595.5 676 Q1608 635 1617.5 593 Q1627 551 1632 509 Q1637 467 1636 427 Q1634 320 1599.5 240 Q1565 160 1508 106.5 Q1451 53 1375.5 26.5 Q1300 0 1216 0 L583 0 ZM935 157 L935 725 L583 725 Q503 725 446 702 Q389 679 353 640.5 Q317 602 300 552 Q283 502 283 447 Q283 392 300 339.5 Q317 287 353 246.5 Q389 206 446 181.5 Q503 157 583 157 L935 157 Z" /><glyph glyph-name="uni0503" unicode="&#x503;" d="M100 521 Q100 649 128 755.5 Q156 862 209.5 939 Q263 1016 341.5 1059 Q420 1102 522 1102 Q617 1102 688.5 1068 Q760 1034 811 971 L811 1560 L996 1560 L996 345 Q995 297 1007 257.5 Q1019 218 1041.5 189.5 Q1064 161 1096 145.5 Q1128 130 1167 130 Q1237 131 1291 159 Q1345 187 1381.5 238.5 Q1418 290 1437.5 363.5 Q1457 437 1459 529 Q1461 629 1444.5 730 Q1428 831 1398 931 L1577 932 Q1604 834 1625 733 Q1646 632 1644 529 Q1642 390 1603 286.5 Q1564 183 1499 115 Q1434 47 1348 13 Q1262 -21 1167 -21 Q1050 -23 969 20 Q888 63 847 161 Q795 73 714.5 26 Q634 -21 520 -21 Q420 -21 342 17.5 Q264 56 210 125 Q156 194 128 290 Q100 386 100 500 L100 521 ZM811 811 Q775 870 716 907.5 Q657 945 568 945 Q492 945 438.5 911.5 Q385 878 351 820.5 Q317 763 301 685.5 Q285 608 285 521 L285 500 Q285 423 301 356.5 Q317 290 350.5 241 Q384 192 437.5 164 Q491 136 566 136 Q613 136 651 147 Q689 158 719.5 177.5 Q750 197 774 224 Q798 251 816 283 Q814 297 813 312.5 Q812 328 811 345 L811 811 Z" /><glyph glyph-name="uni0504" unicode="&#x504;" d="M703 371 Q703 429 685.5 477.5 Q668 526 635.5 560.5 Q603 595 556 614 Q509 633 449 633 L254 633 L254 791 L398 791 Q483 791 543.5 807 Q604 823 642 855 Q680 887 697.5 935 Q715 983 715 1047 Q715 1104 698 1150 Q681 1196 644.5 1229 Q608 1262 550.5 1280 Q493 1298 412 1298 L54 1298 L54 1456 L412 1456 Q654 1456 781 1351.5 Q908 1247 908 1045 Q908 930 847.5 846.5 Q787 763 671 715 Q734 695 777 661.5 Q820 628 846 584 Q872 540 883.5 486.5 Q895 433 895 373 L895 304 Q895 267 905 236.5 Q915 206 934.5 183.5 Q954 161 981.5 148.5 Q1009 136 1043 136 Q1104 137 1150.5 165.5 Q1197 194 1229 245.5 Q1261 297 1278 369 Q1295 441 1297 529 Q1299 629 1282.5 730.5 Q1266 832 1236 932 L1422 932 Q1435 883 1447.5 833.5 Q1460 784 1470 733.5 Q1480 683 1485.5 631.5 Q1491 580 1490 529 Q1488 391 1451.5 288 Q1415 185 1353.5 116 Q1292 47 1211.5 13 Q1131 -21 1041 -21 Q965 -23 904 -5 Q843 13 799.5 52.5 Q756 92 731.5 154.5 Q707 217 703 304 L703 371 Z" /><glyph glyph-name="uni0505" unicode="&#x505;" d="M743 213 Q742 173 761.5 149 Q781 125 836 125 Q948 127 1007 204.5 Q1066 282 1069 419 Q1071 497 1054.5 578.5 Q1038 660 1007 738 L1187 738 Q1200 699 1212.5 659.5 Q1225 620 1235 580 Q1245 540 1250.5 499.5 Q1256 459 1255 419 Q1253 306 1218 222.5 Q1183 139 1125.5 84 Q1068 29 993 1.5 Q918 -26 836 -26 Q701 -29 632.5 27 Q564 83 557 214 L557 289 Q557 362 503.5 402 Q450 442 347 442 L136 442 L134 592 L321 592 Q446 592 502 636 Q558 680 558 754 Q558 793 544 825.5 Q530 858 501 881.5 Q472 905 426 918.5 Q380 932 317 932 L55 932 L49 1082 L317 1082 Q419 1082 499 1060 Q579 1038 633.5 997 Q688 956 716.5 896 Q745 836 745 760 Q745 679 697 622 Q649 565 557 529 Q609 514 644.5 490.5 Q680 467 702 436.5 Q724 406 733.5 369 Q743 332 743 290 L743 213 L743 213 Z" /><glyph glyph-name="uni0506" unicode="&#x506;" d="M176 633 L176 785 L338 785 Q427 785 489 802 Q551 819 589.5 852 Q628 885 645.5 933 Q663 981 663 1044 Q663 1104 646 1152 Q629 1200 592 1233.5 Q555 1267 497 1285.5 Q439 1304 358 1304 L83 1304 L83 1456 L358 1456 Q597 1456 722.5 1351 Q848 1246 848 1042 Q848 929 789.5 846 Q731 763 618 714 Q681 694 724.5 661 Q768 628 794.5 583.5 Q821 539 832.5 485.5 Q844 432 844 371 L844 235 Q844 172 859 117 Q874 62 912 25 L912 0 L722 0 Q699 21 686.5 53 Q674 85 668 119.5 Q662 154 660.5 185.5 Q659 217 659 237 L659 369 Q659 428 641 477 Q623 526 588.5 560.5 Q554 595 505 614 Q456 633 395 633 L176 633 ZM1013 64 Q1013 19 1001.5 -30 Q990 -79 967.5 -127 Q945 -175 913 -219 Q881 -263 839 -297 L734 -225 Q781 -159 806.5 -89.5 Q832 -20 832 61 L832 212 L1013 212 L1013 64 Z" /><glyph glyph-name="uni0507" unicode="&#x507;" d="M194 441 L194 591 L406 591 Q535 591 590.5 635 Q646 679 646 755 Q646 794 632.5 826.5 Q619 859 590.5 882.5 Q562 906 516 919 Q470 932 406 932 L121 932 L121 1082 L406 1082 Q508 1082 587.5 1060.5 Q667 1039 721 997.5 Q775 956 803.5 896.5 Q832 837 832 761 Q832 678 784 620.5 Q736 563 642 528 Q695 513 731 487.5 Q767 462 789.5 428.5 Q812 395 821.5 354.5 Q831 314 831 269 L831 172 Q831 154 833.5 132.5 Q836 111 843 90 Q850 69 861.5 50 Q873 31 891 19 L891 0 L700 0 Q680 13 669 37.5 Q658 62 653 88 Q648 114 647 137.5 Q646 161 646 173 L646 268 Q646 349 592.5 395 Q539 441 435 441 L194 441 ZM984 48 Q984 3 972.5 -46 Q961 -95 938.5 -143 Q916 -191 884 -235 Q852 -279 810 -313 L705 -241 Q752 -175 777.5 -105.5 Q803 -36 803 45 L803 196 L984 196 L984 48 Z" /><glyph glyph-name="uni0508" unicode="&#x508;" d="M1063 1298 L583 1298 L583 768 Q583 574 558.5 429.5 Q534 285 479 189.5 Q424 94 336 47 Q248 0 121 0 L68 0 L68 157 L109 157 Q184 157 237.5 191.5 Q291 226 325.5 300 Q360 374 376 489.5 Q392 605 392 768 L392 1456 L1257 1456 L1257 346 Q1257 299 1268 260.5 Q1279 222 1301 194.5 Q1323 167 1354.5 151.5 Q1386 136 1425 136 Q1493 137 1545.5 164.5 Q1598 192 1634 243 Q1670 294 1689 366.5 Q1708 439 1710 529 Q1711 629 1695 730 Q1679 831 1649 931 L1835 932 Q1862 834 1883 733 Q1904 632 1902 529 Q1900 390 1861 286.5 Q1822 183 1756.5 115 Q1691 47 1605.5 13 Q1520 -21 1425 -21 Q1343 -23 1278 -2.5 Q1213 18 1167 62.5 Q1121 107 1094.5 177 Q1068 247 1063 346 L1063 1298 Z" /><glyph glyph-name="uni0509" unicode="&#x509;" d="M817 929 L494 929 L494 622 Q494 468 474 351.5 Q454 235 409.5 157 Q365 79 294 39.5 Q223 0 120 0 L63 0 L66 165 L108 166 Q162 166 200.5 192 Q239 218 263 273.5 Q287 329 298 415.5 Q309 502 309 622 L309 1082 L1002 1082 L1002 345 Q1002 297 1013.5 257.5 Q1025 218 1047 189.5 Q1069 161 1100.5 145.5 Q1132 130 1171 130 Q1227 131 1270.5 156 Q1314 181 1343.5 227 Q1373 273 1388.5 338 Q1404 403 1406 484 Q1408 579 1391.5 675 Q1375 771 1345 865 L1524 865 Q1537 819 1549.5 772 Q1562 725 1571.5 677 Q1581 629 1586.5 580.5 Q1592 532 1591 484 Q1589 356 1554.5 261 Q1520 166 1462.5 103.5 Q1405 41 1329.5 10 Q1254 -21 1171 -21 Q1091 -23 1027.5 -2.5 Q964 18 918.5 62.5 Q873 107 847 177 Q821 247 817 345 L817 929 Z" /><glyph glyph-name="uni050A" unicode="&#x50a;" d="M1257 1456 L1257 346 Q1257 299 1268 260.5 Q1279 222 1301 194.5 Q1323 167 1354 151.5 Q1385 136 1424 136 Q1493 137 1545.5 164.5 Q1598 192 1634 243 Q1670 294 1689 366.5 Q1708 439 1710 529 Q1712 629 1695 730 Q1678 831 1648 931 L1835 932 Q1862 834 1883.5 733 Q1905 632 1903 529 Q1901 390 1861.5 286.5 Q1822 183 1757 115 Q1692 47 1606 13 Q1520 -21 1424 -21 Q1343 -23 1278 -2.5 Q1213 18 1167 62.5 Q1121 107 1094.5 177 Q1068 247 1064 346 L1064 641 L362 641 L362 0 L169 0 L169 1456 L362 1456 L362 798 L1064 798 L1064 1456 L1257 1456 Z" /><glyph glyph-name="uni050B" unicode="&#x50b;" d="M835 461 L329 461 L329 0 L144 0 L144 1082 L329 1082 L329 612 L835 612 L835 1082 L1020 1082 L1020 345 Q1020 297 1031.5 257.5 Q1043 218 1065 189.5 Q1087 161 1118.5 145.5 Q1150 130 1189 130 Q1245 131 1288.5 156 Q1332 181 1362 227 Q1392 273 1407.5 338 Q1423 403 1425 484 Q1427 579 1410 675 Q1393 771 1364 865 L1542 865 Q1555 819 1567.5 772 Q1580 725 1590 677 Q1600 629 1605.5 580.5 Q1611 532 1610 484 Q1608 356 1573.5 261 Q1539 166 1481.5 103.5 Q1424 41 1348.5 10 Q1273 -21 1189 -21 Q1109 -23 1045.5 -2.5 Q982 18 936.5 62.5 Q891 107 865 177 Q839 247 835 345 L835 461 Z" /><glyph glyph-name="uni050C" unicode="&#x50c;" d="M697 -21 Q568 -21 461 26 Q354 73 278 155.5 Q202 238 160 351 Q118 464 118 597 L118 859 Q118 992 160 1105 Q202 1218 278 1300.5 Q354 1383 461 1430 Q568 1477 697 1477 Q812 1477 899 1454.5 Q986 1432 1052 1389 L993 1251 Q928 1284 856.5 1301.5 Q785 1319 697 1319 Q606 1319 534 1282.5 Q462 1246 412.5 1184 Q363 1122 336.5 1038.5 Q310 955 310 861 L310 597 Q310 502 336.5 418 Q363 334 412.5 271.5 Q462 209 534 172.5 Q606 136 697 136 Q838 138 913 214.5 Q988 291 991 425 Q993 515 978.5 606 Q964 697 941 786 L1127 786 Q1146 698 1165 607 Q1184 516 1183 425 Q1181 312 1141 228.5 Q1101 145 1034 89.5 Q967 34 880 6.5 Q793 -21 697 -21 Z" /><glyph glyph-name="uni050D" unicode="&#x50d;" d="M593 130 Q646 131 681.5 143 Q717 155 739 177 Q761 199 770.5 230.5 Q780 262 781 301 Q781 358 776 419 Q771 480 761 537 L939 537 Q950 479 958.5 419.5 Q967 360 966 301 Q964 219 935.5 158.5 Q907 98 857.5 58 Q808 18 740 -1.5 Q672 -21 593 -21 Q474 -21 382.5 23 Q291 67 228.5 141.5 Q166 216 133.5 314 Q101 412 101 520 L101 562 Q101 670 132.5 768 Q164 866 224 940 Q284 1014 371.5 1058 Q459 1102 572 1102 Q669 1102 738.5 1084.5 Q808 1067 853 1036 L809 892 Q763 919 702.5 934.5 Q642 950 572 950 Q496 950 442 915.5 Q388 881 353.5 825.5 Q319 770 302.5 700.5 Q286 631 286 562 L286 520 Q286 449 303.5 379.5 Q321 310 358 254.5 Q395 199 453 164.5 Q511 130 593 130 Z" /><glyph glyph-name="uni050E" unicode="&#x50e;" d="M510 1298 L35 1298 L35 1456 L1187 1456 L1187 1298 L703 1298 L703 346 Q703 299 714.5 260.5 Q726 222 747.5 194.5 Q769 167 800.5 151.5 Q832 136 871 136 Q939 137 991.5 164.5 Q1044 192 1080 243 Q1116 294 1135.5 366.5 Q1155 439 1157 529 Q1159 629 1142 730 Q1125 831 1095 931 L1281 932 Q1308 834 1329.5 733 Q1351 632 1348 529 Q1346 390 1307 286.5 Q1268 183 1203 115 Q1138 47 1052 13 Q966 -21 871 -21 Q790 -23 725 -2.5 Q660 18 613.5 62.5 Q567 107 540.5 177 Q514 247 510 346 L510 1298 Z" /><glyph glyph-name="uni050F" unicode="&#x50f;" d="M428 932 L70 932 L70 1082 L977 1082 L977 932 L614 932 L614 345 Q614 297 625.5 257.5 Q637 218 659.5 189.5 Q682 161 713.5 145.5 Q745 130 785 130 Q898 132 957.5 210.5 Q1017 289 1020 426 Q1022 505 1005.5 588.5 Q989 672 960 751 L1138 751 Q1151 712 1163.5 671.5 Q1176 631 1186 590 Q1196 549 1201.5 508 Q1207 467 1206 426 Q1204 313 1169.5 229 Q1135 145 1077 89.5 Q1019 34 943.5 6.5 Q868 -21 785 -21 Q705 -23 640.5 -2.5 Q576 18 530.5 62.5 Q485 107 458.5 177 Q432 247 428 345 L428 932 Z" /><glyph glyph-name="uni0510" unicode="&#x510;" d="M713 663 Q531 663 437.5 600 Q344 537 344 402 Q344 344 369.5 295.5 Q395 247 443.5 211.5 Q492 176 563.5 156 Q635 136 727 136 Q808 136 874 157 Q940 178 987.5 214.5 Q1035 251 1060.5 300 Q1086 349 1086 404 L1279 404 Q1279 292 1231 212 Q1183 132 1105 80.5 Q1027 29 928 4.5 Q829 -20 727 -20 Q601 -20 495 8.5 Q389 37 312.5 91 Q236 145 193 224.5 Q150 304 150 406 Q150 534 220.5 619.5 Q291 705 426 747 Q306 795 239 878 Q172 961 172 1062 Q172 1164 211.5 1241.5 Q251 1319 323.5 1371.5 Q396 1424 498.5 1450.5 Q601 1477 727 1477 Q835 1477 932 1449 Q1029 1421 1101.5 1368.5 Q1174 1316 1216.5 1241 Q1259 1166 1259 1073 L1066 1073 Q1066 1126 1039.5 1171 Q1013 1216 967.5 1249 Q922 1282 860 1300.5 Q798 1319 727 1319 Q633 1319 565 1298.5 Q497 1278 452.5 1243.5 Q408 1209 387 1163 Q366 1117 366 1065 Q366 1011 385.5 966.5 Q405 922 447 889.5 Q489 857 554.5 839 Q620 821 713 821 L898 821 L898 663 L713 663 Z" /><glyph glyph-name="uni2000" unicode="&#x2000;" d="" /><glyph glyph-name="uni2001" unicode="&#x2001;" d="" /><glyph glyph-name="uni2002" unicode="&#x2002;" d="" /><glyph glyph-name="uni2003" unicode="&#x2003;" d="" /><glyph glyph-name="uni2004" unicode="&#x2004;" d="" /><glyph glyph-name="uni2005" unicode="&#x2005;" d="" /><glyph glyph-name="uni2006" unicode="&#x2006;" d="" /><glyph glyph-name="uni2007" unicode="&#x2007;" d="" /><glyph glyph-name="uni2008" unicode="&#x2008;" d="" /><glyph glyph-name="uni2009" unicode="&#x2009;" d="" /><glyph glyph-name="uni200A" unicode="&#x200a;" d="" /><glyph glyph-name="uni200B" unicode="&#x200b;" d="" /><glyph glyph-name="quoteleft" unicode="&#x2018;" d="M96 1193 Q96 1238 107.5 1287.5 Q119 1337 141.5 1385 Q164 1433 196.5 1477 Q229 1521 270 1555 L376 1483 Q328 1417 304 1347.5 Q280 1278 280 1196 L280 1073 L96 1073 L96 1193 Z" /><glyph glyph-name="quoteright" unicode="&#x2019;" d="M327 1408 Q327 1362 315.5 1312.5 Q304 1263 281.5 1215 Q259 1167 227 1123.5 Q195 1080 153 1046 L48 1118 Q95 1184 119.5 1253.5 Q144 1323 144 1405 L144 1536 L327 1536 L327 1408 Z" /><glyph glyph-name="quotesinglbase" unicode="&#x201a;" d="M315 78 Q315 33 303.5 -16 Q292 -65 269.5 -113 Q247 -161 215 -205 Q183 -249 141 -283 L36 -210 Q83 -144 106.5 -74.5 Q130 -5 130 75 L130 181 L315 181 L315 78 Z" /><glyph glyph-name="quotedblbase" unicode="&#x201e;" d="M315 78 Q315 31 303.5 -21 Q292 -73 269.5 -123 Q247 -173 215 -219 Q183 -265 141 -301 L36 -229 Q83 -158 106.5 -84.5 Q130 -11 130 75 L130 246 L315 246 L315 78 ZM612 78 Q612 31 600.5 -21 Q589 -73 566.5 -123 Q544 -173 511.5 -219 Q479 -265 437 -301 L332 -229 Q379 -158 402.5 -84.5 Q426 -11 426 75 L426 246 L612 246 L612 78 Z" /><glyph glyph-name="dagger" unicode="&#x2020;" d="M1060 929 L656 929 L656 0 L470 0 L470 929 L70 929 L70 1082 L470 1082 L470 1456 L656 1456 L656 1082 L1060 1082 L1060 929 Z" /><glyph glyph-name="daggerdbl" unicode="&#x2021;" d="M1076 0 L670 0 L670 -416 L484 -416 L484 0 L87 0 L87 151 L484 151 L484 929 L87 929 L87 1082 L484 1082 L484 1456 L670 1456 L670 1082 L1076 1082 L1076 929 L670 929 L670 151 L1076 151 L1076 0 Z" /><glyph glyph-name="bullet" unicode="&#x2022;" d="M138 793 Q138 836 152.5 872.5 Q167 909 193 935 Q219 961 256.5 976 Q294 991 341 991 Q389 991 427 976 Q465 961 491.5 935 Q518 909 532 872.5 Q546 836 546 793 L546 732 Q546 689 532 653 Q518 617 491.5 590.5 Q465 564 427.5 549.5 Q390 535 342 535 Q295 535 257.5 549.5 Q220 564 193.5 590.5 Q167 617 152.5 653 Q138 689 138 732 L138 793 Z" /><glyph glyph-name="perthousand" unicode="&#x2030;" d="M823 357 Q823 418 843.5 473 Q864 528 903 568.5 Q942 609 997 633 Q1052 657 1121 657 Q1199 657 1257 624 Q1315 591 1351 536 Q1386 591 1444 624 Q1502 657 1580 657 Q1650 657 1705.5 633 Q1761 609 1799.5 568.5 Q1838 528 1858.5 473 Q1879 418 1879 357 L1879 279 Q1879 217 1858.5 162.5 Q1838 108 1800 67.5 Q1762 27 1706.5 3 Q1651 -21 1582 -21 Q1504 -21 1445.5 11.5 Q1387 44 1351 99 Q1316 44 1258 11.5 Q1200 -21 1123 -21 Q1053 -21 997.5 3 Q942 27 903 67.5 Q864 108 843.5 162.5 Q823 217 823 279 L823 357 ZM68 1176 Q68 1238 88.5 1292.5 Q109 1347 148 1388 Q187 1429 242 1453 Q297 1477 366 1477 Q436 1477 491.5 1453 Q547 1429 585.5 1388 Q624 1347 644.5 1292.5 Q665 1238 665 1176 L665 1099 Q665 1038 644.5 983.5 Q624 929 586 888.5 Q548 848 493 824 Q438 800 368 800 Q298 800 242.5 824 Q187 848 148 888.5 Q109 929 88.5 983.5 Q68 1038 68 1099 L68 1176 ZM962 279 Q962 244 972 211.5 Q982 179 1002 154 Q1022 129 1052 114 Q1082 99 1123 99 Q1163 99 1193 114 Q1223 129 1243 154 Q1263 179 1272.5 211.5 Q1282 244 1282 279 L1282 357 Q1282 392 1272 424.5 Q1262 457 1242 482 Q1222 507 1192 522 Q1162 537 1121 537 Q1081 537 1051 522 Q1021 507 1001.5 482 Q982 457 972 424.5 Q962 392 962 357 L962 279 ZM1420 279 Q1420 244 1430 211.5 Q1440 179 1460 154 Q1480 129 1510 114 Q1540 99 1581 99 Q1621 99 1651 114 Q1681 129 1700.5 154 Q1720 179 1730 211.5 Q1740 244 1740 279 L1740 357 Q1740 392 1730 424.5 Q1720 457 1700 482 Q1680 507 1650 522 Q1620 537 1579 537 Q1539 537 1509 522 Q1479 507 1459.5 482 Q1440 457 1430 424.5 Q1420 392 1420 357 L1420 279 ZM207 1099 Q207 1064 217 1032 Q227 1000 247 975 Q267 950 297 935 Q327 920 368 920 Q408 920 438 935 Q468 950 488 974.5 Q508 999 517.5 1031.5 Q527 1064 527 1099 L527 1176 Q527 1211 517 1244 Q507 1277 487 1302 Q467 1327 437 1342 Q407 1357 366 1357 Q326 1357 296 1342 Q266 1327 246.5 1302 Q227 1277 217 1244 Q207 1211 207 1176 L207 1099 ZM429 110 L325 176 L1036 1314 L1140 1248 L429 110 Z" /><glyph glyph-name="guilsinglleft" unicode="&#x2039;" d="M286 550 L544 153 L403 153 L108 541 L108 560 L403 949 L544 949 L286 550 Z" /><glyph glyph-name="guilsinglright" unicode="&#x203a;" d="M231 949 L526 560 L526 541 L231 152 L89 152 L347 550 L89 949 L231 949 Z" /><glyph glyph-name="fraction" unicode="&#x2044;" d="M163 110 L59 176 L770 1314 L874 1248 L163 110 Z" /><glyph glyph-name="nsuperior" unicode="&#x207f;" d="M250 1451 L280 1328 Q315 1393 371 1429.5 Q427 1466 500 1466 Q560 1466 608 1448.5 Q656 1431 689.5 1393.5 Q723 1356 741.5 1298 Q760 1240 760 1159 L760 651 L590 651 L590 1127 Q590 1181 579.5 1218.5 Q569 1256 550.5 1279 Q532 1302 505.5 1312 Q479 1322 446 1322 Q387 1322 349.5 1292.5 Q312 1263 292 1213 L292 651 L122 651 L122 1451 L250 1451 Z" /><glyph glyph-name="lira" unicode="&#x20a4;" d="M789 470 L454 470 L457 402 Q457 332 442 268 Q427 204 395 157 L1128 157 L1127 0 L95 0 L95 157 L172 157 Q198 163 215.5 189.5 Q233 216 244 252 Q255 288 259.5 328 Q264 368 264 401 L261 470 L91 470 L91 595 L257 595 L253 731 L91 731 L91 856 L248 856 L242 1039 Q242 1142 275.5 1223.5 Q309 1305 368.5 1361 Q428 1417 509.5 1446.5 Q591 1476 687 1476 Q784 1476 861 1447.5 Q938 1419 990.5 1368 Q1043 1317 1071 1245.5 Q1099 1174 1099 1087 L908 1087 Q908 1150 888 1193.5 Q868 1237 835 1265 Q802 1293 759 1305.5 Q716 1318 670 1318 Q621 1318 578 1299.5 Q535 1281 503.5 1245.5 Q472 1210 453.5 1158 Q435 1106 435 1039 L441 856 L789 856 L789 731 L446 731 L450 595 L789 595 L789 470 Z" /><glyph glyph-name="peseta" unicode="&#x20a7;" d="M352 565 L352 0 L167 0 L167 1456 L545 1456 Q669 1456 756.5 1422.5 Q844 1389 900 1329.5 Q956 1270 982 1188.5 Q1008 1107 1008 1011 Q1008 915 982 833 Q956 751 900 691.5 Q844 632 756.5 598.5 Q669 565 545 565 L352 565 ZM352 717 L545 717 Q632 717 686 742 Q740 767 770.5 807.5 Q801 848 811.5 900.5 Q822 953 822 1009 Q822 1065 811.5 1118 Q801 1171 770.5 1212.5 Q740 1254 686 1279 Q632 1304 545 1304 L352 1304 L352 717 ZM1331 1344 L1331 1082 L1533 1082 L1533 939 L1331 939 L1331 268 Q1331 226 1341 200.5 Q1351 175 1367.5 161 Q1384 147 1405.5 142.5 Q1427 138 1450 138 Q1473 138 1498.5 142.5 Q1524 147 1538 150 L1538 0 Q1516 -6 1481 -13 Q1446 -20 1396 -20 Q1345 -20 1299.5 -5.5 Q1254 9 1220 43 Q1186 77 1166 132.5 Q1146 188 1146 269 L1146 939 L949 939 L949 1082 L1146 1082 L1146 1344 L1331 1344 Z" /><glyph glyph-name="Euro" unicode="&#x20ac;" d="M849 541 L465 541 Q467 438 492.5 362 Q518 286 563.5 235.5 Q609 185 672.5 160.5 Q736 136 814 136 Q872 136 926.5 144.5 Q981 153 1032 170 L1052 10 Q996 -4 935.5 -12 Q875 -20 812 -20 Q695 -20 597 15 Q499 50 428 120 Q357 190 316.5 295.5 Q276 401 273 541 L95 541 L95 665 L273 665 L273 802 L95 802 L95 927 L273 927 Q278 1063 319 1166 Q360 1269 431 1338 Q502 1407 598.5 1441.5 Q695 1476 811 1476 Q874 1476 932.5 1467.5 Q991 1459 1052 1445 L1032 1283 Q982 1299 926.5 1308.5 Q871 1318 813 1318 Q736 1318 673.5 1294.5 Q611 1271 566 1222.5 Q521 1174 495 1100.5 Q469 1027 466 927 L849 927 L849 802 L465 802 L465 665 L849 665 L849 541 Z" /><glyph glyph-name="uni2105" unicode="&#x2105;" d="M681 1054 Q681 1002 662 955.5 Q643 909 607.5 874.5 Q572 840 520.5 820 Q469 800 405 800 Q340 800 287.5 824 Q235 848 198.5 888.5 Q162 929 142.5 983.5 Q123 1038 123 1099 L123 1176 Q123 1238 142.5 1292.5 Q162 1347 198.5 1388 Q235 1429 286.5 1453 Q338 1477 403 1477 Q468 1477 519.5 1456.5 Q571 1436 607 1401.5 Q643 1367 662 1320 Q681 1273 681 1221 L542 1221 Q542 1248 533.5 1272.5 Q525 1297 508 1315.5 Q491 1334 465 1345.5 Q439 1357 403 1357 Q368 1357 341.5 1342 Q315 1327 297.5 1302 Q280 1277 271 1244 Q262 1211 262 1176 L262 1099 Q262 1064 271 1032 Q280 1000 298 975 Q316 950 342.5 935 Q369 920 405 920 Q440 920 466 932 Q492 944 509 963.5 Q526 983 534 1006.5 Q542 1030 542 1054 L681 1054 ZM814 357 Q814 418 834.5 473 Q855 528 894 568.5 Q933 609 988 633 Q1043 657 1112 657 Q1182 657 1237.5 633 Q1293 609 1331.5 568.5 Q1370 528 1390.5 473 Q1411 418 1411 357 L1411 279 Q1411 217 1390.5 162.5 Q1370 108 1332 67.5 Q1294 27 1238.5 3 Q1183 -21 1114 -21 Q1044 -21 988.5 3 Q933 27 894 67.5 Q855 108 834.5 162.5 Q814 217 814 279 L814 357 ZM953 279 Q953 244 963 211.5 Q973 179 993 154 Q1013 129 1043 114 Q1073 99 1114 99 Q1154 99 1184 114 Q1214 129 1234 154 Q1254 179 1263.5 211.5 Q1273 244 1273 279 L1273 357 Q1273 392 1263 424.5 Q1253 457 1233 482 Q1213 507 1183 522 Q1153 537 1112 537 Q1072 537 1042 522 Q1012 507 992.5 482 Q973 457 963 424.5 Q953 392 953 357 L953 279 ZM445 110 L341 176 L1052 1314 L1156 1248 L445 110 Z" /><glyph glyph-name="uni2113" unicode="&#x2113;" d="M716 -21 Q614 -21 538 11 Q462 43 411.5 102.5 Q361 162 336.5 245.5 Q312 329 312 431 L312 448 Q263 434 211.5 427 Q160 420 104 420 L104 596 Q162 596 214 605 Q266 614 312 631 L312 1176 Q312 1265 332 1335.5 Q352 1406 390 1454.5 Q428 1503 481.5 1529 Q535 1555 603 1555 Q662 1555 711.5 1533 Q761 1511 797 1470.5 Q833 1430 853.5 1371 Q874 1312 874 1239 L874 1198 Q874 1109 849.5 1014.5 Q825 920 777 831 Q729 742 658.5 664 Q588 586 497 529 L497 431 Q497 362 508 307.5 Q519 253 544.5 215 Q570 177 612 156.5 Q654 136 716 136 L716 -21 ZM497 747 Q546 794 582.5 850.5 Q619 907 642.5 966 Q666 1025 677.5 1084 Q689 1143 689 1196 L689 1239 Q689 1321 665 1359 Q641 1397 603 1397 Q497 1397 497 1176 L497 747 Z" /><glyph glyph-name="uni2116" unicode="&#x2116;" d="M1956 412 L1341 412 L1341 554 L1956 554 L1956 412 ZM1305 1127 Q1305 1204 1329 1267.5 Q1353 1331 1397.5 1376.5 Q1442 1422 1505 1447 Q1568 1472 1647 1472 Q1727 1472 1790.5 1447 Q1854 1422 1898.5 1376.5 Q1943 1331 1966.5 1267.5 Q1990 1204 1990 1127 L1990 1029 Q1990 952 1966.5 888.5 Q1943 825 1898.5 780 Q1854 735 1791 710.5 Q1728 686 1649 686 Q1569 686 1505.5 710.5 Q1442 735 1397.5 780 Q1353 825 1329 888.5 Q1305 952 1305 1029 L1305 1127 ZM1468 1029 Q1468 983 1479 945.5 Q1490 908 1512.5 881 Q1535 854 1569 839 Q1603 824 1649 824 Q1694 824 1727.5 839 Q1761 854 1783 881 Q1805 908 1816 945.5 Q1827 983 1827 1029 L1827 1127 Q1827 1172 1816 1209.5 Q1805 1247 1782.5 1274 Q1760 1301 1726.5 1316 Q1693 1331 1647 1331 Q1602 1331 1568.5 1316 Q1535 1301 1512.5 1274 Q1490 1247 1479 1209.5 Q1468 1172 1468 1127 L1468 1029 ZM1144 0 L940 0 L347 1134 L347 0 L162 0 L162 1456 L365 1456 L961 319 L961 1456 L1144 1456 L1144 0 Z" /><glyph glyph-name="trademark" unicode="&#x2122;" d="M990 1313 L850 919 L798 919 L658 1312 L658 919 L568 919 L568 1456 L680 1456 L824 1057 L968 1456 L1080 1456 L1080 919 L990 919 L990 1313 ZM489 1375 L342 1375 L342 919 L251 919 L251 1375 L103 1375 L103 1456 L489 1456 L489 1375 Z" /><glyph glyph-name="estimated" unicode="&#x212e;" d="M1046 94 Q961 41 868 10.5 Q775 -20 676 -20 Q604 -20 536.5 0 Q469 20 411 57 Q353 94 305 145 Q257 196 223 258.5 Q189 321 170.5 392.5 Q152 464 152 541 Q152 618 172.5 689.5 Q193 761 229.5 823.5 Q266 886 315.5 937 Q365 988 423.5 1025 Q482 1062 546 1082 Q610 1102 676 1102 Q779 1102 869 1061 Q959 1020 1026 948 Q1093 876 1132 777 Q1171 678 1171 561 L1171 514 L403 514 L403 186 Q458 135 528 105.5 Q598 76 676 76 Q770 76 862.5 105.5 Q955 135 1044 198 L1046 94 ZM676 1008 Q601 1008 530.5 975.5 Q460 943 403 886 L403 609 L943 609 L943 895 Q890 947 821.5 977.5 Q753 1008 676 1008 Z" /><glyph glyph-name="partialdiff" unicode="&#x2202;" d="M572 1022 Q665 1022 748 983.5 Q831 945 889 877 Q878 987 844 1075.5 Q810 1164 759 1226 Q708 1288 643.5 1321.5 Q579 1355 508 1355 Q428 1355 361.5 1339 Q295 1323 224 1296 L208 1447 Q235 1459 265.5 1471.5 Q296 1484 333.5 1493.5 Q371 1503 417.5 1509.5 Q464 1516 524 1516 Q662 1516 765 1457 Q868 1398 936.5 1290 Q1005 1182 1039.5 1029 Q1074 876 1074 689 L1074 630 Q1074 492 1041 373 Q1008 254 945.5 166.5 Q883 79 792.5 29 Q702 -21 588 -21 Q474 -21 384.5 19 Q295 59 233 130 Q171 201 138.5 297.5 Q106 394 106 507 L106 530 Q106 635 137.5 725 Q169 815 229 881 Q289 947 375.5 984.5 Q462 1022 572 1022 ZM590 870 Q513 870 456.5 842.5 Q400 815 363.5 768 Q327 721 309 659.5 Q291 598 291 530 L291 507 Q291 431 309 362.5 Q327 294 363.5 242.5 Q400 191 456 160.5 Q512 130 588 130 Q666 130 722.5 166 Q779 202 816 264.5 Q853 327 871 411.5 Q889 496 889 593 L889 659 Q884 684 865.5 720.5 Q847 757 811.5 790 Q776 823 721.5 846.5 Q667 870 590 870 Z" /><glyph glyph-name="product" unicode="&#x220f;" d="M1253 -213 L1068 -213 L1068 1304 L354 1304 L354 -213 L169 -213 L169 1456 L1253 1456 L1253 -213 Z" /><glyph glyph-name="summation" unicode="&#x2211;" d="M875 577 L294 -117 L1195 -117 L1195 -269 L69 -269 L69 -126 L678 590 L69 1312 L69 1456 L1118 1456 L1118 1304 L293 1304 L875 602 L875 577 Z" /><glyph glyph-name="minus" unicode="&#x2212;" d="M1003 651 L168 651 L168 802 L1003 802 L1003 651 Z" /><glyph glyph-name="radical" unicode="&#x221a;" d="M560 284 L987 1456 L1176 1456 L634 0 L493 0 L248 628 L63 628 L63 782 L378 782 L560 284 Z" /><glyph glyph-name="infinity" unicode="&#x221e;" d="M1995 527 Q1995 418 1960 318.5 Q1925 219 1861.5 143.5 Q1798 68 1708 23.5 Q1618 -21 1509 -21 Q1416 -21 1342.5 12.5 Q1269 46 1213 98 Q1157 150 1115.5 214 Q1074 278 1046 340 Q1018 278 977 214 Q936 150 880 98 Q824 46 751 12.5 Q678 -21 585 -21 Q475 -21 385 23.5 Q295 68 231.5 143.5 Q168 219 133 318.5 Q98 418 98 527 L98 553 Q98 662 133 761.5 Q168 861 231.5 936.5 Q295 1012 384.5 1057 Q474 1102 583 1102 Q676 1102 749.5 1068.5 Q823 1035 879.5 982.5 Q936 930 977 866 Q1018 802 1046 740 Q1074 802 1115.5 866 Q1157 930 1213.5 982.5 Q1270 1035 1344 1068.5 Q1418 1102 1511 1102 Q1620 1102 1709 1057 Q1798 1012 1861.5 936.5 Q1925 861 1960 761.5 Q1995 662 1995 553 L1995 527 ZM283 527 Q283 446 302.5 373.5 Q322 301 360.5 247 Q399 193 455 161.5 Q511 130 585 130 Q644 130 692.5 153 Q741 176 779.5 212 Q818 248 847 292.5 Q876 337 896.5 380.5 Q917 424 929.5 461 Q942 498 947 520 L947 562 Q942 583 929.5 619.5 Q917 656 896.5 699.5 Q876 743 846.5 787.5 Q817 832 778.5 868 Q740 904 691 927 Q642 950 583 950 Q510 950 454 918 Q398 886 360 832 Q322 778 302.5 706 Q283 634 283 553 L283 527 ZM1810 553 Q1810 634 1790 706 Q1770 778 1732 832 Q1694 886 1638.5 918 Q1583 950 1511 950 Q1451 950 1402.5 927 Q1354 904 1315 868 Q1276 832 1246.5 787.5 Q1217 743 1196.5 699.5 Q1176 656 1163.5 619.5 Q1151 583 1146 562 L1146 520 Q1151 498 1163.5 461 Q1176 424 1196.5 380.5 Q1217 337 1246.5 292.5 Q1276 248 1314.5 212 Q1353 176 1401.5 153 Q1450 130 1509 130 Q1581 130 1637.5 161.5 Q1694 193 1732 247 Q1770 301 1790 373.5 Q1810 446 1810 527 L1810 553 Z" /><glyph glyph-name="integral" unicode="&#x222b;" d="M357 -107 Q357 -191 335 -253.5 Q313 -316 271.5 -356.5 Q230 -397 170.5 -417 Q111 -437 35 -437 Q5 -437 -23 -432 Q-51 -427 -80 -417 L-62 -272 Q-55 -274 -44.5 -276.5 Q-34 -279 -23 -281 Q-12 -283 -1.5 -284 Q9 -285 17 -285 Q91 -285 131.5 -242.5 Q172 -200 172 -107 L172 1198 Q172 1285 195.5 1352 Q219 1419 262.5 1464.5 Q306 1510 368.5 1533.5 Q431 1557 510 1557 Q547 1557 582.5 1551 Q618 1545 654 1536 L630 1394 Q613 1399 590.5 1402 Q568 1405 539 1405 Q450 1405 403.5 1350.5 Q357 1296 357 1198 L357 -107 L357 -107 Z" /><glyph glyph-name="approxequal" unicode="&#x2248;" d="M102 901 Q150 952 215.5 981 Q281 1010 347 1010 Q387 1011 416.5 1005.5 Q446 1000 472 990 Q498 980 523.5 966.5 Q549 953 581 937 Q611 922 634.5 909.5 Q658 897 682.5 887.5 Q707 878 734.5 873 Q762 868 799 868 Q865 868 926 902 Q987 936 1035 996 L1035 806 Q987 755 926 726 Q865 697 799 697 Q762 697 734.5 702 Q707 707 682.5 716.5 Q658 726 634.5 738.5 Q611 751 581 766 Q549 782 523.5 796 Q498 810 472 820 Q446 830 416.5 835.5 Q387 841 347 840 Q281 840 215.5 806 Q150 772 102 712 L102 901 ZM101 483 Q149 534 214 563.5 Q279 593 345 593 Q385 594 414.5 588.5 Q444 583 470 573 Q496 563 521.5 549.5 Q547 536 579 520 Q609 505 633 492 Q657 479 681 470 Q705 461 733 455.5 Q761 450 798 450 Q864 450 924.5 484 Q985 518 1033 578 L1034 389 Q986 338 925 309 Q864 280 798 280 Q761 280 733.5 285 Q706 290 681.5 299.5 Q657 309 633.5 321.5 Q610 334 580 349 Q548 365 522.5 378.5 Q497 392 471 402 Q445 412 415.5 417.5 Q386 423 346 422 Q280 422 214.5 388 Q149 354 101 294 L101 483 Z" /><glyph glyph-name="notequal" unicode="&#x2260;" d="M986 399 L455 399 L314 156 L219 215 L326 399 L152 399 L152 559 L420 559 L569 814 L152 814 L152 975 L663 975 L816 1237 L910 1178 L791 975 L986 975 L986 814 L697 814 L549 559 L986 559 L986 399 Z" /><glyph glyph-name="lozenge" unicode="&#x25ca;" d="M444 1456 L584 1456 L988 727 L588 0 L447 0 L43 727 L444 1456 ZM513 1254 L234 727 L518 201 L798 727 L513 1254 Z" /><glyph glyph-name="quotedblx" unicode="&#xee02;" d="M251 633 L110 633 L110 1082 L251 1082 L251 633 ZM563 633 L422 633 L422 1082 L563 1082 L563 633 Z" /><glyph glyph-name="commaaccent" unicode="&#xf6c3;" d="M343 160 Q343 120 334 76.5 Q325 33 307 -10 Q289 -53 261.5 -92 Q234 -131 197 -161 L92 -89 Q130 -31 148 28.5 Q166 88 166 157 L166 239 L343 239 L343 160 Z" /><glyph glyph-name="fi" unicode="&#xfb01;" d="M202 0 L202 939 L31 939 L31 1082 L202 1082 L202 1176 Q202 1268 229.5 1339 Q257 1410 308 1458.5 Q359 1507 432.5 1532 Q506 1557 598 1557 Q671 1557 739.5 1539.5 Q808 1522 881 1496 L850 1340 Q805 1358 744.5 1374 Q684 1390 612 1390 Q493 1390 440.5 1336.5 Q388 1283 388 1176 L388 1082 L609 1082 L609 939 L388 939 L388 0 L202 0 ZM973 0 L787 0 L787 1082 L973 1082 L973 0 Z" /><glyph glyph-name="uniFEFF" unicode="&#xfeff;" d="" /><glyph glyph-name="uniFFFC" unicode="&#xfffc;" d="M825 468 Q825 419 808.5 379 Q792 339 761.5 310 Q731 281 689 265 Q647 249 596 249 Q544 249 501.5 265 Q459 281 428.5 310 Q398 339 381 379 Q364 419 364 468 L364 580 Q364 628 381 668.5 Q398 709 428 738 Q458 767 500.5 783 Q543 799 594 799 Q645 799 687.5 783 Q730 767 760.5 738 Q791 709 808 668.5 Q825 628 825 580 L825 468 ZM892 252 L892 801 L1080 801 Q1178 801 1235 764.5 Q1292 728 1292 651 Q1292 613 1271 582 Q1250 551 1208 535 Q1258 522 1284 487 Q1310 452 1310 407 Q1310 330 1257.5 291 Q1205 252 1113 252 L892 252 ZM733 580 Q733 649 696 688 Q659 727 594 727 Q530 727 493 688 Q456 649 456 580 L456 468 Q456 399 493 360 Q530 321 596 321 Q660 321 696.5 360 Q733 399 733 468 L733 580 ZM1687 803 L1779 803 L1779 425 Q1779 385 1765 353.5 Q1751 322 1726 300 Q1701 278 1666.5 266 Q1632 254 1592 254 Q1504 254 1449.5 294.5 Q1395 335 1395 418 L1488 418 Q1488 371 1516 349 Q1544 327 1592 327 Q1633 327 1660 354 Q1687 381 1687 425 L1687 803 ZM91 -398 L91 -83 L204 -83 L204 -285 L400 -285 L400 -398 L91 -398 ZM1720 -398 L1720 -285 L1919 -285 L1919 -83 L2030 -83 L2030 -398 L1720 -398 ZM91 1169 L91 1454 L400 1454 L400 1338 L204 1338 L204 1169 L91 1169 ZM1720 1338 L1720 1454 L2030 1454 L2030 1169 L1919 1169 L1919 1338 L1720 1338 ZM987 496 L987 327 L1113 327 Q1165 327 1190.5 349 Q1216 371 1216 410 Q1216 448 1191.5 471 Q1167 494 1118 496 L1113 496 L987 496 ZM1321 1338 L1321 1454 L1599 1454 L1599 1338 L1321 1338 ZM922 1338 L922 1454 L1199 1454 L1199 1338 L922 1338 ZM523 1338 L523 1454 L799 1454 L799 1338 L523 1338 ZM1321 -398 L1321 -285 L1599 -285 L1599 -398 L1321 -398 ZM922 -398 L922 -285 L1199 -285 L1199 -398 L922 -398 ZM523 -398 L523 -285 L799 -285 L799 -398 L523 -398 ZM987 566 L1080 566 Q1198 566 1198 646 Q1198 687 1169 702 Q1140 717 1080 717 L987 717 L987 566 ZM204 416 L91 416 L91 668 L204 668 L204 416 ZM204 794 L91 794 L91 1044 L204 1044 L204 794 ZM204 41 L91 41 L91 290 L204 290 L204 41 ZM2030 416 L1919 416 L1919 668 L2030 668 L2030 416 ZM2030 794 L1919 794 L1919 1044 L2030 1044 L2030 794 ZM2030 41 L1919 41 L1919 290 L2030 290 L2030 41 Z" /><glyph glyph-name="uniFFFD" unicode="&#xfffd;" d="M1048 1618 L2007 643 L1048 -332 L92 643 L1048 1618 ZM1131 402 Q1131 427 1133.5 447 Q1136 467 1143.5 483.5 Q1151 500 1163.5 514 Q1176 528 1197 542 Q1231 560 1261 586 Q1291 612 1313.5 643.5 Q1336 675 1349.5 712 Q1363 749 1363 790 Q1363 854 1341.5 905.5 Q1320 957 1279.5 993.5 Q1239 1030 1180 1049.5 Q1121 1069 1047 1069 Q983 1069 928 1054 Q873 1039 831.5 1006.5 Q790 974 766 923.5 Q742 873 741 803 L944 803 Q945 830 953.5 849.5 Q962 869 976.5 881.5 Q991 894 1009 900 Q1027 906 1047 906 Q1104 906 1132 874 Q1160 842 1160 790 Q1160 738 1133.5 699.5 Q1107 661 1067 635 Q1032 610 1006 588.5 Q980 567 963 541.5 Q946 516 937.5 483 Q929 450 929 402 L1131 402 ZM1131 311 L929 311 L929 141 L1131 141 L1131 311 ZM1056 -551 L1060 -551 L1060 -555 L1056 -555 L1056 -551 ZM1054 2163 L1058 2163 L1058 2159 L1054 2159 L1054 2163 Z" /><glyph glyph-name="Dcroat" unicode="&#x110;" d="M199 0 L199 666 L37 666 L37 817 L199 817 L199 1456 L610 1456 Q754 1456 872 1408 Q990 1360 1074.5 1271 Q1159 1182 1205.5 1055 Q1252 928 1252 770 L1252 684 Q1252 526 1205.5 399 Q1159 272 1073.5 183.5 Q988 95 866 47.5 Q744 0 593 0 L199 0 ZM673 666 L391 666 L391 157 L593 157 Q709 157 797 194.5 Q885 232 944 301 Q1003 370 1032.5 467 Q1062 564 1062 684 L1062 773 Q1062 898 1032 995.5 Q1002 1093 944 1160.5 Q886 1228 802 1263 Q718 1298 610 1298 L391 1298 L391 817 L673 817 L673 666 Z" /><glyph glyph-name="Eth" unicode="ð" d="M199 0 L199 666 L37 666 L37 817 L199 817 L199 1456 L610 1456 Q754 1456 872 1408 Q990 1360 1074.5 1271 Q1159 1182 1205.5 1055 Q1252 928 1252 770 L1252 684 Q1252 526 1205.5 399 Q1159 272 1073.5 183.5 Q988 95 866 47.5 Q744 0 593 0 L199 0 ZM673 666 L391 666 L391 157 L593 157 Q709 157 797 194.5 Q885 232 944 301 Q1003 370 1032.5 467 Q1062 564 1062 684 L1062 773 Q1062 898 1032 995.5 Q1002 1093 944 1160.5 Q886 1228 802 1263 Q718 1298 610 1298 L391 1298 L391 817 L673 817 L673 666 Z" /><glyph glyph-name="hbar" unicode="&#x127;" d="M636 1234 L355 1234 L355 951 Q413 1022 494 1062 Q575 1102 675 1102 Q754 1102 818 1080.5 Q882 1059 927 1011.5 Q972 964 996.5 889.5 Q1021 815 1021 709 L1021 0 L836 0 L836 711 Q836 774 822 818.5 Q808 863 780.5 891 Q753 919 712.5 932 Q672 945 619 945 Q529 945 461 897 Q393 849 355 771 L355 0 L170 0 L170 1234 L0 1234 L0 1385 L170 1385 L170 1536 L355 1536 L355 1385 L636 1385 L636 1234 Z" /><glyph glyph-name="Tbar" unicode="&#x166;" d="M938 823 L707 823 L707 0 L516 0 L516 823 L302 823 L302 974 L516 974 L516 1298 L49 1298 L49 1456 L1175 1456 L1175 1298 L707 1298 L707 974 L938 974 L938 823 Z" /><glyph glyph-name="tbar" unicode="&#x167;" d="M391 1344 L391 1082 L593 1082 L593 939 L391 939 L391 753 L624 753 L624 602 L391 602 L391 268 Q391 226 401 200.5 Q411 175 427.5 161 Q444 147 465.5 142.5 Q487 138 510 138 Q533 138 558.5 142.5 Q584 147 598 150 L598 0 Q576 -6 541 -13 Q506 -20 456 -20 Q405 -20 359.5 -5.5 Q314 9 280 43 Q246 77 226 132.5 Q206 188 206 269 L206 602 L-12 602 L-12 753 L206 753 L206 939 L9 939 L9 1082 L206 1082 L206 1344 L391 1344 Z" /><glyph glyph-name="Aogonek" unicode="&#x104;" d="M752 1456 L1309 0 L1271 0 Q1239 -24 1208 -49 Q1177 -74 1153 -102 Q1129 -130 1114.5 -159.5 Q1100 -189 1100 -222 Q1100 -255 1117 -274.5 Q1134 -294 1178 -294 Q1211 -294 1236.5 -285 Q1262 -276 1278 -268 L1291 -389 Q1267 -404 1229 -418.5 Q1191 -433 1131 -433 Q1090 -433 1055 -421 Q1020 -409 994.5 -385 Q969 -361 954 -325.5 Q939 -290 939 -243 Q939 -177 979 -112.5 Q1019 -48 1108 9 L973 380 L363 380 L226 0 L28 0 L584 1456 L752 1456 ZM421 538 L916 538 L668 1219 L421 538 Z" /><glyph glyph-name="aogonek" unicode="&#x105;" d="M804 7 Q796 27 790.5 55.5 Q785 84 782 114 Q756 87 723.5 62.5 Q691 38 652.5 19.5 Q614 1 569 -9.5 Q524 -20 474 -20 Q391 -20 323.5 5 Q256 30 208.5 73 Q161 116 135 174.5 Q109 233 109 300 Q109 387 143 453.5 Q177 520 240.5 565 Q304 610 394 633 Q484 656 595 656 L779 656 L779 741 Q779 838 721 895.5 Q663 953 550 953 Q498 953 455 939 Q412 925 381.5 901.5 Q351 878 334 847 Q317 816 317 782 L131 782 Q131 840 161.5 897 Q192 954 248 999.5 Q304 1045 383.5 1073.5 Q463 1102 561 1102 Q649 1102 723.5 1079.5 Q798 1057 851 1011.5 Q904 966 934 898 Q964 830 964 739 L964 236 Q964 181 973.5 120.5 Q983 60 1002 16 L1002 0 L969 0 Q937 -24 906 -49 Q875 -74 851 -102 Q827 -130 812.5 -159.5 Q798 -189 798 -222 Q798 -255 815 -274.5 Q832 -294 876 -294 Q909 -294 934.5 -285 Q960 -276 976 -268 L989 -389 Q965 -404 927 -418.5 Q889 -433 829 -433 Q788 -433 753 -421 Q718 -409 692.5 -385 Q667 -361 652 -325.5 Q637 -290 637 -243 Q637 -177 676.5 -113 Q716 -49 804 7 ZM501 141 Q551 141 595 155 Q639 169 675 191.5 Q711 214 737.5 243 Q764 272 779 303 L779 525 L625 525 Q466 525 380 475.5 Q294 426 294 326 Q294 287 307 253 Q320 219 346.5 194.5 Q373 170 411.5 155.5 Q450 141 501 141 Z" /><glyph glyph-name="Eogonek" unicode="&#x118;" d="M992 673 L361 673 L361 157 L1094 157 L1094 0 L1021 0 Q989 -24 958 -49 Q927 -74 903 -102 Q879 -130 864.5 -159.5 Q850 -189 850 -222 Q850 -255 867 -274.5 Q884 -294 928 -294 Q961 -294 986.5 -285 Q1012 -276 1028 -268 L1041 -389 Q1017 -404 979 -418.5 Q941 -433 881 -433 Q840 -433 805 -421 Q770 -409 744.5 -385 Q719 -361 704 -325.5 Q689 -290 689 -243 Q689 -180 726 -117.5 Q763 -55 844 0 L169 0 L169 1456 L1084 1456 L1084 1298 L361 1298 L361 830 L992 830 L992 673 Z" /><glyph glyph-name="eogonek" unicode="&#x119;" d="M997 189 Q966 141 920.5 98 Q875 55 811 25 L812 25 Q780 1 749 -24 Q718 -49 694 -77 Q670 -105 655.5 -134.5 Q641 -164 641 -197 Q641 -230 658 -249.5 Q675 -269 719 -269 Q752 -269 777.5 -260 Q803 -251 819 -243 L832 -364 Q808 -379 770 -393.5 Q732 -408 672 -408 Q631 -408 596 -396 Q561 -384 535.5 -360 Q510 -336 495 -300.5 Q480 -265 480 -218 Q480 -167 503.5 -117 Q527 -67 578 -20 Q467 -18 377.5 21.5 Q288 61 225 130 Q162 199 127.5 294.5 Q93 390 93 503 L93 545 Q93 677 132.5 781 Q172 885 238 956 Q304 1027 389 1064.5 Q474 1102 566 1102 Q682 1102 766 1061.5 Q850 1021 904.5 950 Q959 879 985 782 Q1011 685 1011 571 L1011 488 L278 488 Q280 413 302.5 348 Q325 283 366.5 235 Q408 187 466.5 159 Q525 131 599 131 Q697 131 765 171 Q833 211 884 277 L997 189 ZM566 950 Q510 950 463 929.5 Q416 909 379 870 Q342 831 317.5 773 Q293 715 284 640 L826 640 L826 654 Q823 708 808.5 761 Q794 814 763.5 856 Q733 898 685 924 Q637 950 566 950 Z" /><glyph glyph-name="Iogonek" unicode="&#x12e;" d="M375 0 L341 0 Q309 -24 278 -49 Q247 -74 223 -102 Q199 -130 184.5 -159.5 Q170 -189 170 -222 Q170 -255 187 -274.5 Q204 -294 248 -294 Q281 -294 306.5 -285 Q332 -276 348 -268 L361 -389 Q337 -404 299 -418.5 Q261 -433 201 -433 Q160 -433 125 -421 Q90 -409 64.5 -385 Q39 -361 24 -325.5 Q9 -290 9 -243 Q9 -176 50 -111 Q91 -46 183 11 L183 1456 L375 1456 L375 0 Z" /><glyph glyph-name="iogonek" unicode="&#x12f;" d="M341 0 L326 0 Q294 -24 263 -49 Q232 -74 208 -102 Q184 -130 169.5 -159.5 Q155 -189 155 -222 Q155 -255 172 -274.5 Q189 -294 233 -294 Q266 -294 291.5 -285 Q317 -276 333 -268 L346 -389 Q322 -404 284 -418.5 Q246 -433 186 -433 Q145 -433 110 -421 Q75 -409 49.5 -385 Q24 -361 9 -325.5 Q-6 -290 -6 -243 Q-6 -178 32.5 -115 Q71 -52 156 4 L156 1082 L341 1082 L341 0 ZM141 1369 Q141 1414 168.5 1445 Q196 1476 250 1476 Q304 1476 332 1445 Q360 1414 360 1369 Q360 1324 332 1294 Q304 1264 250 1264 Q196 1264 168.5 1294 Q141 1324 141 1369 Z" /><glyph glyph-name="Uogonek" unicode="&#x172;" d="M1194 1456 L1194 470 Q1194 387 1174 318.5 Q1154 250 1118.5 195 Q1083 140 1033.5 99.5 Q984 59 924 32 Q894 10 866 -14 Q838 -38 816.5 -64.5 Q795 -91 782 -119 Q769 -147 769 -178 Q769 -211 786 -230.5 Q803 -250 847 -250 Q880 -250 905.5 -241 Q931 -232 947 -224 L960 -345 Q936 -360 898 -374.5 Q860 -389 800 -389 Q759 -389 724 -377 Q689 -365 663.5 -341 Q638 -317 623 -281.5 Q608 -246 608 -199 Q608 -153 627 -107.5 Q646 -62 687 -19 Q682 -19 676 -19.5 Q670 -20 665 -20 Q554 -20 458 10.5 Q362 41 291.5 102 Q221 163 180.5 255 Q140 347 140 470 L140 1456 L330 1456 L330 470 Q330 385 354.5 322.5 Q379 260 423 218.5 Q467 177 528.5 157 Q590 137 665 137 Q741 137 803 157 Q865 177 909 218.5 Q953 260 977 322.5 Q1001 385 1001 470 L1001 1456 L1194 1456 Z" /><glyph glyph-name="uogonek" unicode="&#x173;" d="M978 0 Q946 -24 915 -49 Q884 -74 860 -102 Q836 -130 821.5 -159.5 Q807 -189 807 -222 Q807 -255 824 -274.5 Q841 -294 885 -294 Q918 -294 943.5 -285 Q969 -276 985 -268 L998 -389 Q974 -404 936 -418.5 Q898 -433 838 -433 Q797 -433 762 -421 Q727 -409 701.5 -385 Q676 -361 661 -325.5 Q646 -290 646 -243 Q646 -177 685 -113.5 Q724 -50 812 6 L808 107 Q757 47 679 13.5 Q601 -20 491 -20 Q411 -20 346 2.5 Q281 25 234 73.5 Q187 122 161.5 198.5 Q136 275 136 383 L136 1082 L321 1082 L321 381 Q321 308 338 260.5 Q355 213 383 185.5 Q411 158 447 147.5 Q483 137 521 137 Q634 137 702.5 180 Q771 223 803 295 L803 1082 L988 1082 L988 0 L978 0 Z" /><glyph glyph-name="uni0405" unicode="&#x405;" d="M945 368 Q945 419 929.5 458 Q914 497 874.5 529.5 Q835 562 768 590.5 Q701 619 598 649 Q490 680 402.5 719.5 Q315 759 253.5 810.5 Q192 862 159 928 Q126 994 126 1079 Q126 1164 161.5 1236.5 Q197 1309 262 1362.5 Q327 1416 418 1446 Q509 1476 621 1476 Q744 1476 840 1439 Q936 1402 1001.5 1341 Q1067 1280 1101 1200 Q1135 1120 1135 1035 L942 1035 Q942 1096 922.5 1148 Q903 1200 863 1238 Q823 1276 763 1297 Q703 1318 621 1318 Q544 1318 487 1300 Q430 1282 393 1250.5 Q356 1219 338 1176 Q320 1133 320 1082 Q320 1036 339.5 998 Q359 960 400 928 Q441 896 505.5 869 Q570 842 660 817 Q784 782 874 739.5 Q964 697 1022.5 643 Q1081 589 1109.5 522 Q1138 455 1138 370 Q1138 281 1102 209 Q1066 137 999.5 86 Q933 35 839.5 7.5 Q746 -20 631 -20 Q564 -20 497 -7.5 Q430 5 368.5 30 Q307 55 254.5 92 Q202 129 163 178 Q124 227 102 288 Q80 349 80 422 L273 422 Q273 347 302.5 293.5 Q332 240 381.5 205 Q431 170 495.5 153.5 Q560 137 631 137 Q783 137 864 199 Q945 261 945 368 Z" /><glyph glyph-name="uni0441" unicode="&#x441;" d="M574 131 Q623 131 668 147 Q713 163 747.5 191 Q782 219 803.5 257.5 Q825 296 829 341 L1004 341 Q1000 269 964.5 203.5 Q929 138 871 88.5 Q813 39 736.5 9.5 Q660 -20 574 -20 Q452 -20 361.5 23.5 Q271 67 211 141 Q151 215 121.5 313 Q92 411 92 520 L92 562 Q92 671 121.5 769 Q151 867 211 941 Q271 1015 361 1058.5 Q451 1102 573 1102 Q668 1102 745.5 1072 Q823 1042 879.5 989.5 Q936 937 968 865 Q1000 793 1004 710 L829 710 Q825 760 805.5 803.5 Q786 847 753 879.5 Q720 912 674.5 931 Q629 950 573 950 Q487 950 430.5 916 Q374 882 339.5 826.5 Q305 771 291 701.5 Q277 632 277 562 L277 520 Q277 448 291 378.5 Q305 309 339 254 Q373 199 430 165 Q487 131 574 131 Z" /><glyph glyph-name="dcroat" unicode="&#x111;" d="M1196 1234 L1008 1234 L1008 0 L838 0 L829 116 Q775 50 699 15 Q623 -20 520 -20 Q425 -20 346.5 21 Q268 62 212 135.5 Q156 209 125.5 309.5 Q95 410 95 529 L95 550 Q95 674 125.5 775.5 Q156 877 212 949.5 Q268 1022 346.5 1062 Q425 1102 522 1102 Q621 1102 695 1068.5 Q769 1035 823 972 L823 1234 L560 1234 L560 1385 L823 1385 L823 1536 L1008 1536 L1008 1385 L1196 1385 L1196 1234 ZM280 529 Q280 448 296.5 376.5 Q313 305 348 252 Q383 199 437 168 Q491 137 566 137 Q615 137 654 148.5 Q693 160 724.5 181 Q756 202 780.5 231 Q805 260 823 295 L823 792 Q805 825 781 853 Q757 881 725.5 901.5 Q694 922 655 933.5 Q616 945 568 945 Q492 945 437.5 913.5 Q383 882 348 828 Q313 774 296.5 702.5 Q280 631 280 550 L280 529 Z" /><glyph glyph-name="uni048C" unicode="&#x48c;" d="M592 1104 L355 1104 L355 862 L706 862 Q826 862 918.5 831.5 Q1011 801 1073.5 745 Q1136 689 1168.5 610.5 Q1201 532 1201 435 Q1201 339 1168.5 259 Q1136 179 1073 121.5 Q1010 64 918 32 Q826 0 706 0 L163 0 L163 1104 L-44 1104 L-44 1255 L163 1255 L163 1456 L355 1456 L355 1255 L592 1255 L592 1104 ZM355 704 L355 157 L706 157 Q786 157 843.5 180 Q901 203 937.5 242 Q974 281 991 331.5 Q1008 382 1008 437 Q1008 492 991 540.5 Q974 589 937.5 625.5 Q901 662 843.5 683 Q786 704 706 704 L355 704 Z" /><glyph glyph-name="uni0462" unicode="&#x462;" d="M592 1104 L355 1104 L355 862 L706 862 Q826 862 918.5 831.5 Q1011 801 1073.5 745 Q1136 689 1168.5 610.5 Q1201 532 1201 435 Q1201 339 1168.5 259 Q1136 179 1073 121.5 Q1010 64 918 32 Q826 0 706 0 L163 0 L163 1104 L-44 1104 L-44 1255 L163 1255 L163 1456 L355 1456 L355 1255 L592 1255 L592 1104 ZM355 704 L355 157 L706 157 Q786 157 843.5 180 Q901 203 937.5 242 Q974 281 991 331.5 Q1008 382 1008 437 Q1008 492 991 540.5 Q974 589 937.5 625.5 Q901 662 843.5 683 Q786 704 706 704 L355 704 Z" /><glyph glyph-name="uni0492" unicode="&#x492;" d="M639 684 L370 684 L370 0 L177 0 L177 684 L3 684 L3 835 L177 835 L177 1456 L1072 1456 L1072 1298 L370 1298 L370 835 L639 835 L639 684 Z" /><glyph glyph-name="uni0493" unicode="&#x493;" d="M632 479 L340 479 L340 0 L154 0 L154 479 L-4 479 L-4 630 L154 630 L154 1082 L839 1082 L839 929 L340 929 L340 630 L632 630 L632 479 Z" /><glyph glyph-name="uni049E" unicode="&#x49e;" d="M567 654 L390 654 L390 0 L198 0 L198 1079 L11 1079 L11 1230 L198 1230 L198 1456 L390 1456 L390 1230 L647 1230 L647 1079 L390 1079 L390 814 L540 814 L1049 1456 L1288 1456 L732 750 L1329 0 L1094 0 L567 654 Z" /><glyph glyph-name="uni049F" unicode="&#x49f;" d="M462 501 L346 380 L346 0 L161 0 L161 1217 L-45 1217 L-45 1368 L161 1368 L161 1536 L346 1536 L346 1368 L591 1368 L591 1217 L346 1217 L346 607 L445 726 L782 1082 L1007 1082 L586 630 L1056 0 L839 0 L462 501 Z" /><glyph glyph-name="uni04B0" unicode="&#x4b0;" d="M934 521 L709 521 L709 0 L517 0 L517 521 L298 521 L298 672 L446 672 L15 1456 L235 1456 L613 725 L993 1456 L1211 1456 L780 672 L934 672 L934 521 Z" /><glyph glyph-name="uni04B1" unicode="&#x4b1;" d="M842 -11 L612 -11 L612 -416 L426 -416 L426 -11 L206 -11 L206 140 L397 140 L46 1082 L235 1082 L522 276 L802 1082 L991 1082 L642 140 L842 140 L842 -11 Z" /><glyph glyph-name="uni04FE" unicode="&#x4fe;" d="M964 670 L800 670 L1230 0 L1002 0 L644 568 L284 0 L57 0 L488 670 L328 670 L328 821 L473 821 L68 1456 L293 1456 L644 898 L993 1456 L1219 1456 L814 821 L964 821 L964 670 Z" /><glyph glyph-name="uni04FF" unicode="&#x4ff;" d="M828 481 L649 481 L970 0 L756 0 L506 405 L256 0 L41 0 L362 481 L192 481 L192 632 L350 632 L52 1082 L266 1082 L503 687 L743 1082 L959 1082 L661 632 L828 632 L828 481 Z" /><glyph glyph-name=".null" unicode="" d="" /></font>
</defs>
</svg>
